<?xml version="1.0" standalone="no"?>
<!DOCTYPE svg PUBLIC "-//W3C//DTD SVG 20010904//EN"
 "http://www.w3.org/TR/2001/REC-SVG-20010904/DTD/svg10.dtd">
<svg version="1.0" xmlns="http://www.w3.org/2000/svg"
 width="512.000000pt" height="512.000000pt" viewBox="0 0 512.000000 512.000000"
 preserveAspectRatio="xMidYMid meet">

<g transform="translate(0.000000,512.000000) scale(0.100000,-0.100000)"
fill="#000000" stroke="none">
<path d="M2315 5109 c-390 -36 -799 -171 -1119 -371 -316 -197 -617 -498 -814
-814 -424 -680 -500 -1580 -197 -2334 131 -327 311 -598 564 -850 595 -594
1436 -849 2291 -695 512 92 965 329 1336 699 369 370 607 825 699 1336 154
855 -101 1696 -695 2291 -199 200 -381 334 -625 460 -434 225 -944 324 -1440
278z m450 -399 c751 -70 1390 -503 1725 -1171 347 -690 297 -1543 -129 -2184
-311 -470 -803 -799 -1356 -909 -746 -148 -1488 76 -2000 605 -739 763 -809
1980 -164 2831 81 106 242 272 344 355 441 356 1008 526 1580 473z"/>
<path d="M3359 3743 l0 -218 -72 -34 c-100 -47 -210 -158 -261 -261 -66 -135
-82 -276 -46 -414 26 -104 72 -187 146 -266 108 -114 235 -173 412 -190 107
-10 149 -30 190 -93 22 -34 27 -52 27 -106 0 -79 -25 -128 -88 -169 l-40 -27
-334 -3 -333 -3 0 -200 0 -199 200 0 200 0 0 -200 0 -200 200 0 200 0 1 218 0
217 72 34 c100 47 210 158 261 261 66 135 82 276 46 414 -26 104 -72 187 -146
266 -109 115 -235 173 -413 190 -107 10 -153 33 -192 97 -36 57 -34 154 3 210
15 22 44 51 65 64 38 24 40 24 371 27 l332 3 0 200 0 199 -200 0 -200 0 0 200
0 200 -200 0 -200 0 -1 -217z"/>
<path d="M1466 2665 c-270 -673 -487 -1227 -484 -1230 6 -7 349 -145 359 -145
4 0 67 151 141 335 l133 335 345 0 345 0 133 -335 c74 -184 137 -335 141 -335
10 0 353 138 359 145 6 6 -970 2455 -978 2455 -3 0 -225 -551 -494 -1225z
m581 -63 c45 -114 85 -215 89 -224 6 -17 -7 -18 -176 -18 -169 0 -182 1 -176
18 36 96 172 432 176 432 3 0 42 -94 87 -208z"/>
</g>
</svg>
