<?xml version="1.0" standalone="no"?>
<!DOCTYPE svg PUBLIC "-//W3C//DTD SVG 20010904//EN"
 "http://www.w3.org/TR/2001/REC-SVG-20010904/DTD/svg10.dtd">
<svg version="1.0" xmlns="http://www.w3.org/2000/svg"
 width="512.000000pt" height="512.000000pt" viewBox="0 0 512.000000 512.000000"
 preserveAspectRatio="xMidYMid meet">

<g transform="translate(0.000000,512.000000) scale(0.100000,-0.100000)"
fill="#000000" stroke="none">
<path d="M3757 4465 c-22 -7 -50 -24 -64 -37 -50 -47 -58 -74 -63 -228 l-5
-145 -88 -7 c-111 -10 -249 -55 -342 -113 -83 -51 -241 -207 -296 -291 -45
-67 -91 -181 -110 -269 -18 -85 -15 -285 5 -369 39 -163 101 -268 240 -406
111 -111 201 -169 329 -212 89 -30 100 -32 322 -38 251 -8 290 -15 374 -70
147 -93 228 -263 201 -420 -29 -174 -167 -319 -334 -355 -53 -11 -172 -14
-535 -14 -466 -1 -466 -1 -511 -24 -30 -16 -54 -39 -74 -71 -26 -41 -30 -58
-30 -116 0 -58 4 -75 29 -116 20 -31 45 -56 74 -71 43 -22 52 -23 288 -23
l243 0 0 -118 c0 -150 15 -207 69 -255 70 -63 164 -74 252 -29 45 22 59 36 82
81 25 51 27 62 27 188 l0 133 46 0 c215 0 533 185 668 389 97 146 141 309 134
495 -9 226 -87 394 -268 576 -84 85 -121 114 -185 147 -140 72 -199 84 -460
93 -243 8 -273 13 -360 64 -66 40 -134 116 -173 195 -35 71 -37 81 -37 170 0
90 2 101 36 171 62 128 184 225 314 249 28 5 261 10 519 10 438 1 470 2 504
20 75 39 112 102 112 191 0 63 -16 107 -54 148 -48 54 -63 57 -331 62 l-250 5
-5 145 c-6 159 -14 186 -70 233 -54 46 -148 59 -223 32z"/>
<path d="M1397 4059 c-88 -21 -200 -107 -236 -182 -36 -74 -714 -2546 -714
-2602 0 -86 57 -167 142 -202 85 -36 219 33 259 133 6 16 48 160 92 319 45
160 88 314 96 343 l15 52 443 0 442 0 99 -352 c109 -393 120 -418 208 -468 62
-36 115 -39 180 -10 90 40 146 112 147 188 0 29 -708 2446 -746 2547 -66 175
-249 276 -427 234z m258 -1137 c87 -309 156 -565 153 -567 -3 -3 -147 -4 -320
-3 l-315 3 148 530 c82 292 154 547 160 569 6 21 12 36 13 35 2 -2 74 -257
161 -567z"/>
</g>
</svg>
