<?xml version="1.0" standalone="no"?>
<!DOCTYPE svg PUBLIC "-//W3C//DTD SVG 20010904//EN"
 "http://www.w3.org/TR/2001/REC-SVG-20010904/DTD/svg10.dtd">
<svg version="1.0" xmlns="http://www.w3.org/2000/svg"
 width="512.000000pt" height="512.000000pt" viewBox="0 0 512.000000 512.000000"
 preserveAspectRatio="xMidYMid meet">

<g transform="translate(0.000000,512.000000) scale(0.100000,-0.100000)"
fill="#000000" stroke="none">
<path d="M3700 4915 l0 -204 -42 -11 c-336 -86 -632 -321 -783 -620 -129 -256
-162 -559 -90 -835 83 -317 321 -607 620 -757 85 -43 195 -83 253 -93 l42 -7
0 -749 0 -749 -51 21 c-136 53 -282 183 -362 321 -54 95 -83 179 -99 291 l-11
77 -214 0 -213 0 0 -23 c0 -135 54 -346 125 -492 85 -171 204 -315 361 -433
92 -70 270 -157 377 -184 l87 -23 0 -222 0 -223 215 0 215 0 0 219 0 219 85
20 c469 115 815 499 886 982 18 125 6 341 -25 460 -113 431 -421 739 -853 854
l-88 23 -3 748 -2 747 27 -6 c16 -3 69 -27 120 -52 161 -80 291 -221 357 -387
28 -70 56 -195 56 -248 l0 -29 215 0 215 0 0 43 c0 23 -7 85 -15 137 -78 492
-438 870 -930 977 l-40 9 -3 202 -2 202 -215 0 -215 0 0 -205z m0 -1370 c0
-393 -2 -715 -4 -715 -2 0 -24 9 -50 21 -201 89 -359 260 -434 471 -34 96 -42
277 -18 382 43 184 176 375 330 474 52 33 147 81 164 82 9 0 12 -149 12 -715z
m555 -1259 c152 -71 274 -193 350 -351 155 -322 67 -704 -213 -923 -56 -44
-198 -118 -237 -124 -20 -3 -20 3 -23 721 l-2 723 27 -7 c15 -3 59 -21 98 -39z"/>
<path d="M1015 4685 c-180 -26 -366 -100 -510 -202 -266 -189 -443 -475 -491
-793 -21 -140 -21 -2120 0 -2260 30 -196 113 -389 236 -548 115 -150 251 -259
425 -343 504 -242 1109 -96 1449 351 133 174 218 397 234 613 l8 97 -217 0
-216 0 -6 -78 c-23 -294 -249 -557 -554 -644 -101 -29 -276 -31 -372 -4 -238
65 -427 231 -516 453 -55 138 -55 127 -55 1233 0 1106 0 1095 55 1233 89 222
278 388 516 453 96 27 271 25 372 -4 305 -87 531 -350 554 -644 l6 -78 216 0
217 0 -8 98 c-29 382 -250 728 -593 925 -226 130 -488 180 -750 142z"/>
</g>
</svg>
