<?xml version="1.0" encoding="UTF-8"?>
<!DOCTYPE svg PUBLIC "-//W3C//DTD SVG 1.1//EN" "http://www.w3.org/Graphics/SVG/1.1/DTD/svg11.dtd">
<svg xmlns="http://www.w3.org/2000/svg" version="1.1" width="200px" height="200px" style="shape-rendering:geometricPrecision; text-rendering:geometricPrecision; image-rendering:optimizeQuality; fill-rule:evenodd; clip-rule:evenodd" xmlns:xlink="http://www.w3.org/1999/xlink">
<g><path style="opacity:1" fill="#fbfcfb" d="M 82.5,31.5 C 83.8333,32.1667 83.8333,32.1667 82.5,31.5 Z"/></g>
<g><path style="opacity:1" fill="#f9f9f9" d="M 109.5,32.5 C 110.601,31.4017 111.934,31.235 113.5,32C 112.207,32.49 110.873,32.6567 109.5,32.5 Z"/></g>
<g><path style="opacity:1" fill="#f9f9f9" d="M 79.5,33.5 C 79.8966,32.475 80.5632,32.3083 81.5,33C 80.9056,33.4643 80.2389,33.631 79.5,33.5 Z"/></g>
<g><path style="opacity:1" fill="#fbfcfb" d="M 91.5,32.5 C 92.8333,33.1667 92.8333,33.1667 91.5,32.5 Z"/></g>
<g><path style="opacity:1" fill="#fafafa" d="M 87.5,34.5 C 86.1266,34.6567 84.7932,34.49 83.5,34C 85.0657,33.235 86.3991,33.4017 87.5,34.5 Z"/></g>
<g><path style="opacity:1" fill="#fbfbfb" d="M 95.5,34.5 C 97.9664,33.3659 100.633,33.1993 103.5,34C 100.854,34.4974 98.1873,34.6641 95.5,34.5 Z"/></g>
<g><path style="opacity:1" fill="#fafafa" d="M 104.5,34.5 C 106.628,33.3709 108.961,33.2042 111.5,34C 109.19,34.4966 106.857,34.6633 104.5,34.5 Z"/></g>
<g><path style="opacity:1" fill="#fafafa" d="M 112.5,34.5 C 113.251,33.4265 114.251,33.2599 115.5,34C 114.552,34.4828 113.552,34.6495 112.5,34.5 Z"/></g>
<g><path style="opacity:1" fill="#f9f9f9" d="M 95.5,34.5 C 95.5,34.8333 95.5,35.1667 95.5,35.5C 92.8333,35.1667 92.8333,34.8333 95.5,34.5 Z"/></g>
<g><path style="opacity:1" fill="#f6f6f6" d="M 117.5,35.5 C 117.897,34.475 118.563,34.3083 119.5,35C 118.906,35.4643 118.239,35.631 117.5,35.5 Z"/></g>
<g><path style="opacity:1" fill="#fafbfa" d="M 79.5,35.5 C 80.8333,36.1667 80.8333,36.1667 79.5,35.5 Z"/></g>
<g><path style="opacity:1" fill="#f6f6f6" d="M 87.5,34.5 C 89.153,34.6596 90.4863,35.3263 91.5,36.5C 90.391,36.5569 89.391,36.8902 88.5,37.5C 87.7375,36.7321 86.7375,36.2321 85.5,36C 86.4158,35.7216 87.0825,35.2216 87.5,34.5 Z"/></g>
<g><path style="opacity:1" fill="#e5e5e5" d="M 111.5,37.5 C 109.901,37.7678 108.568,37.4345 107.5,36.5C 109.128,35.1472 110.462,35.4805 111.5,37.5 Z"/></g>
<g><path style="opacity:1" fill="#f2f2f2" d="M 84.5,37.5 C 84.5,38.1667 84.1667,38.5 83.5,38.5C 83.0825,37.7784 82.4158,37.2784 81.5,37C 82.7494,36.2599 83.7494,36.4265 84.5,37.5 Z"/></g>
<g><path style="opacity:1" fill="#fbfcfb" d="M 80.5,38.5 C 79.8333,37.1667 79.8333,37.1667 80.5,38.5 Z"/></g>
<g><path style="opacity:1" fill="#101010" d="M 95.5,35.5 C 99.5341,35.5045 103.534,35.8379 107.5,36.5C 108.568,37.4345 109.901,37.7678 111.5,37.5C 112.167,37.5 112.833,37.5 113.5,37.5C 113.842,38.3382 114.508,38.6716 115.5,38.5C 116.5,38.5 117.5,38.5 118.5,38.5C 119.671,39.3446 121.005,40.0113 122.5,40.5C 123.514,41.6737 124.847,42.3404 126.5,42.5C 126.833,42.5 127.167,42.5 127.5,42.5C 128.29,43.4013 129.29,44.0679 130.5,44.5C 130.842,45.3382 131.508,45.6716 132.5,45.5C 132.833,45.5 133.167,45.5 133.5,45.5C 134.167,46.1667 134.833,46.8333 135.5,47.5C 135.833,48.5 136.5,49.1667 137.5,49.5C 137.833,49.5 138.167,49.5 138.5,49.5C 138.833,50.5 139.5,51.1667 140.5,51.5C 141.167,51.5 141.5,51.8333 141.5,52.5C 142.833,54.5 144.5,56.1667 146.5,57.5C 147.728,58.3065 148.728,59.3065 149.5,60.5C 150.512,61.8717 151.512,63.205 152.5,64.5C 152.5,64.8333 152.5,65.1667 152.5,65.5C 152.427,67.0269 153.094,68.0269 154.5,68.5C 154.833,68.5 155.167,68.5 155.5,68.5C 155.5,69.1667 155.5,69.8333 155.5,70.5C 155.328,71.4916 155.662,72.1583 156.5,72.5C 156.328,73.4916 156.662,74.1583 157.5,74.5C 157.5,75.1667 157.833,75.5 158.5,75.5C 158.5,76.1667 158.5,76.8333 158.5,77.5C 158.41,80.1522 159.076,82.4855 160.5,84.5C 160.263,85.791 160.596,86.791 161.5,87.5C 161.5,87.8333 161.5,88.1667 161.5,88.5C 161.5,94.1667 161.5,99.8333 161.5,105.5C 161.5,106.833 161.5,108.167 161.5,109.5C 161.5,110.167 161.5,110.833 161.5,111.5C 160.596,112.209 160.263,113.209 160.5,114.5C 160.5,115.833 160.5,117.167 160.5,118.5C 159.833,119.5 159.167,120.5 158.5,121.5C 157.662,121.842 157.328,122.508 157.5,123.5C 156.662,123.842 156.328,124.508 156.5,125.5C 156.5,126.167 156.833,126.5 157.5,126.5C 156.833,127.167 156.167,127.833 155.5,128.5C 154.833,128.5 154.5,128.833 154.5,129.5C 154.5,129.833 154.5,130.167 154.5,130.5C 153.5,130.833 152.833,131.5 152.5,132.5C 152.025,134.784 151.025,136.784 149.5,138.5C 149.167,138.5 148.833,138.5 148.5,138.5C 147.599,139.29 146.932,140.29 146.5,141.5C 146.5,141.833 146.5,142.167 146.5,142.5C 146.167,142.5 145.833,142.5 145.5,142.5C 144.167,143.167 143.167,144.167 142.5,145.5C 142.5,145.833 142.5,146.167 142.5,146.5C 141.662,146.842 141.328,147.508 141.5,148.5C 140.105,147.185 139.105,147.519 138.5,149.5C 137.833,149.5 137.5,149.833 137.5,150.5C 135.973,150.427 134.973,151.094 134.5,152.5C 133.833,152.5 133.5,152.833 133.5,153.5C 132.508,153.328 131.842,153.662 131.5,154.5C 131.5,155.167 131.833,155.5 132.5,155.5C 132.932,156.71 133.599,157.71 134.5,158.5C 134.5,159.167 134.5,159.833 134.5,160.5C 134.158,161.338 133.492,161.672 132.5,161.5C 132.167,161.5 131.833,161.5 131.5,161.5C 131.167,161.5 130.833,161.5 130.5,161.5C 130.158,160.662 129.492,160.328 128.5,160.5C 128.167,160.5 127.833,160.5 127.5,160.5C 126.791,159.596 125.791,159.263 124.5,159.5C 122.435,159.483 120.435,159.15 118.5,158.5C 117.791,157.596 116.791,157.263 115.5,157.5C 114.778,157.918 114.278,158.584 114,159.5C 113.536,158.906 113.369,158.239 113.5,157.5C 112.602,156.842 111.602,156.176 110.5,155.5C 111.127,154.583 111.461,153.583 111.5,152.5C 112.11,151.609 112.443,150.609 112.5,149.5C 112.833,149.5 113.167,149.5 113.5,149.5C 114.906,149.027 115.573,148.027 115.5,146.5C 115.5,146.167 115.5,145.833 115.5,145.5C 116.167,145.5 116.5,145.167 116.5,144.5C 118.822,143.198 120.155,141.198 120.5,138.5C 121.167,138.167 121.833,137.833 122.5,137.5C 123.338,137.842 123.672,138.508 123.5,139.5C 125.128,144.475 127.461,144.809 130.5,140.5C 131.167,139.833 131.833,139.167 132.5,138.5C 134.027,138.573 135.027,137.906 135.5,136.5C 136.5,136.167 137.167,135.5 137.5,134.5C 137.5,134.167 137.5,133.833 137.5,133.5C 138.5,133.167 139.167,132.5 139.5,131.5C 140.167,131.5 140.5,131.167 140.5,130.5C 142.326,128.853 143.66,126.853 144.5,124.5C 144.5,123.833 144.5,123.167 144.5,122.5C 144.833,122.5 145.167,122.5 145.5,122.5C 147.213,121.365 147.88,119.698 147.5,117.5C 148.537,116.07 149.204,114.403 149.5,112.5C 149.5,112.167 149.5,111.833 149.5,111.5C 150.404,110.791 150.737,109.791 150.5,108.5C 150.5,107.5 150.5,106.5 150.5,105.5C 151.833,100.5 151.833,95.5 150.5,90.5C 149.549,89.0813 149.216,87.4147 149.5,85.5C 149.672,84.5084 149.338,83.8417 148.5,83.5C 148.5,83.1667 148.5,82.8333 148.5,82.5C 148.5,81.8333 148.167,81.5 147.5,81.5C 147.672,80.5084 147.338,79.8417 146.5,79.5C 146.5,79.1667 146.5,78.8333 146.5,78.5C 146.737,77.209 146.404,76.209 145.5,75.5C 144.326,74.4863 143.66,73.153 143.5,71.5C 141.942,69.5673 141.442,67.5673 142,65.5C 141.329,66.2524 140.496,66.5858 139.5,66.5C 138.833,66.5 138.5,66.1667 138.5,65.5C 138.5,64.8333 138.167,64.5 137.5,64.5C 137.5,63.8333 137.167,63.5 136.5,63.5C 135.833,62.1667 134.833,61.1667 133.5,60.5C 133.167,60.5 132.833,60.5 132.5,60.5C 132.5,59.8333 132.167,59.5 131.5,59.5C 131.5,59.1667 131.5,58.8333 131.5,58.5C 130.205,57.5116 128.872,56.5116 127.5,55.5C 126.167,55.1667 124.833,54.8333 123.5,54.5C 123.5,54.1667 123.5,53.8333 123.5,53.5C 123.158,52.6618 122.492,52.3284 121.5,52.5C 120.486,51.3263 119.153,50.6596 117.5,50.5C 116.833,50.5 116.167,50.5 115.5,50.5C 115.158,49.6618 114.492,49.3284 113.5,49.5C 112.833,49.5 112.167,49.5 111.5,49.5C 111.158,48.6618 110.492,48.3284 109.5,48.5C 109.167,48.5 108.833,48.5 108.5,48.5C 106.393,47.5318 104.059,47.1984 101.5,47.5C 100.167,47.5 98.8333,47.5 97.5,47.5C 93.2095,47.1977 89.2095,47.8643 85.5,49.5C 84.791,50.404 83.791,50.7373 82.5,50.5C 80.4471,50.4021 78.7804,51.0687 77.5,52.5C 76.5084,52.3284 75.8417,52.6618 75.5,53.5C 75.5,53.8333 75.5,54.1667 75.5,54.5C 73.326,54.7497 71.6594,55.7497 70.5,57.5C 69.8333,57.5 69.5,57.8333 69.5,58.5C 68.5084,58.3284 67.8417,58.6618 67.5,59.5C 67.1667,59.5 66.8333,59.5 66.5,59.5C 65.8333,59.5 65.5,59.8333 65.5,60.5C 65.1667,60.5 64.8333,60.5 64.5,60.5C 64.5,59.8333 64.1667,59.5 63.5,59.5C 62.5,59.1667 61.8333,58.5 61.5,57.5C 60.5,55.5 59.5,53.5 58.5,51.5C 60.0269,51.573 61.0269,50.9063 61.5,49.5C 62.5794,47.457 64.246,46.1237 66.5,45.5C 67.4916,45.6716 68.1583,45.3382 68.5,44.5C 70.0269,44.573 71.0269,43.9063 71.5,42.5C 71.8333,42.5 72.1667,42.5 72.5,42.5C 73.4916,42.6716 74.1583,42.3382 74.5,41.5C 75.4916,41.6716 76.1583,41.3382 76.5,40.5C 77.9952,40.0113 79.3285,39.3446 80.5,38.5C 81.5,38.5 82.5,38.5 83.5,38.5C 84.1667,38.5 84.5,38.1667 84.5,37.5C 85.8333,37.5 87.1667,37.5 88.5,37.5C 89.391,36.8902 90.391,36.5569 91.5,36.5C 93.099,36.7678 94.4324,36.4345 95.5,35.5 Z M 85.5,49.5 C 86.2389,49.369 86.9056,49.5357 87.5,50C 86.7476,50.6708 86.4142,51.5041 86.5,52.5C 85.8333,52.5 85.1667,52.5 84.5,52.5C 84.1583,51.6618 83.4916,51.3284 82.5,51.5C 82.5,51.1667 82.5,50.8333 82.5,50.5C 83.791,50.7373 84.791,50.404 85.5,49.5 Z M 115.5,50.5 C 116.167,50.5 116.833,50.5 117.5,50.5C 117.833,51.1667 118.167,51.8333 118.5,52.5C 117.833,52.5 117.167,52.5 116.5,52.5C 116.167,51.8333 115.833,51.1667 115.5,50.5 Z M 80.5,52.5 C 80.5,53.1667 80.5,53.8333 80.5,54.5C 79.8333,54.5 79.1667,54.5 78.5,54.5C 78.5,54.1667 78.5,53.8333 78.5,53.5C 79.1667,53.1667 79.8333,52.8333 80.5,52.5 Z M 114.5,52.5 C 115.167,52.5 115.833,52.5 116.5,52.5C 116.5,53.1667 116.5,53.8333 116.5,54.5C 115.167,54.5 114.5,53.8333 114.5,52.5 Z M 118.5,52.5 C 119.167,52.8333 119.833,53.1667 120.5,53.5C 120.5,53.8333 120.5,54.1667 120.5,54.5C 119.833,54.5 119.167,54.5 118.5,54.5C 118.5,53.8333 118.5,53.1667 118.5,52.5 Z M 131.5,137.5 C 131.5,138.167 131.833,138.5 132.5,138.5C 131.833,139.167 131.167,139.833 130.5,140.5C 129.662,140.158 129.328,139.492 129.5,138.5C 130.167,138.167 130.833,137.833 131.5,137.5 Z"/></g>
<g><path style="opacity:1" fill="#e1e1e1" d="M 115.5,38.5 C 114.508,38.6716 113.842,38.3382 113.5,37.5C 114.738,36.5876 116.072,36.4209 117.5,37C 116.584,37.2784 115.918,37.7784 115.5,38.5 Z"/></g>
<g><path style="opacity:1" fill="#f4f5f4" d="M 118.5,37.5 C 119.833,38.1667 119.833,38.1667 118.5,37.5 Z"/></g>
<g><path style="opacity:1" fill="#fafafa" d="M 65.5,40.5 C 65.8966,39.475 66.5632,39.3083 67.5,40C 66.9056,40.4643 66.2389,40.631 65.5,40.5 Z"/></g>
<g><path style="opacity:1" fill="#e2e2e2" d="M 76.5,40.5 C 76.1583,41.3382 75.4916,41.6716 74.5,41.5C 74.4088,39.3023 75.0755,38.9689 76.5,40.5 Z"/></g>
<g><path style="opacity:1" fill="#f7f8f7" d="M 134.5,39.5 C 135.833,40.1667 135.833,40.1667 134.5,39.5 Z"/></g>
<g><path style="opacity:1" fill="#d5d5d5" d="M 71.5,41.5 C 72.3478,40.375 73.3478,40.375 74.5,41.5C 74.1583,42.3382 73.4916,42.6716 72.5,42.5C 72.5,41.8333 72.1667,41.5 71.5,41.5 Z"/></g>
<g><path style="opacity:1" fill="#dddddd" d="M 126.5,42.5 C 124.847,42.3404 123.514,41.6737 122.5,40.5C 124.472,39.4833 125.805,40.15 126.5,42.5 Z"/></g>
<g><path style="opacity:1" fill="#fafbfa" d="M 63.5,41.5 C 64.8333,42.1667 64.8333,42.1667 63.5,41.5 Z"/></g>
<g><path style="opacity:1" fill="#eeeeee" d="M 131.5,43.5 C 130.833,43.5 130.5,43.8333 130.5,44.5C 129.29,44.0679 128.29,43.4013 127.5,42.5C 129.001,41.5573 130.335,41.8906 131.5,43.5 Z"/></g>
<g><path style="opacity:1" fill="#e5e5e5" d="M 71.5,41.5 C 71.5,41.8333 71.5,42.1667 71.5,42.5C 71.0269,43.9063 70.0269,44.573 68.5,44.5C 68.1583,45.3382 67.4916,45.6716 66.5,45.5C 65.9524,44.3115 65.6191,43.1448 65.5,42C 67.5395,42.6145 69.5395,42.4478 71.5,41.5 Z"/></g>
<g><path style="opacity:1" fill="#f5f6f5" d="M 134.5,43.5 C 135.833,44.1667 135.833,44.1667 134.5,43.5 Z"/></g>
<g><path style="opacity:1" fill="#dadada" d="M 131.5,43.5 C 132.492,43.3284 133.158,43.6618 133.5,44.5C 132.833,44.5 132.5,44.8333 132.5,45.5C 131.508,45.6716 130.842,45.3382 130.5,44.5C 131.167,44.5 131.5,44.1667 131.5,43.5 Z"/></g>
<g><path style="opacity:1" fill="#eeefee" d="M 133.5,44.5 C 133.833,44.5 134.167,44.5 134.5,44.5C 134.315,45.1701 133.981,45.1701 133.5,44.5 Z"/></g>
<g><path style="opacity:1" fill="#f2f3f2" d="M 57.5,48.5 C 56.8333,47.1667 56.8333,47.1667 57.5,48.5 Z"/></g>
<g><path style="opacity:1" fill="#d5d5d5" d="M 101.5,47.5 C 104.059,47.1984 106.393,47.5318 108.5,48.5C 106.585,48.2155 104.919,48.5489 103.5,49.5C 102.5,49.1667 101.833,48.5 101.5,47.5 Z"/></g>
<g><path style="opacity:1" fill="#cccccc" d="M 135.5,47.5 C 136.833,47.5 137.5,48.1667 137.5,49.5C 136.5,49.1667 135.833,48.5 135.5,47.5 Z"/></g>
<g><path style="opacity:1" fill="#f6f6f6" d="M 57.5,48.5 C 58.4916,48.3284 59.1583,48.6618 59.5,49.5C 58.8333,49.5 58.5,49.8333 58.5,50.5C 57.6618,50.1583 57.3284,49.4916 57.5,48.5 Z"/></g>
<g><path style="opacity:1" fill="#d7d7d7" d="M 97.5,47.5 C 97.1667,48.5 96.5,49.1667 95.5,49.5C 93.2279,48.2355 90.8945,48.4022 88.5,50C 89.1667,50.3333 89.8333,50.6667 90.5,51C 89.2625,51.2321 88.2625,51.7321 87.5,52.5C 87.1667,52.5 86.8333,52.5 86.5,52.5C 86.4142,51.5041 86.7476,50.6708 87.5,50C 86.9056,49.5357 86.2389,49.369 85.5,49.5C 89.2095,47.8643 93.2095,47.1977 97.5,47.5 Z"/></g>
<g><path style="opacity:1" fill="#fafafa" d="M 144.5,47.5 C 146.106,48.3591 147.773,48.5258 149.5,48C 147.62,51.0759 145.954,50.9093 144.5,47.5 Z"/></g>
<g><path style="opacity:1" fill="#f4f5f4" d="M 55.5,49.5 C 56.8333,50.1667 56.8333,50.1667 55.5,49.5 Z"/></g>
<g><path style="opacity:1" fill="#f7f7f7" d="M 95.5,49.5 C 94.3991,50.5983 93.0657,50.765 91.5,50C 92.7932,49.51 94.1266,49.3433 95.5,49.5 Z"/></g>
<g><path style="opacity:1" fill="#f7f7f7" d="M 103.5,49.5 C 104.873,49.3433 106.207,49.51 107.5,50C 105.934,50.765 104.601,50.5983 103.5,49.5 Z"/></g>
<g><path style="opacity:1" fill="#f6f6f6" d="M 109.5,48.5 C 110.492,48.3284 111.158,48.6618 111.5,49.5C 112.167,50.8333 112.833,50.8333 113.5,49.5C 114.492,49.3284 115.158,49.6618 115.5,50.5C 115.833,51.1667 116.167,51.8333 116.5,52.5C 115.833,52.5 115.167,52.5 114.5,52.5C 113.833,51.1667 113.167,51.1667 112.5,52.5C 112.167,52.5 111.833,52.5 111.5,52.5C 110.737,51.7321 109.737,51.2321 108.5,51C 110.619,50.6582 110.953,49.8249 109.5,48.5 Z"/></g>
<g><path style="opacity:1" fill="#eeeeee" d="M 140.5,51.5 C 139.5,51.1667 138.833,50.5 138.5,49.5C 138.435,49.0618 138.601,48.7284 139,48.5C 141.158,49.0502 141.658,50.0502 140.5,51.5 Z"/></g>
<g><path style="opacity:1" fill="#f6f6f6" d="M 150.5,50.5 C 150.369,49.7611 150.536,49.0944 151,48.5C 151.692,49.4368 151.525,50.1034 150.5,50.5 Z"/></g>
<g><path style="opacity:1" fill="#777777" d="M 59.5,49.5 C 60.1667,49.5 60.8333,49.5 61.5,49.5C 61.0269,50.9063 60.0269,51.573 58.5,51.5C 58.5,51.1667 58.5,50.8333 58.5,50.5C 59.1667,50.5 59.5,50.1667 59.5,49.5 Z"/></g>
<g><path style="opacity:1" fill="#f2f2f2" d="M 55.5,51.5 C 56.525,51.8966 56.6917,52.5632 56,53.5C 55.5357,52.9056 55.369,52.2389 55.5,51.5 Z"/></g>
<g><path style="opacity:1" fill="#c4c4c4" d="M 82.5,50.5 C 82.5,50.8333 82.5,51.1667 82.5,51.5C 81.5084,51.3284 80.8417,51.6618 80.5,52.5C 79.8333,52.8333 79.1667,53.1667 78.5,53.5C 78.5,52.8333 78.1667,52.5 77.5,52.5C 78.7804,51.0687 80.4471,50.4021 82.5,50.5 Z"/></g>
<g><path style="opacity:1" fill="#fbfcfb" d="M 94.5,51.5 C 95.8333,52.1667 95.8333,52.1667 94.5,51.5 Z"/></g>
<g><path style="opacity:1" fill="#fafbfa" d="M 103.5,51.5 C 104.833,52.1667 104.833,52.1667 103.5,51.5 Z"/></g>
<g><path style="opacity:1" fill="#c0c0c0" d="M 117.5,50.5 C 119.153,50.6596 120.486,51.3263 121.5,52.5C 120.833,52.5 120.5,52.8333 120.5,53.5C 119.833,53.1667 119.167,52.8333 118.5,52.5C 118.167,51.8333 117.833,51.1667 117.5,50.5 Z"/></g>
<g><path style="opacity:1" fill="#f8f8f8" d="M 146.5,55.5 C 145.972,54.1526 145.805,52.8193 146,51.5C 147.63,52.8179 147.797,54.1512 146.5,55.5 Z"/></g>
<g><path style="opacity:1" fill="#f8f8f8" d="M 150.5,50.5 C 150.66,52.1992 150.494,53.8659 150,55.5C 148.392,53.3045 148.559,51.6378 150.5,50.5 Z"/></g>
<g><path style="opacity:1" fill="#b0b0b0" d="M 58.5,51.5 C 59.5,53.5 60.5,55.5 61.5,57.5C 58.4306,56.1956 57.4306,54.1956 58.5,51.5 Z"/></g>
<g><path style="opacity:1" fill="#f8f8f8" d="M 82.5,51.5 C 83.4916,51.3284 84.1583,51.6618 84.5,52.5C 83.3951,53.6005 82.0618,54.2671 80.5,54.5C 80.5,53.8333 80.5,53.1667 80.5,52.5C 81.4916,52.6716 82.1583,52.3382 82.5,51.5 Z"/></g>
<g><path style="opacity:1" fill="#fafafa" d="M 84.5,52.5 C 85.1667,52.5 85.8333,52.5 86.5,52.5C 86.2144,54.9327 85.5477,54.9327 84.5,52.5 Z"/></g>
<g><path style="opacity:1" fill="#fafbfa" d="M 87.5,52.5 C 88.552,52.3505 89.552,52.5172 90.5,53C 89.2506,53.7401 88.2506,53.5735 87.5,52.5 Z"/></g>
<g><path style="opacity:1" fill="#fbfcfb" d="M 111.5,52.5 C 110.749,53.5735 109.749,53.7401 108.5,53C 109.448,52.5172 110.448,52.3505 111.5,52.5 Z"/></g>
<g><path style="opacity:1" fill="#fafafa" d="M 112.5,52.5 C 113.167,52.5 113.833,52.5 114.5,52.5C 114.5,53.8333 115.167,54.5 116.5,54.5C 114.291,55.9758 112.958,55.3091 112.5,52.5 Z"/></g>
<g><path style="opacity:1" fill="#dfdfdf" d="M 75.5,53.5 C 75.8417,52.6618 76.5084,52.3284 77.5,52.5C 78.1667,52.5 78.5,52.8333 78.5,53.5C 78.5,53.8333 78.5,54.1667 78.5,54.5C 77.8333,54.5 77.1667,54.5 76.5,54.5C 76.5,53.8333 76.1667,53.5 75.5,53.5 Z"/></g>
<g><path style="opacity:1" fill="#fbfcfb" d="M 105.5,54.5 C 104.761,54.631 104.094,54.4643 103.5,54C 104.437,53.3083 105.103,53.475 105.5,54.5 Z"/></g>
<g><path style="opacity:1" fill="#f9f9f9" d="M 116.5,52.5 C 117.167,52.5 117.833,52.5 118.5,52.5C 118.5,53.1667 118.5,53.8333 118.5,54.5C 117.833,54.5 117.167,54.5 116.5,54.5C 116.5,53.8333 116.5,53.1667 116.5,52.5 Z"/></g>
<g><path style="opacity:1" fill="#dadada" d="M 121.5,52.5 C 122.492,52.3284 123.158,52.6618 123.5,53.5C 122.833,53.5 122.5,53.8333 122.5,54.5C 121.833,54.5 121.167,54.5 120.5,54.5C 120.5,54.1667 120.5,53.8333 120.5,53.5C 121.167,53.5 121.5,53.1667 121.5,52.5 Z"/></g>
<g><path style="opacity:1" fill="#cecece" d="M 146.5,55.5 C 146.5,56.1667 146.5,56.8333 146.5,57.5C 144.5,56.1667 142.833,54.5 141.5,52.5C 142.458,52.0472 143.292,51.3805 144,50.5C 143.076,52.8089 143.909,54.4755 146.5,55.5 Z"/></g>
<g><path style="opacity:1" fill="#f0f1f0" d="M 75.5,54.5 C 75.8333,54.5 76.1667,54.5 76.5,54.5C 76.3147,55.1701 75.9813,55.1701 75.5,54.5 Z"/></g>
<g><path style="opacity:1" fill="#fbfcfb" d="M 100.5,55.5 C 99.7611,55.631 99.0944,55.4643 98.5,55C 99.4368,54.3083 100.103,54.475 100.5,55.5 Z"/></g>
<g><path style="opacity:1" fill="#fbfcfb" d="M 105.5,54.5 C 106.239,54.369 106.906,54.5357 107.5,55C 106.563,55.6917 105.897,55.525 105.5,54.5 Z"/></g>
<g><path style="opacity:1" fill="#eff0ef" d="M 122.5,54.5 C 122.833,54.5 123.167,54.5 123.5,54.5C 123.315,55.1701 122.981,55.1701 122.5,54.5 Z"/></g>
<g><path style="opacity:1" fill="#f5f5f5" d="M 93.5,57.5 C 92.475,57.1034 92.3083,56.4368 93,55.5C 93.4643,56.0944 93.631,56.7611 93.5,57.5 Z"/></g>
<g><path style="opacity:1" fill="#f9faf9" d="M 100.5,55.5 C 101.833,56.1667 101.833,56.1667 100.5,55.5 Z"/></g>
<g><path style="opacity:1" fill="#fbfbfb" d="M 47.5,57.5 C 47.8966,56.475 48.5632,56.3083 49.5,57C 48.9056,57.4643 48.2389,57.631 47.5,57.5 Z"/></g>
<g><path style="opacity:1" fill="#f7f7f7" d="M 102.5,56.5 C 103.525,56.8966 103.692,57.5632 103,58.5C 102.536,57.9056 102.369,57.2389 102.5,56.5 Z"/></g>
<g><path style="opacity:1" fill="#f6f6f6" d="M 70.5,57.5 C 71.0141,58.6246 71.3474,59.7913 71.5,61C 69.9387,61.1881 69.272,60.3547 69.5,58.5C 70.1667,58.5 70.5,58.1667 70.5,57.5 Z"/></g>
<g><path style="opacity:1" fill="#e9e9e9" d="M 127.5,55.5 C 128.872,56.5116 130.205,57.5116 131.5,58.5C 130.833,58.5 130.5,58.8333 130.5,59.5C 129.833,59.8333 129.167,60.1667 128.5,60.5C 128.371,58.7839 128.038,57.1172 127.5,55.5 Z"/></g>
<g><path style="opacity:1" fill="#f7f7f7" d="M 149.5,60.5 C 149.987,59.5266 150.487,58.5266 151,57.5C 151.725,59.1575 151.225,60.1575 149.5,60.5 Z"/></g>
<g><path style="opacity:1" fill="#fbfcfb" d="M 47.5,60.5 C 48.2506,59.4265 49.2506,59.2599 50.5,60C 49.552,60.4828 48.552,60.6495 47.5,60.5 Z"/></g>
<g><path style="opacity:1" fill="#eff0ef" d="M 67.5,59.5 C 68.8333,60.1667 68.8333,60.1667 67.5,59.5 Z"/></g>
<g><path style="opacity:1" fill="#fafafa" d="M 93.5,59.5 C 93.6463,61.9424 92.813,62.6091 91,61.5C 90.3333,59.8333 90.3333,58.1667 91,56.5C 91.2355,58.1193 92.0689,59.1193 93.5,59.5 Z"/></g>
<g><path style="opacity:1" fill="#eeeeee" d="M 63.5,59.5 C 64.1667,59.5 64.5,59.8333 64.5,60.5C 64.5,60.8333 64.5,61.1667 64.5,61.5C 63.8333,61.5 63.1667,61.5 62.5,61.5C 62.8333,60.8333 63.1667,60.1667 63.5,59.5 Z"/></g>
<g><path style="opacity:1" fill="#e1e1e1" d="M 66.5,59.5 C 66.5,60.1667 66.8333,60.5 67.5,60.5C 67.5,60.8333 67.5,61.1667 67.5,61.5C 66.8333,61.5 66.1667,61.5 65.5,61.5C 65.5,61.1667 65.5,60.8333 65.5,60.5C 65.5,59.8333 65.8333,59.5 66.5,59.5 Z"/></g>
<g><path style="opacity:1" fill="#f1f2f1" d="M 128.5,60.5 C 127.833,61.1667 127.833,61.1667 128.5,60.5 Z"/></g>
<g><path style="opacity:1" fill="#f8f8f8" d="M 130.5,59.5 C 130.833,59.5 131.167,59.5 131.5,59.5C 132.167,59.5 132.5,59.8333 132.5,60.5C 132.5,61.1667 132.5,61.8333 132.5,62.5C 131.833,62.5 131.167,62.5 130.5,62.5C 130.5,61.5 130.5,60.5 130.5,59.5 Z"/></g>
<g><path style="opacity:1" fill="#fafafa" d="M 53.5,62.5 C 53.8966,61.475 54.5632,61.3083 55.5,62C 54.9056,62.4643 54.2389,62.631 53.5,62.5 Z"/></g>
<g><path style="opacity:1" fill="#ebeceb" d="M 62.5,61.5 C 61.8333,62.1667 61.8333,62.1667 62.5,61.5 Z"/></g>
<g><path style="opacity:1" fill="#e8e9e8" d="M 64.5,61.5 C 64.8333,61.5 65.1667,61.5 65.5,61.5C 65.5,61.8333 65.5,62.1667 65.5,62.5C 65.1667,62.1667 64.8333,61.8333 64.5,61.5 Z"/></g>
<g><path style="opacity:1" fill="#edeeed" d="M 67.5,61.5 C 68.1667,61.5 68.5,61.8333 68.5,62.5C 68.1667,62.1667 67.8333,61.8333 67.5,61.5 Z"/></g>
<g><path style="opacity:1" fill="#f5f5f5" d="M 88.5,61.5 C 89.525,61.8966 89.6917,62.5632 89,63.5C 88.5357,62.9056 88.369,62.2389 88.5,61.5 Z"/></g>
<g><path style="opacity:1" fill="#c8c8c8" d="M 100.5,56.5 C 100.5,56.8333 100.5,57.1667 100.5,57.5C 100.167,57.5 99.8333,57.5 99.5,57.5C 98.1667,57.5 96.8333,57.5 95.5,57.5C 96.147,70.5441 95.4803,83.2108 93.5,95.5C 92.352,94.8359 91.0187,94.6692 89.5,95C 91.6937,93.4472 92.8604,91.2805 93,88.5C 93.3333,89.5 93.6667,90.5 94,91.5C 94.8255,80.6586 94.6588,69.992 93.5,59.5C 93.5,58.8333 93.5,58.1667 93.5,57.5C 94.7206,56.9717 95.8873,56.305 97,55.5C 98.0113,56.3366 99.1779,56.67 100.5,56.5 Z"/></g>
<g><path style="opacity:1" fill="#efefef" d="M 133.5,60.5 C 134.833,61.1667 135.833,62.1667 136.5,63.5C 137.167,63.5 137.5,63.8333 137.5,64.5C 138.167,64.5 138.5,64.8333 138.5,65.5C 136.336,65.2785 134.67,64.2785 133.5,62.5C 133.5,61.8333 133.5,61.1667 133.5,60.5 Z"/></g>
<g><path style="opacity:1" fill="#e4e4e4" d="M 51.5,63.5 C 50.8333,63.5 50.5,63.8333 50.5,64.5C 49.609,63.8902 48.609,63.5569 47.5,63.5C 47.3691,62.6236 47.7025,61.9569 48.5,61.5C 49.7387,61.9424 50.7387,62.6091 51.5,63.5 Z"/></g>
<g><path style="opacity:1" fill="#f8f9f8" d="M 58.5,63.5 C 57.8333,62.1667 57.8333,62.1667 58.5,63.5 Z"/></g>
<g><path style="opacity:1" fill="#f9faf9" d="M 61.5,62.5 C 61.5,62.8333 61.5,63.1667 61.5,63.5C 60.8299,63.0187 60.8299,62.6853 61.5,62.5 Z"/></g>
<g><path style="opacity:1" fill="#ebeceb" d="M 65.5,62.5 C 66.8333,63.1667 66.8333,63.1667 65.5,62.5 Z"/></g>
<g><path style="opacity:1" fill="#f5f6f5" d="M 68.5,62.5 C 69.8333,63.1667 69.8333,63.1667 68.5,62.5 Z"/></g>
<g><path style="opacity:1" fill="#fbfcfb" d="M 70.5,62.5 C 71.8333,63.1667 71.8333,63.1667 70.5,62.5 Z"/></g>
<g><path style="opacity:1" fill="#f8f8f8" d="M 130.5,62.5 C 129.749,63.5735 128.749,63.7401 127.5,63C 128.448,62.5172 129.448,62.3505 130.5,62.5 Z"/></g>
<g><path style="opacity:1" fill="#fafbfa" d="M 132.5,62.5 C 132.833,62.5 133.167,62.5 133.5,62.5C 133.315,63.1701 132.981,63.1701 132.5,62.5 Z"/></g>
<g><path style="opacity:1" fill="#fafafa" d="M 45.5,65.5 C 44.475,65.1034 44.3083,64.4368 45,63.5C 45.4643,64.0944 45.631,64.7611 45.5,65.5 Z"/></g>
<g><path style="opacity:1" fill="#f4f4f4" d="M 51.5,63.5 C 53.6977,63.4088 54.0311,64.0755 52.5,65.5C 51.8333,65.5 51.5,65.1667 51.5,64.5C 51.5,64.1667 51.5,63.8333 51.5,63.5 Z"/></g>
<g><path style="opacity:1" fill="#f8f9f8" d="M 55.5,63.5 C 56.8333,64.1667 56.8333,64.1667 55.5,63.5 Z"/></g>
<g><path style="opacity:1" fill="#f5f6f5" d="M 58.5,63.5 C 59.8333,64.1667 59.8333,64.1667 58.5,63.5 Z"/></g>
<g><path style="opacity:1" fill="#f6f7f6" d="M 92.5,63.5 C 93.6561,71.3225 93.8228,79.3225 93,87.5C 92.5003,79.5069 92.3336,71.5069 92.5,63.5 Z"/></g>
<g><path style="opacity:1" fill="#9c9c9c" d="M 99.5,57.5 C 99.8333,57.5 100.167,57.5 100.5,57.5C 101.506,57.9377 101.506,58.6043 100.5,59.5C 100.5,59.8333 100.5,60.1667 100.5,60.5C 100.173,70.015 100.506,79.3483 101.5,88.5C 99.871,90.1959 100.204,91.1959 102.5,91.5C 103.833,92.8333 103.833,94.1667 102.5,95.5C 101.504,95.5858 100.671,95.2524 100,94.5C 99.5001,82.1712 99.3335,69.8378 99.5,57.5 Z"/></g>
<g><path style="opacity:1" fill="#f7f7f7" d="M 100.5,60.5 C 100.5,60.1667 100.5,59.8333 100.5,59.5C 102.026,60.1047 103.026,61.2714 103.5,63C 102.167,71.3333 102.167,79.6667 103.5,88C 102.906,88.4643 102.239,88.631 101.5,88.5C 101.827,78.985 101.494,69.6517 100.5,60.5 Z"/></g>
<g><path style="opacity:1" fill="#f5f5f5" d="M 152.5,64.5 C 152.56,63.9569 152.893,63.6236 153.5,63.5C 154.773,64.2565 154.773,64.9232 153.5,65.5C 153.5,64.8333 153.167,64.5 152.5,64.5 Z"/></g>
<g><path style="opacity:1" fill="#f1f2f1" d="M 155.5,63.5 C 156.833,64.1667 156.833,64.1667 155.5,63.5 Z"/></g>
<g><path style="opacity:1" fill="#fbfcfb" d="M 158.5,63.5 C 159.833,64.1667 159.833,64.1667 158.5,63.5 Z"/></g>
<g><path style="opacity:1" fill="#fbfcfb" d="M 39.5,64.5 C 40.8333,65.1667 40.8333,65.1667 39.5,64.5 Z"/></g>
<g><path style="opacity:1" fill="#fafafa" d="M 41.5,63.5 C 44.0009,63.5109 44.1676,64.1776 42,65.5C 41.5357,64.9056 41.369,64.2389 41.5,63.5 Z"/></g>
<g><path style="opacity:1" fill="#161616" d="M 47.5,63.5 C 48.609,63.5569 49.609,63.8902 50.5,64.5C 50.8333,64.5 51.1667,64.5 51.5,64.5C 51.5,65.1667 51.8333,65.5 52.5,65.5C 53.397,66.5981 54.2303,66.5981 55,65.5C 55.4643,66.0944 55.631,66.7611 55.5,67.5C 55.9234,68.2646 56.2568,69.0979 56.5,70C 55.5862,71.4064 54.9195,72.9064 54.5,74.5C 54.5,74.8333 54.5,75.1667 54.5,75.5C 53.596,76.209 53.2627,77.209 53.5,78.5C 53.1667,78.5 52.8333,78.5 52.5,78.5C 51.0687,79.7804 50.4021,81.4471 50.5,83.5C 49.596,84.209 49.2627,85.209 49.5,86.5C 49.5,87.1667 49.8333,87.5 50.5,87.5C 50.5,87.8333 50.5,88.1667 50.5,88.5C 49.8333,88.5 49.1667,88.5 48.5,88.5C 46.9582,87.6993 45.2915,87.366 43.5,87.5C 42.209,87.7373 41.209,87.404 40.5,86.5C 39.6586,84.6208 39.3253,82.6208 39.5,80.5C 39.5,80.1667 39.5,79.8333 39.5,79.5C 41.1042,78.713 41.7709,77.3797 41.5,75.5C 41.5,75.1667 41.5,74.8333 41.5,74.5C 42.3382,74.1583 42.6716,73.4916 42.5,72.5C 43.1098,71.609 43.4431,70.609 43.5,69.5C 44.6737,68.4863 45.3404,67.153 45.5,65.5C 46.5,65.1667 47.1667,64.5 47.5,63.5 Z"/></g>
<g><path style="opacity:1" fill="#f9f9f9" d="M 61.5,63.5 C 62.7759,64.3864 62.7759,65.3864 61.5,66.5C 60.4376,65.5754 60.4376,64.5754 61.5,63.5 Z"/></g>
<g><path style="opacity:1" fill="#f8f8f8" d="M 57.5,67.5 C 56.537,66.6365 56.537,65.9698 57.5,65.5C 58.7733,66.2565 58.7733,66.9232 57.5,67.5 Z"/></g>
<g><path style="opacity:1" fill="#5a5a5a" d="M 143.5,71.5 C 141.726,70.6304 140.393,69.297 139.5,67.5C 139.5,67.1667 139.5,66.8333 139.5,66.5C 140.496,66.5858 141.329,66.2524 142,65.5C 141.442,67.5673 141.942,69.5673 143.5,71.5 Z"/></g>
<g><path style="opacity:1" fill="#f9f9f9" d="M 158.5,64.5 C 158.631,65.2389 158.464,65.9056 158,66.5C 157.308,65.5632 157.475,64.8966 158.5,64.5 Z"/></g>
<g><path style="opacity:1" fill="#fafbfa" d="M 41.5,67.5 C 40.8333,66.1667 40.8333,66.1667 41.5,67.5 Z"/></g>
<g><path style="opacity:1" fill="#fbfbfb" d="M 41.5,67.5 C 42.8333,67.5 43.5,68.1667 43.5,69.5C 43.5,68.1667 42.8333,67.5 41.5,67.5 Z"/></g>
<g><path style="opacity:1" fill="#fafafa" d="M 59.5,68.5 C 60.0768,67.2267 60.7435,67.2267 61.5,68.5C 61.0302,69.463 60.3635,69.463 59.5,68.5 Z"/></g>
<g><path style="opacity:1" fill="#fbfbfb" d="M 62.5,67.5 C 63.525,67.8966 63.6917,68.5632 63,69.5C 62.5357,68.9056 62.369,68.2389 62.5,67.5 Z"/></g>
<g><path style="opacity:1" fill="#f0f1f0" d="M 139.5,67.5 C 138.833,68.1667 138.833,68.1667 139.5,67.5 Z"/></g>
<g><path style="opacity:1" fill="#a8a8a8" d="M 152.5,65.5 C 152.833,65.5 153.167,65.5 153.5,65.5C 154.11,66.391 154.443,67.391 154.5,68.5C 153.094,68.0269 152.427,67.0269 152.5,65.5 Z"/></g>
<g><path style="opacity:1" fill="#f8f8f8" d="M 155.5,68.5 C 155.747,66.0248 156.413,66.0248 157.5,68.5C 157.03,69.463 156.363,69.463 155.5,68.5 Z"/></g>
<g><path style="opacity:1" fill="#fafbfa" d="M 158.5,67.5 C 159.833,68.1667 159.833,68.1667 158.5,67.5 Z"/></g>
<g><path style="opacity:1" fill="#f7f8f7" d="M 39.5,68.5 C 40.8333,69.1667 40.8333,69.1667 39.5,68.5 Z"/></g>
<g><path style="opacity:1" fill="#f3f3f3" d="M 138.5,68.5 C 138.5,69.1667 138.5,69.8333 138.5,70.5C 137.833,70.5 137.167,70.5 136.5,70.5C 136.833,69.5 137.5,68.8333 138.5,68.5 Z"/></g>
<g><path style="opacity:1" fill="#f1f2f1" d="M 40.5,70.5 C 41.8333,71.1667 41.8333,71.1667 40.5,70.5 Z"/></g>
<g><path style="opacity:1" fill="#fbfcfb" d="M 58.5,70.5 C 59.8333,71.1667 59.8333,71.1667 58.5,70.5 Z"/></g>
<g><path style="opacity:1" fill="#f7f8f7" d="M 60.5,70.5 C 61.8333,71.1667 61.8333,71.1667 60.5,70.5 Z"/></g>
<g><path style="opacity:1" fill="#f5f6f5" d="M 136.5,70.5 C 135.833,71.1667 135.833,71.1667 136.5,70.5 Z"/></g>
<g><path style="opacity:1" fill="#fafbfa" d="M 138.5,70.5 C 139.833,71.1667 139.833,71.1667 138.5,70.5 Z"/></g>
<g><path style="opacity:1" fill="#dadada" d="M 155.5,70.5 C 157.698,70.4088 158.031,71.0755 156.5,72.5C 155.662,72.1583 155.328,71.4916 155.5,70.5 Z"/></g>
<g><path style="opacity:1" fill="#f9faf9" d="M 40.5,71.5 C 40.5,71.8333 40.5,72.1667 40.5,72.5C 39.8299,72.0187 39.8299,71.6853 40.5,71.5 Z"/></g>
<g><path style="opacity:1" fill="#e4e4e4" d="M 55.5,67.5 C 56.1667,67.5 56.8333,67.5 57.5,67.5C 58.1098,68.391 58.4431,69.391 58.5,70.5C 57.1667,70.8333 57.1667,71.1667 58.5,71.5C 58.3059,73.9118 56.9726,74.9118 54.5,74.5C 54.9195,72.9064 55.5862,71.4064 56.5,70C 56.2568,69.0979 55.9234,68.2646 55.5,67.5 Z"/></g>
<g><path style="opacity:1" fill="#fbfcfb" d="M 62.5,71.5 C 63.8333,72.1667 63.8333,72.1667 62.5,71.5 Z"/></g>
<g><path style="opacity:1" fill="#fbfcfb" d="M 158.5,71.5 C 159.833,72.1667 159.833,72.1667 158.5,71.5 Z"/></g>
<g><path style="opacity:1" fill="#ececec" d="M 40.5,72.5 C 41.1667,72.5 41.8333,72.5 42.5,72.5C 42.6716,73.4916 42.3382,74.1583 41.5,74.5C 41.1667,74.5 40.8333,74.5 40.5,74.5C 40.5,73.8333 40.5,73.1667 40.5,72.5 Z"/></g>
<g><path style="opacity:1" fill="#dfdfdf" d="M 156.5,72.5 C 157.167,72.5 157.833,72.5 158.5,72.5C 158.167,73.1667 157.833,73.8333 157.5,74.5C 156.662,74.1583 156.328,73.4916 156.5,72.5 Z"/></g>
<g><path style="opacity:1" fill="#f7f8f7" d="M 158.5,74.5 C 159.833,75.1667 159.833,75.1667 158.5,74.5 Z"/></g>
<g><path style="opacity:1" fill="#f8f8f8" d="M 54.5,75.5 C 55.404,76.209 55.7373,77.209 55.5,78.5C 55.1667,78.5 54.8333,78.5 54.5,78.5C 54.5,77.5 54.5,76.5 54.5,75.5 Z"/></g>
<g><path style="opacity:1" fill="#969696" d="M 40.5,74.5 C 40.5,75.1667 40.8333,75.5 41.5,75.5C 41.7709,77.3797 41.1042,78.713 39.5,79.5C 40.1746,77.7168 40.5079,76.0502 40.5,74.5 Z"/></g>
<g><path style="opacity:1" fill="#dfdfdf" d="M 145.5,75.5 C 146.404,76.209 146.737,77.209 146.5,78.5C 145.761,78.631 145.094,78.4643 144.5,78C 145.252,77.3292 145.586,76.4959 145.5,75.5 Z"/></g>
<g><path style="opacity:1" fill="#f7f8f7" d="M 53.5,78.5 C 53.8333,78.5 54.1667,78.5 54.5,78.5C 54.3147,79.1701 53.9813,79.1701 53.5,78.5 Z"/></g>
<g><path style="opacity:1" fill="#fbfcfb" d="M 55.5,78.5 C 56.8333,79.1667 56.8333,79.1667 55.5,78.5 Z"/></g>
<g><path style="opacity:1" fill="#fbfcfb" d="M 33.5,80.5 C 32.8333,79.1667 32.8333,79.1667 33.5,80.5 Z"/></g>
<g><path style="opacity:1" fill="#f8f9f8" d="M 35.5,79.5 C 36.8333,80.1667 36.8333,80.1667 35.5,79.5 Z"/></g>
<g><path style="opacity:1" fill="#f9f9f9" d="M 146.5,79.5 C 146.013,80.4734 145.513,81.4734 145,82.5C 144.275,80.8425 144.775,79.8425 146.5,79.5 Z"/></g>
<g><path style="opacity:1" fill="#f9faf9" d="M 161.5,80.5 C 160.833,79.1667 160.833,79.1667 161.5,80.5 Z"/></g>
<g><path style="opacity:1" fill="#f9faf9" d="M 163.5,79.5 C 164.833,80.1667 164.833,80.1667 163.5,79.5 Z"/></g>
<g><path style="opacity:1" fill="#fafafa" d="M 33.5,80.5 C 34.1667,80.5 34.8333,80.5 35.5,80.5C 34.8333,83.1667 34.1667,83.1667 33.5,80.5 Z"/></g>
<g><path style="opacity:1" fill="#696969" d="M 158.5,77.5 C 159.167,78.5 159.833,79.5 160.5,80.5C 160.5,81.8333 160.5,83.1667 160.5,84.5C 159.076,82.4855 158.41,80.1522 158.5,77.5 Z"/></g>
<g><path style="opacity:1" fill="#c4c4c4" d="M 52.5,78.5 C 52.5,79.5 52.5,80.5 52.5,81.5C 51.8333,82.1667 51.1667,82.8333 50.5,83.5C 50.4021,81.4471 51.0687,79.7804 52.5,78.5 Z"/></g>
<g><path style="opacity:1" fill="#f7f7f7" d="M 52.5,81.5 C 53.525,81.8966 53.6917,82.5632 53,83.5C 52.5357,82.9056 52.369,82.2389 52.5,81.5 Z"/></g>
<g><path style="opacity:1" fill="#f1f1f1" d="M 161.5,80.5 C 162.573,81.2506 162.74,82.2506 162,83.5C 161.517,82.552 161.351,81.552 161.5,80.5 Z"/></g>
<g><path style="opacity:1" fill="#fbfcfb" d="M 32.5,83.5 C 31.8333,82.1667 31.8333,82.1667 32.5,83.5 Z"/></g>
<g><path style="opacity:1" fill="#eaeaea" d="M 147.5,81.5 C 148.167,81.5 148.5,81.8333 148.5,82.5C 147.356,83.8493 147.356,84.1826 148.5,83.5C 149.338,83.8417 149.672,84.5084 149.5,85.5C 148.833,85.8333 148.167,86.1667 147.5,86.5C 146.28,84.7163 146.28,83.0496 147.5,81.5 Z"/></g>
<g><path style="opacity:1" fill="#f8f8f8" d="M 165.5,81.5 C 166.525,81.8966 166.692,82.5632 166,83.5C 165.536,82.9056 165.369,82.2389 165.5,81.5 Z"/></g>
<g><path style="opacity:1" fill="#fbfcfb" d="M 32.5,83.5 C 33.8333,84.1667 33.8333,84.1667 32.5,83.5 Z"/></g>
<g><path style="opacity:1" fill="#f6f6f6" d="M 37.5,81.5 C 37.5,82.5 37.5,83.5 37.5,84.5C 36.6365,85.463 35.9698,85.463 35.5,84.5C 35.9424,83.2613 36.6091,82.2613 37.5,81.5 Z"/></g>
<g><path style="opacity:1" fill="#fbfbfb" d="M 54.5,84.5 C 55.525,84.8966 55.6917,85.5632 55,86.5C 54.5357,85.9056 54.369,85.2389 54.5,84.5 Z"/></g>
<g><path style="opacity:1" fill="#fbfcfb" d="M 144.5,85.5 C 143.833,84.1667 143.833,84.1667 144.5,85.5 Z"/></g>
<g><path style="opacity:1" fill="#f9f9f9" d="M 163.5,83.5 C 164.573,84.2506 164.74,85.2506 164,86.5C 163.517,85.552 163.351,84.552 163.5,83.5 Z"/></g>
<g><path style="opacity:1" fill="#959595" d="M 39.5,80.5 C 39.3253,82.6208 39.6586,84.6208 40.5,86.5C 39.5,86.5 38.5,86.5 37.5,86.5C 37.5,85.8333 37.5,85.1667 37.5,84.5C 38.8333,83.5 38.8333,82.5 37.5,81.5C 37.4088,79.3023 38.0755,78.9689 39.5,80.5 Z"/></g>
<g><path style="opacity:1" fill="#c0c0c0" d="M 160.5,84.5 C 161.267,85.172 161.934,86.0053 162.5,87C 162.272,87.3988 161.938,87.5654 161.5,87.5C 160.596,86.791 160.263,85.791 160.5,84.5 Z"/></g>
<g><path style="opacity:1" fill="#f7f8f7" d="M 31.5,86.5 C 32.8333,87.1667 32.8333,87.1667 31.5,86.5 Z"/></g>
<g><path style="opacity:1" fill="#f4f4f4" d="M 33.5,85.5 C 34.525,85.8966 34.6917,86.5632 34,87.5C 33.5357,86.9056 33.369,86.2389 33.5,85.5 Z"/></g>
<g><path style="opacity:1" fill="#f6f7f6" d="M 37.5,86.5 C 36.8333,87.1667 36.8333,87.1667 37.5,86.5 Z"/></g>
<g><path style="opacity:1" fill="#f3f3f3" d="M 50.5,83.5 C 51.1175,85.2292 52.1175,86.7292 53.5,88C 52.7562,89.0386 51.7562,89.5386 50.5,89.5C 50.5,89.1667 50.5,88.8333 50.5,88.5C 51.8333,88.1667 51.8333,87.8333 50.5,87.5C 49.8333,87.5 49.5,87.1667 49.5,86.5C 49.2627,85.209 49.596,84.209 50.5,83.5 Z"/></g>
<g><path style="opacity:1" fill="#f9faf9" d="M 147.5,86.5 C 147.5,86.8333 147.5,87.1667 147.5,87.5C 146.83,87.0187 146.83,86.6853 147.5,86.5 Z"/></g>
<g><path style="opacity:1" fill="#bbbbbb" d="M 43.5,88.5 C 43.5,88.1667 43.5,87.8333 43.5,87.5C 45.2915,87.366 46.9582,87.6993 48.5,88.5C 48.5,88.8333 48.5,89.1667 48.5,89.5C 46.8828,88.962 45.2161,88.6287 43.5,88.5 Z"/></g>
<g><path style="opacity:1" fill="#f8f8f8" d="M 89.5,88.5 C 89.8966,87.475 90.5632,87.3083 91.5,88C 90.9056,88.4643 90.2389,88.631 89.5,88.5 Z"/></g>
<g><path style="opacity:1" fill="#fbfbfb" d="M 165.5,87.5 C 166.598,88.6009 166.765,89.9343 166,91.5C 165.51,90.2068 165.343,88.8734 165.5,87.5 Z"/></g>
<g><path style="opacity:1" fill="#f7f7f7" d="M 43.5,88.5 C 43.8333,89.1667 44.1667,89.8333 44.5,90.5C 41.5404,89.968 41.2071,89.3013 43.5,88.5 Z"/></g>
<g><path style="opacity:1" fill="#f8f9f8" d="M 87.5,88.5 C 88.8333,89.1667 88.8333,89.1667 87.5,88.5 Z"/></g>
<g><path style="opacity:1" fill="#f9f9f9" d="M 144.5,85.5 C 145.167,86.1667 145.833,86.8333 146.5,87.5C 144.804,91.0224 144.138,90.3558 144.5,85.5 Z"/></g>
<g><path style="opacity:1" fill="#f6f6f6" d="M 147.5,87.5 C 148.525,87.8966 148.692,88.5632 148,89.5C 147.536,88.9056 147.369,88.2389 147.5,87.5 Z"/></g>
<g><path style="opacity:1" fill="#f5f5f5" d="M 102.5,91.5 C 102.369,90.7611 102.536,90.0944 103,89.5C 103.692,90.4368 103.525,91.1034 102.5,91.5 Z"/></g>
<g><path style="opacity:1" fill="#f9f9f9" d="M 48.5,89.5 C 49.1667,89.5 49.8333,89.5 50.5,89.5C 49.8658,90.9468 48.6991,91.6134 47,91.5C 45.9302,91.472 45.0968,91.1386 44.5,90.5C 46.099,90.7678 47.4324,90.4345 48.5,89.5 Z"/></g>
<g><path style="opacity:1" fill="#f8f8f8" d="M 53.5,89.5 C 54.0431,89.56 54.3764,89.8933 54.5,90.5C 53.635,91.5827 52.635,91.7494 51.5,91C 52.4158,90.7216 53.0825,90.2216 53.5,89.5 Z"/></g>
<g><path style="opacity:1" fill="#f7f8f7" d="M 89.5,90.5 C 90.8333,91.1667 90.8333,91.1667 89.5,90.5 Z"/></g>
<g><path style="opacity:1" fill="#fafafa" d="M 39.5,90.5 C 40.525,90.8966 40.6917,91.5632 40,92.5C 39.5357,91.9056 39.369,91.2389 39.5,90.5 Z"/></g>
<g><path style="opacity:1" fill="#fbfcfb" d="M 89.5,91.5 C 88.8333,92.1667 88.8333,92.1667 89.5,91.5 Z"/></g>
<g><path style="opacity:1" fill="#fbfbfb" d="M 145.5,91.5 C 146.573,92.2506 146.74,93.2506 146,94.5C 145.517,93.552 145.351,92.552 145.5,91.5 Z"/></g>
<g><path style="opacity:1" fill="#f8f8f8" d="M 44.5,93.5 C 45.9464,92.3871 47.6131,92.2204 49.5,93C 47.8659,93.4935 46.1992,93.6602 44.5,93.5 Z"/></g>
<g><path style="opacity:1" fill="#f2f3f2" d="M 54.5,92.5 C 55.8333,93.1667 55.8333,93.1667 54.5,92.5 Z"/></g>
<g><path style="opacity:1" fill="#f9faf9" d="M 88.5,92.5 C 87.8333,93.1667 87.8333,93.1667 88.5,92.5 Z"/></g>
<g><path style="opacity:1" fill="#fbfbfb" d="M 41.5,94.5 C 40.7611,94.631 40.0944,94.4643 39.5,94C 40.4368,93.3083 41.1034,93.475 41.5,94.5 Z"/></g>
<g><path style="opacity:1" fill="#f7f7f7" d="M 50.5,94.5 C 51.2506,93.4265 52.2506,93.2599 53.5,94C 52.552,94.4828 51.552,94.6495 50.5,94.5 Z"/></g>
<g><path style="opacity:1" fill="#090909" d="M 99.5,57.5 C 99.3335,69.8378 99.5001,82.1712 100,94.5C 100.671,95.2524 101.504,95.5858 102.5,95.5C 111.033,96.885 119.7,98.2184 128.5,99.5C 128.5,100.833 128.5,102.167 128.5,103.5C 119.435,102.864 110.769,103.53 102.5,105.5C 102.5,105.833 102.5,106.167 102.5,106.5C 101.833,106.5 101.167,106.5 100.5,106.5C 98.5,106.5 96.5,106.5 94.5,106.5C 92.5544,105.965 91.5544,104.632 91.5,102.5C 91.3253,100.379 91.6586,98.3792 92.5,96.5C 92.5,95.8333 92.8333,95.5 93.5,95.5C 95.4803,83.2108 96.147,70.5441 95.5,57.5C 96.8333,57.5 98.1667,57.5 99.5,57.5 Z"/></g>
<g><path style="opacity:1" fill="#fafafa" d="M 41.5,94.5 C 42.8734,94.3433 44.2068,94.51 45.5,95C 43.9343,95.765 42.6009,95.5983 41.5,94.5 Z"/></g>
<g><path style="opacity:1" fill="#f9faf9" d="M 50.5,94.5 C 50.1034,95.525 49.4368,95.6917 48.5,95C 49.0944,94.5357 49.7611,94.369 50.5,94.5 Z"/></g>
<g><path style="opacity:1" fill="#fafafa" d="M 163.5,103.5 C 163.672,102.508 163.338,101.842 162.5,101.5C 162.5,100.167 162.5,98.8333 162.5,97.5C 163.321,94.3586 163.821,91.0252 164,87.5C 164.817,93.0164 164.651,98.3497 163.5,103.5 Z"/></g>
<g><path style="opacity:1" fill="#f1f2f1" d="M 34.5,95.5 C 35.8333,96.1667 35.8333,96.1667 34.5,95.5 Z"/></g>
<g><path style="opacity:1" fill="#f6f6f6" d="M 51.5,95.5 C 52.5983,96.6009 52.765,97.9343 52,99.5C 51.51,98.2068 51.3433,96.8734 51.5,95.5 Z"/></g>
<g><path style="opacity:1" fill="#fbfbfb" d="M 53.5,95.5 C 55.6456,95.6964 55.8122,96.6964 54,98.5C 53.5172,97.552 53.3505,96.552 53.5,95.5 Z"/></g>
<g><path style="opacity:1" fill="#f6f7f6" d="M 88.5,96.5 C 87.8333,95.1667 87.8333,95.1667 88.5,96.5 Z"/></g>
<g><path style="opacity:1" fill="#f7f7f7" d="M 129.5,96.5 C 129.897,95.475 130.563,95.3083 131.5,96C 130.906,96.4643 130.239,96.631 129.5,96.5 Z"/></g>
<g><path style="opacity:1" fill="#f7f8f7" d="M 133.5,95.5 C 134.833,96.1667 134.833,96.1667 133.5,95.5 Z"/></g>
<g><path style="opacity:1" fill="#fbfcfb" d="M 144.5,95.5 C 145.613,96.9464 145.78,98.6131 145,100.5C 144.5,100 144,99.5 143.5,99C 144.337,97.9887 144.67,96.8221 144.5,95.5 Z"/></g>
<g><path style="opacity:1" fill="#ecedec" d="M 88.5,96.5 C 89.8333,97.1667 89.8333,97.1667 88.5,96.5 Z"/></g>
<g><path style="opacity:1" fill="#7e7e7e" d="M 102.5,95.5 C 111,96.8195 119.5,96.8195 128,95.5C 129.334,96.8779 129.501,98.2113 128.5,99.5C 119.7,98.2184 111.033,96.885 102.5,95.5 Z"/></g>
<g><path style="opacity:1" fill="#f9f9f9" d="M 34.5,99.5 C 32.7748,99.1575 32.2748,98.1575 33,96.5C 33.5133,97.5266 34.0133,98.5266 34.5,99.5 Z"/></g>
<g><path style="opacity:1" fill="#0d0d0d" d="M 48.5,105.5 C 48.5,106.167 48.5,106.833 48.5,107.5C 48.5,109.167 48.5,110.833 48.5,112.5C 47.5084,112.328 46.8417,112.662 46.5,113.5C 45.8333,113.5 45.5,113.833 45.5,114.5C 44.5084,114.328 43.8417,114.662 43.5,115.5C 42.8333,115.5 42.1667,115.5 41.5,115.5C 39.2239,115.244 38.0572,113.91 38,111.5C 37.5008,106.845 37.3342,102.179 37.5,97.5C 40.8333,97.5 44.1667,97.5 47.5,97.5C 47.1936,100.385 47.5269,103.052 48.5,105.5 Z"/></g>
<g><path style="opacity:1" fill="#fafbfa" d="M 132.5,97.5 C 133.833,98.1667 133.833,98.1667 132.5,97.5 Z"/></g>
<g><path style="opacity:1" fill="#c8c8c8" d="M 150.5,90.5 C 151.833,95.5 151.833,100.5 150.5,105.5C 150.167,104.5 149.5,103.833 148.5,103.5C 148.276,98.9414 148.942,94.6081 150.5,90.5 Z"/></g>
<g><path style="opacity:1" fill="#f0f1f0" d="M 88.5,99.5 C 87.8333,98.1667 87.8333,98.1667 88.5,99.5 Z"/></g>
<g><path style="opacity:1" fill="#e8e8e8" d="M 92.5,96.5 C 91.6586,98.3792 91.3253,100.379 91.5,102.5C 90.8333,101.5 90.1667,100.5 89.5,99.5C 89.8564,97.8102 90.8564,96.8102 92.5,96.5 Z"/></g>
<g><path style="opacity:1" fill="#f9f9f9" d="M 134.5,98.5 C 135.525,98.8966 135.692,99.5632 135,100.5C 134.536,99.9056 134.369,99.2389 134.5,98.5 Z"/></g>
<g><path style="opacity:1" fill="#fbfcfb" d="M 54.5,100.5 C 55.8333,101.167 55.8333,101.167 54.5,100.5 Z"/></g>
<g><path style="opacity:1" fill="#f0f0f0" d="M 88.5,99.5 C 88.8333,99.5 89.1667,99.5 89.5,99.5C 89.6716,100.492 89.3382,101.158 88.5,101.5C 88.5,100.833 88.5,100.167 88.5,99.5 Z"/></g>
<g><path style="opacity:1" fill="#fbfcfb" d="M 132.5,100.5 C 133.833,101.167 133.833,101.167 132.5,100.5 Z"/></g>
<g><path style="opacity:1" fill="#838383" d="M 161.5,88.5 C 162.477,91.2869 162.81,94.2869 162.5,97.5C 162.5,98.8333 162.5,100.167 162.5,101.5C 162.328,102.492 162.662,103.158 163.5,103.5C 163.672,104.492 163.338,105.158 162.5,105.5C 162.167,105.5 161.833,105.5 161.5,105.5C 161.5,99.8333 161.5,94.1667 161.5,88.5 Z"/></g>
<g><path style="opacity:1" fill="#fbfcfb" d="M 32.5,102.5 C 31.8333,101.167 31.8333,101.167 32.5,102.5 Z"/></g>
<g><path style="opacity:1" fill="#bfbfbf" d="M 49.5,103.5 C 49.6716,104.492 49.3382,105.158 48.5,105.5C 47.5269,103.052 47.1936,100.385 47.5,97.5C 44.1667,97.5 40.8333,97.5 37.5,97.5C 37.3342,102.179 37.5008,106.845 38,111.5C 38.0572,113.91 39.2239,115.244 41.5,115.5C 41.5,115.833 41.5,116.167 41.5,116.5C 40.5041,116.414 39.6708,116.748 39,117.5C 38.7216,116.584 38.2216,115.918 37.5,115.5C 36.6945,112.715 36.0278,109.881 35.5,107C 35.6032,105.439 35.9366,103.939 36.5,102.5C 36.0302,101.537 35.3635,101.537 34.5,102.5C 34.5,101.5 34.5,100.5 34.5,99.5C 36.5065,100.679 36.8398,100.179 35.5,98C 36.3333,97.1667 37.1667,96.3333 38,95.5C 41.73,96.4601 45.5633,96.7935 49.5,96.5C 48.5829,99.0048 48.5829,101.338 49.5,103.5 Z"/></g>
<g><path style="opacity:1" fill="#fafafa" d="M 51.5,103.5 C 50.8333,103.5 50.1667,103.5 49.5,103.5C 49.7373,99.7113 50.4039,99.7113 51.5,103.5 Z"/></g>
<g><path style="opacity:1" fill="#fafbfa" d="M 88.5,101.5 C 87.8333,102.167 87.8333,102.167 88.5,101.5 Z"/></g>
<g><path style="opacity:1" fill="#fafafa" d="M 32.5,102.5 C 33.1667,102.5 33.8333,102.5 34.5,102.5C 33.3047,106.286 32.638,106.286 32.5,102.5 Z"/></g>
<g><path style="opacity:1" fill="#f5f5f5" d="M 132.5,101.5 C 132.672,102.492 132.338,103.158 131.5,103.5C 131.328,102.508 131.662,101.842 132.5,101.5 Z"/></g>
<g><path style="opacity:1" fill="#fafbfa" d="M 134.5,102.5 C 135.833,103.167 135.833,103.167 134.5,102.5 Z"/></g>
<g><path style="opacity:1" fill="#fafafa" d="M 51.5,103.5 C 52.5735,104.251 52.7401,105.251 52,106.5C 51.5172,105.552 51.3505,104.552 51.5,103.5 Z"/></g>
<g><path style="opacity:1" fill="#6e6e6e" d="M 128.5,103.5 C 129.547,104.078 129.38,104.744 128,105.5C 119.5,104.181 111,104.181 102.5,105.5C 110.769,103.53 119.435,102.864 128.5,103.5 Z"/></g>
<g><path style="opacity:1" fill="#fbfbfb" d="M 144.5,104.5 C 144.897,103.475 145.563,103.308 146.5,104C 145.906,104.464 145.239,104.631 144.5,104.5 Z"/></g>
<g><path style="opacity:1" fill="#fafafa" d="M 53.5,105.5 C 54.5735,106.251 54.7401,107.251 54,108.5C 53.5172,107.552 53.3505,106.552 53.5,105.5 Z"/></g>
<g><path style="opacity:1" fill="#f8f8f8" d="M 131.5,103.5 C 131.715,105.179 131.048,106.179 129.5,106.5C 129.932,105.29 130.599,104.29 131.5,103.5 Z"/></g>
<g><path style="opacity:1" fill="#f7f7f7" d="M 129.5,106.5 C 129.489,109.001 128.822,109.168 127.5,107C 128.094,106.536 128.761,106.369 129.5,106.5 Z"/></g>
<g><path style="opacity:1" fill="#f9f9f9" d="M 134.5,103.5 C 135.109,106.878 133.776,108.878 130.5,109.5C 132.29,107.728 133.623,105.728 134.5,103.5 Z"/></g>
<g><path style="opacity:1" fill="#fafafa" d="M 164.5,105.5 C 166.332,106.14 166.665,107.14 165.5,108.5C 164.614,107.675 164.281,106.675 164.5,105.5 Z"/></g>
<g><path style="opacity:1" fill="#f5f5f5" d="M 88.5,109.5 C 88.5106,107.314 89.5106,106.481 91.5,107C 90.6266,108.045 89.6266,108.878 88.5,109.5 Z"/></g>
<g><path style="opacity:1" fill="#f8f8f8" d="M 91.5,109.5 C 91.7828,108.711 92.2828,108.044 93,107.5C 93.5281,108.816 93.0281,109.483 91.5,109.5 Z"/></g>
<g><path style="opacity:1" fill="#f4f4f4" d="M 102.5,106.5 C 103.338,106.842 103.672,107.508 103.5,108.5C 102.662,108.158 102.328,107.492 102.5,106.5 Z"/></g>
<g><path style="opacity:1" fill="#fbfcfb" d="M 143.5,107.5 C 144.525,107.897 144.692,108.563 144,109.5C 143.536,108.906 143.369,108.239 143.5,107.5 Z"/></g>
<g><path style="opacity:1" fill="#e9e9e9" d="M 148.5,103.5 C 148.796,105.403 149.463,107.07 150.5,108.5C 150.737,109.791 150.404,110.791 149.5,111.5C 148.657,109.513 147.99,107.346 147.5,105C 147.57,104.235 147.903,103.735 148.5,103.5 Z"/></g>
<g><path style="opacity:1" fill="#ededed" d="M 94.5,106.5 C 96.5,106.5 98.5,106.5 100.5,106.5C 101.234,107.708 101.567,109.041 101.5,110.5C 99.3881,111.275 97.3881,111.275 95.5,110.5C 96.8264,108.805 96.4931,107.472 94.5,106.5 Z M 98.5,109.5 C 98.5109,106.999 99.1776,106.832 100.5,109C 99.9056,109.464 99.2389,109.631 98.5,109.5 Z"/></g>
<g><path style="opacity:1" fill="#fafbfa" d="M 103.5,109.5 C 103.5,109.167 103.5,108.833 103.5,108.5C 111.684,108.174 119.684,108.508 127.5,109.5C 119.5,109.5 111.5,109.5 103.5,109.5 Z"/></g>
<g><path style="opacity:1" fill="#f8f9f8" d="M 134.5,110.5 C 134.369,109.761 134.536,109.094 135,108.5C 135.692,109.437 135.525,110.103 134.5,110.5 Z"/></g>
<g><path style="opacity:1" fill="#fbfbfb" d="M 51.5,109.5 C 53.7602,110.238 53.9269,111.238 52,112.5C 51.5172,111.552 51.3505,110.552 51.5,109.5 Z"/></g>
<g><path style="opacity:1" fill="#f0f1f0" d="M 88.5,109.5 C 88.5,109.833 88.5,110.167 88.5,110.5C 87.8299,110.019 87.8299,109.685 88.5,109.5 Z"/></g>
<g><path style="opacity:1" fill="#f5f6f5" d="M 91.5,109.5 C 91.5,109.833 91.5,110.167 91.5,110.5C 90.8299,110.019 90.8299,109.685 91.5,109.5 Z"/></g>
<g><path style="opacity:1" fill="#fbfcfb" d="M 103.5,109.5 C 103.631,110.239 103.464,110.906 103,111.5C 102.308,110.563 102.475,109.897 103.5,109.5 Z"/></g>
<g><path style="opacity:1" fill="#fafafa" d="M 127.5,109.5 C 128.5,109.5 129.5,109.5 130.5,109.5C 129.5,110.833 128.5,110.833 127.5,109.5 Z"/></g>
<g><path style="opacity:1" fill="#fafbfa" d="M 88.5,110.5 C 89.8333,111.167 89.8333,111.167 88.5,110.5 Z"/></g>
<g><path style="opacity:1" fill="#f7f8f7" d="M 91.5,110.5 C 92.8333,111.167 92.8333,111.167 91.5,110.5 Z"/></g>
<g><path style="opacity:1" fill="#f6f7f6" d="M 95.5,110.5 C 94.8333,111.167 94.8333,111.167 95.5,110.5 Z"/></g>
<g><path style="opacity:1" fill="#f8f8f8" d="M 134.5,110.5 C 135.525,110.103 135.692,109.437 135,108.5C 134.536,109.094 134.369,109.761 134.5,110.5 Z"/></g>
<g><path style="opacity:1" fill="#f9f9f9" d="M 145.5,111.5 C 145.369,110.761 145.536,110.094 146,109.5C 146.692,110.437 146.525,111.103 145.5,111.5 Z"/></g>
<g><path style="opacity:1" fill="#ebebeb" d="M 161.5,105.5 C 161.833,105.5 162.167,105.5 162.5,105.5C 162.894,106.967 163.227,108.467 163.5,110C 162.926,111.607 162.26,113.107 161.5,114.5C 161.167,114.5 160.833,114.5 160.5,114.5C 160.263,113.209 160.596,112.209 161.5,111.5C 162.833,110.833 162.833,110.167 161.5,109.5C 161.5,108.167 161.5,106.833 161.5,105.5 Z"/></g>
<g><path style="opacity:1" fill="#d2d2d2" d="M 48.5,107.5 C 50.0881,109.527 50.5881,111.861 50,114.5C 49.7216,113.584 49.2216,112.918 48.5,112.5C 48.5,110.833 48.5,109.167 48.5,107.5 Z"/></g>
<g><path style="opacity:1" fill="#fbfcfb" d="M 145.5,111.5 C 144.833,112.167 144.833,112.167 145.5,111.5 Z"/></g>
<g><path style="opacity:1" fill="#fbfbfb" d="M 166.5,112.5 C 165.761,112.631 165.094,112.464 164.5,112C 165.437,111.308 166.103,111.475 166.5,112.5 Z"/></g>
<g><path style="opacity:1" fill="#f9f9f9" d="M 32.5,111.5 C 33.525,111.897 33.6917,112.563 33,113.5C 32.5357,112.906 32.369,112.239 32.5,111.5 Z"/></g>
<g><path style="opacity:1" fill="#fafafa" d="M 53.5,113.5 C 53.8966,112.475 54.5632,112.308 55.5,113C 54.9056,113.464 54.2389,113.631 53.5,113.5 Z"/></g>
<g><path style="opacity:1" fill="#fbfbfb" d="M 166.5,112.5 C 167.525,112.897 167.692,113.563 167,114.5C 166.536,113.906 166.369,113.239 166.5,112.5 Z"/></g>
<g><path style="opacity:1" fill="#eeeeee" d="M 48.5,112.5 C 48.1667,113.167 47.8333,113.833 47.5,114.5C 47.1667,114.5 46.8333,114.5 46.5,114.5C 46.5,114.167 46.5,113.833 46.5,113.5C 46.8417,112.662 47.5084,112.328 48.5,112.5 Z"/></g>
<g><path style="opacity:1" fill="#fafafa" d="M 37.5,115.5 C 37.6495,116.552 37.4828,117.552 37,118.5C 36.6232,117.058 35.7899,116.058 34.5,115.5C 34.3505,114.448 34.5172,113.448 35,112.5C 35.3768,113.942 36.2101,114.942 37.5,115.5 Z"/></g>
<g><path style="opacity:1" fill="#f3f4f3" d="M 45.5,114.5 C 45.8333,114.5 46.1667,114.5 46.5,114.5C 46.3147,115.17 45.9813,115.17 45.5,114.5 Z"/></g>
<g><path style="opacity:1" fill="#f0f1f0" d="M 47.5,114.5 C 48.8333,115.167 48.8333,115.167 47.5,114.5 Z"/></g>
<g><path style="opacity:1" fill="#f9faf9" d="M 163.5,114.5 C 164.833,115.167 164.833,115.167 163.5,114.5 Z"/></g>
<g><path style="opacity:1" fill="#efefef" d="M 43.5,116.5 C 43.5,116.167 43.5,115.833 43.5,115.5C 44.1667,115.5 44.8333,115.5 45.5,115.5C 45.5,115.833 45.5,116.167 45.5,116.5C 44.8333,116.5 44.1667,116.5 43.5,116.5 Z"/></g>
<g><path style="opacity:1" fill="#f9faf9" d="M 54.5,115.5 C 55.8333,116.167 55.8333,116.167 54.5,115.5 Z"/></g>
<g><path style="opacity:1" fill="#f2f2f2" d="M 161.5,114.5 C 162.573,115.251 162.74,116.251 162,117.5C 161.517,116.552 161.351,115.552 161.5,114.5 Z"/></g>
<g><path style="opacity:1" fill="#fafafa" d="M 34.5,115.5 C 34.7816,119.588 34.1149,120.088 32.5,117C 32.8361,115.97 33.5028,115.47 34.5,115.5 Z"/></g>
<g><path style="opacity:1" fill="#fafbfa" d="M 41.5,116.5 C 42.1667,116.5 42.8333,116.5 43.5,116.5C 42.8333,117.833 42.1667,117.833 41.5,116.5 Z"/></g>
<g><path style="opacity:1" fill="#f0f0f0" d="M 45.5,116.5 C 47.6477,116.389 47.981,117.056 46.5,118.5C 46.8555,119.522 47.5222,120.189 48.5,120.5C 48.1583,121.338 47.4916,121.672 46.5,121.5C 46.5,120.833 46.1667,120.5 45.5,120.5C 44.5946,119.036 44.5946,117.702 45.5,116.5 Z"/></g>
<g><path style="opacity:1" fill="#f1f2f1" d="M 48.5,116.5 C 49.8333,117.167 49.8333,117.167 48.5,116.5 Z"/></g>
<g><path style="opacity:1" fill="#f3f3f3" d="M 149.5,112.5 C 149.204,114.403 148.537,116.07 147.5,117.5C 147.167,114.833 146.833,114.833 146.5,117.5C 145.596,118.209 145.263,119.209 145.5,120.5C 145.167,120.5 144.833,120.5 144.5,120.5C 144.163,116.495 145.83,113.828 149.5,112.5 Z"/></g>
<g><path style="opacity:1" fill="#fafbfa" d="M 165.5,116.5 C 166.833,117.167 166.833,117.167 165.5,116.5 Z"/></g>
<g><path style="opacity:1" fill="#f9faf9" d="M 53.5,117.5 C 54.8333,118.167 54.8333,118.167 53.5,117.5 Z"/></g>
<g><path style="opacity:1" fill="#fafbfa" d="M 39.5,119.5 C 38.8333,118.167 38.8333,118.167 39.5,119.5 Z"/></g>
<g><path style="opacity:1" fill="#f1f2f1" d="M 160.5,118.5 C 161.833,119.167 161.833,119.167 160.5,118.5 Z"/></g>
<g><path style="opacity:1" fill="#f6f7f6" d="M 163.5,118.5 C 164.833,119.167 164.833,119.167 163.5,118.5 Z"/></g>
<g><path style="opacity:1" fill="#fbfcfb" d="M 166.5,118.5 C 167.833,119.167 167.833,119.167 166.5,118.5 Z"/></g>
<g><path style="opacity:1" fill="#eeefee" d="M 39.5,119.5 C 40.1667,119.5 40.5,119.833 40.5,120.5C 40.1667,120.167 39.8333,119.833 39.5,119.5 Z"/></g>
<g><path style="opacity:1" fill="#f6f7f6" d="M 41.5,119.5 C 42.8333,120.167 42.8333,120.167 41.5,119.5 Z"/></g>
<g><path style="opacity:1" fill="#f7f8f7" d="M 62.5,119.5 C 63.8333,120.167 63.8333,120.167 62.5,119.5 Z"/></g>
<g><path style="opacity:1" fill="#fbfbfb" d="M 139.5,120.5 C 139.897,119.475 140.563,119.308 141.5,120C 140.906,120.464 140.239,120.631 139.5,120.5 Z"/></g>
<g><path style="opacity:1" fill="#e9eae9" d="M 40.5,120.5 C 40.8333,120.5 41.1667,120.5 41.5,120.5C 41.3147,121.17 40.9813,121.17 40.5,120.5 Z"/></g>
<g><path style="opacity:1" fill="#f8f8f8" d="M 45.5,120.5 C 45.5,120.833 45.5,121.167 45.5,121.5C 44.8333,121.5 44.5,121.833 44.5,122.5C 43.2426,121.377 43.5759,120.711 45.5,120.5 Z"/></g>
<g><path style="opacity:1" fill="#e5e5e5" d="M 53.5,118.5 C 53.3932,120.379 53.8932,120.712 55,119.5C 57.0955,120.715 56.9288,121.549 54.5,122C 55.6226,123.044 56.9559,123.71 58.5,124C 57.2625,124.232 56.2625,124.732 55.5,125.5C 53.9928,123.711 52.6595,121.711 51.5,119.5C 50.5832,120.127 49.5832,120.461 48.5,120.5C 49.6801,118.986 50.6801,117.319 51.5,115.5C 52.5063,115.938 52.5063,116.604 51.5,117.5C 51.9569,118.298 52.6236,118.631 53.5,118.5 Z"/></g>
<g><path style="opacity:1" fill="#fafafa" d="M 60.5,121.5 C 59.7611,121.631 59.0944,121.464 58.5,121C 59.4368,120.308 60.1034,120.475 60.5,121.5 Z"/></g>
<g><path style="opacity:1" fill="#909090" d="M 146.5,117.5 C 146.833,117.5 147.167,117.5 147.5,117.5C 147.88,119.698 147.213,121.365 145.5,122.5C 145.5,121.833 145.5,121.167 145.5,120.5C 146.404,119.791 146.737,118.791 146.5,117.5 Z"/></g>
<g><path style="opacity:1" fill="#fafafa" d="M 40.5,121.5 C 40.5,122.167 40.5,122.833 40.5,123.5C 39.1667,122.833 39.1667,122.167 40.5,121.5 Z"/></g>
<g><path style="opacity:1" fill="#fafbfa" d="M 60.5,121.5 C 61.1667,121.5 61.5,121.833 61.5,122.5C 61.1667,122.167 60.8333,121.833 60.5,121.5 Z"/></g>
<g><path style="opacity:1" fill="#f9f9f9" d="M 144.5,120.5 C 144.5,121.167 144.5,121.833 144.5,122.5C 141.813,123.061 141.813,122.394 144.5,120.5 Z"/></g>
<g><path style="opacity:1" fill="#fafbfa" d="M 61.5,122.5 C 62.8333,123.167 62.8333,123.167 61.5,122.5 Z"/></g>
<g><path style="opacity:1" fill="#e9e9e9" d="M 158.5,121.5 C 159.625,122.652 159.625,123.652 158.5,124.5C 158.5,123.833 158.167,123.5 157.5,123.5C 157.328,122.508 157.662,121.842 158.5,121.5 Z"/></g>
<g><path style="opacity:1" fill="#f0f1f0" d="M 40.5,123.5 C 41.8333,124.167 41.8333,124.167 40.5,123.5 Z"/></g>
<g><path style="opacity:1" fill="#131313" d="M 55.5,125.5 C 55.427,127.027 56.0937,128.027 57.5,128.5C 57.5,128.833 57.5,129.167 57.5,129.5C 58.038,131.117 58.3713,132.784 58.5,134.5C 58.5,135.167 58.1667,135.5 57.5,135.5C 55.5956,135.738 54.2623,136.738 53.5,138.5C 53.5,139.167 53.1667,139.5 52.5,139.5C 51.3634,138.211 50.0301,137.211 48.5,136.5C 47.3995,135.395 46.7329,134.062 46.5,132.5C 46.1667,131.5 45.5,130.833 44.5,130.5C 44.5,129.833 44.1667,129.5 43.5,129.5C 43.5,128.833 43.5,128.167 43.5,127.5C 43.4326,126.041 43.7659,124.708 44.5,123.5C 44.5,123.167 44.5,122.833 44.5,122.5C 45.1667,122.5 45.5,122.167 45.5,121.5C 45.8333,121.5 46.1667,121.5 46.5,121.5C 47.4916,121.672 48.1583,121.338 48.5,120.5C 49.5832,120.461 50.5832,120.127 51.5,119.5C 52.6595,121.711 53.9928,123.711 55.5,125.5 Z"/></g>
<g><path style="opacity:1" fill="#fafafa" d="M 139.5,123.5 C 140.525,123.897 140.692,124.563 140,125.5C 139.536,124.906 139.369,124.239 139.5,123.5 Z"/></g>
<g><path style="opacity:1" fill="#f7f8f7" d="M 40.5,124.5 C 39.8333,125.167 39.8333,125.167 40.5,124.5 Z"/></g>
<g><path style="opacity:1" fill="#fafafa" d="M 60.5,127.5 C 60.1667,127.5 59.8333,127.5 59.5,127.5C 59.8333,123.5 60.1667,123.5 60.5,127.5 Z"/></g>
<g><path style="opacity:1" fill="#fafafa" d="M 135.5,123.5 C 136.573,124.251 136.74,125.251 136,126.5C 135.517,125.552 135.351,124.552 135.5,123.5 Z"/></g>
<g><path style="opacity:1" fill="#909090" d="M 44.5,123.5 C 43.7659,124.708 43.4326,126.041 43.5,127.5C 43.1667,127.5 42.8333,127.5 42.5,127.5C 41.4833,125.528 42.15,124.195 44.5,123.5 Z"/></g>
<g><path style="opacity:1" fill="#d8d8d8" d="M 157.5,123.5 C 158.167,123.5 158.5,123.833 158.5,124.5C 158.5,125.167 158.5,125.833 158.5,126.5C 158.167,126.5 157.833,126.5 157.5,126.5C 156.833,126.5 156.5,126.167 156.5,125.5C 156.328,124.508 156.662,123.842 157.5,123.5 Z"/></g>
<g><path style="opacity:1" fill="#f9faf9" d="M 139.5,127.5 C 138.833,126.167 138.833,126.167 139.5,127.5 Z"/></g>
<g><path style="opacity:1" fill="#d5d5d5" d="M 144.5,124.5 C 143.66,126.853 142.326,128.853 140.5,130.5C 140.5,129.833 140.5,129.167 140.5,128.5C 141.283,126.672 142.616,125.339 144.5,124.5 Z"/></g>
<g><path style="opacity:1" fill="#f8f9f8" d="M 158.5,126.5 C 159.833,127.167 159.833,127.167 158.5,126.5 Z"/></g>
<g><path style="opacity:1" fill="#e9e9e9" d="M 55.5,125.5 C 56.6049,126.6 57.9382,127.267 59.5,127.5C 59.6716,128.492 59.3382,129.158 58.5,129.5C 58.5,128.833 58.1667,128.5 57.5,128.5C 56.0937,128.027 55.427,127.027 55.5,125.5 Z"/></g>
<g><path style="opacity:1" fill="#f7f8f7" d="M 60.5,127.5 C 61.1667,127.5 61.5,127.833 61.5,128.5C 61.1667,128.167 60.8333,127.833 60.5,127.5 Z"/></g>
<g><path style="opacity:1" fill="#f8f9f8" d="M 62.5,127.5 C 63.8333,128.167 63.8333,128.167 62.5,127.5 Z"/></g>
<g><path style="opacity:1" fill="#fbfcfb" d="M 137.5,128.5 C 136.833,127.167 136.833,127.167 137.5,128.5 Z"/></g>
<g><path style="opacity:1" fill="#f4f5f4" d="M 139.5,127.5 C 140.167,127.5 140.5,127.833 140.5,128.5C 140.167,128.167 139.833,127.833 139.5,127.5 Z"/></g>
<g><path style="opacity:1" fill="#f9faf9" d="M 39.5,128.5 C 40.8333,129.167 40.8333,129.167 39.5,128.5 Z"/></g>
<g><path style="opacity:1" fill="#e5e6e5" d="M 61.5,128.5 C 61.8333,128.5 62.1667,128.5 62.5,128.5C 62.3147,129.17 61.9813,129.17 61.5,128.5 Z"/></g>
<g><path style="opacity:1" fill="#f7f8f7" d="M 136.5,128.5 C 135.833,129.167 135.833,129.167 136.5,128.5 Z"/></g>
<g><path style="opacity:1" fill="#f0f1f0" d="M 137.5,128.5 C 138.167,128.5 138.5,128.833 138.5,129.5C 138.167,129.167 137.833,128.833 137.5,128.5 Z"/></g>
<g><path style="opacity:1" fill="#fbfcfb" d="M 158.5,128.5 C 159.833,129.167 159.833,129.167 158.5,128.5 Z"/></g>
<g><path style="opacity:1" fill="#ededed" d="M 138.5,129.5 C 139.167,129.833 139.833,130.167 140.5,130.5C 140.5,131.167 140.167,131.5 139.5,131.5C 138.662,131.158 138.328,130.492 138.5,129.5 Z"/></g>
<g><path style="opacity:1" fill="#f2f2f2" d="M 154.5,129.5 C 154.5,128.833 154.833,128.5 155.5,128.5C 156.609,128.557 157.609,128.89 158.5,129.5C 158.631,130.239 158.464,130.906 158,131.5C 157.184,130.177 156.017,129.511 154.5,129.5 Z"/></g>
<g><path style="opacity:1" fill="#f4f5f4" d="M 41.5,130.5 C 40.8333,131.167 40.8333,131.167 41.5,130.5 Z"/></g>
<g><path style="opacity:1" fill="#ededed" d="M 42.5,127.5 C 42.3284,128.492 42.6618,129.158 43.5,129.5C 44.1667,129.5 44.5,129.833 44.5,130.5C 45.5,130.833 46.1667,131.5 46.5,132.5C 45.8826,132.611 45.3826,132.944 45,133.5C 44.2798,131.944 43.1132,130.944 41.5,130.5C 41.2627,129.209 41.596,128.209 42.5,127.5 Z"/></g>
<g><path style="opacity:1" fill="#fafbfa" d="M 61.5,131.5 C 60.8333,130.167 60.8333,130.167 61.5,131.5 Z"/></g>
<g><path style="opacity:1" fill="#fafbfa" d="M 62.5,130.5 C 63.8333,131.167 63.8333,131.167 62.5,130.5 Z"/></g>
<g><path style="opacity:1" fill="#fbfcfb" d="M 40.5,131.5 C 39.8333,132.167 39.8333,132.167 40.5,131.5 Z"/></g>
<g><path style="opacity:1" fill="#eff0ef" d="M 61.5,131.5 C 61.8333,131.5 62.1667,131.5 62.5,131.5C 62.3147,132.17 61.9813,132.17 61.5,131.5 Z"/></g>
<g><path style="opacity:1" fill="#f8f8f8" d="M 137.5,133.5 C 137.167,133.5 136.833,133.5 136.5,133.5C 135.105,132.352 135.272,131.352 137,130.5C 137.483,131.448 137.649,132.448 137.5,133.5 Z"/></g>
<g><path style="opacity:1" fill="#e3e3e3" d="M 154.5,130.5 C 155.167,130.5 155.5,130.833 155.5,131.5C 154.662,131.842 154.328,132.508 154.5,133.5C 153.833,133.167 153.167,132.833 152.5,132.5C 152.833,131.5 153.5,130.833 154.5,130.5 Z"/></g>
<g><path style="opacity:1" fill="#fbfcfb" d="M 155.5,131.5 C 156.167,131.5 156.5,131.833 156.5,132.5C 156.167,132.167 155.833,131.833 155.5,131.5 Z"/></g>
<g><path style="opacity:1" fill="#6f6f6f" d="M 57.5,129.5 C 57.8333,129.5 58.1667,129.5 58.5,129.5C 58.8333,130.5 59.5,131.167 60.5,131.5C 60.5,132.167 60.5,132.833 60.5,133.5C 59.8333,133.833 59.1667,134.167 58.5,134.5C 58.3713,132.784 58.038,131.117 57.5,129.5 Z"/></g>
<g><path style="opacity:1" fill="#f7f7f7" d="M 156.5,132.5 C 157.5,132.833 158.167,133.5 158.5,134.5C 157.167,134.5 156.5,133.833 156.5,132.5 Z"/></g>
<g><path style="opacity:1" fill="#f3f3f3" d="M 42.5,134.5 C 41.475,134.103 41.3083,133.437 42,132.5C 42.4643,133.094 42.631,133.761 42.5,134.5 Z"/></g>
<g><path style="opacity:1" fill="#f8f8f8" d="M 60.5,133.5 C 62.6977,133.409 63.0311,134.075 61.5,135.5C 60.6618,135.158 60.3284,134.492 60.5,133.5 Z"/></g>
<g><path style="opacity:1" fill="#f2f3f2" d="M 154.5,133.5 C 155.833,134.167 155.833,134.167 154.5,133.5 Z"/></g>
<g><path style="opacity:1" fill="#f1f2f1" d="M 39.5,134.5 C 40.8333,135.167 40.8333,135.167 39.5,134.5 Z"/></g>
<g><path style="opacity:1" fill="#fafbfa" d="M 42.5,134.5 C 43.8333,135.167 43.8333,135.167 42.5,134.5 Z"/></g>
<g><path style="opacity:1" fill="#d0d0d0" d="M 136.5,133.5 C 136.5,134.167 136.833,134.5 137.5,134.5C 137.167,135.5 136.5,136.167 135.5,136.5C 135.263,135.209 135.596,134.209 136.5,133.5 Z"/></g>
<g><path style="opacity:1" fill="#f7f8f7" d="M 154.5,134.5 C 153.833,135.167 153.833,135.167 154.5,134.5 Z"/></g>
<g><path style="opacity:1" fill="#f8f9f8" d="M 158.5,134.5 C 159.833,135.167 159.833,135.167 158.5,134.5 Z"/></g>
<g><path style="opacity:1" fill="#fafafa" d="M 65.5,136.5 C 64.9232,137.773 64.2565,137.773 63.5,136.5C 63.9698,135.537 64.6365,135.537 65.5,136.5 Z"/></g>
<g><path style="opacity:1" fill="#f8f8f8" d="M 65.5,136.5 C 66.1667,135.167 66.8333,135.167 67.5,136.5C 66.8333,136.5 66.1667,136.5 65.5,136.5 Z"/></g>
<g><path style="opacity:1" fill="#f6f7f6" d="M 71.5,136.5 C 70.8333,135.167 70.8333,135.167 71.5,136.5 Z"/></g>
<g><path style="opacity:1" fill="#f7f8f7" d="M 78.5,135.5 C 79.8333,136.167 79.8333,136.167 78.5,135.5 Z"/></g>
<g><path style="opacity:1" fill="#f9faf9" d="M 114.5,135.5 C 115.833,136.167 115.833,136.167 114.5,135.5 Z"/></g>
<g><path style="opacity:1" fill="#f9faf9" d="M 118.5,135.5 C 119.833,136.167 119.833,136.167 118.5,135.5 Z"/></g>
<g><path style="opacity:1" fill="#f6f6f6" d="M 122.5,136.5 C 122.897,135.475 123.563,135.308 124.5,136C 123.906,136.464 123.239,136.631 122.5,136.5 Z"/></g>
<g><path style="opacity:1" fill="#f9f9f9" d="M 125.5,135.5 C 129.243,135.459 129.41,136.126 126,137.5C 125.536,136.906 125.369,136.239 125.5,135.5 Z"/></g>
<g><path style="opacity:1" fill="#c9c9c9" d="M 57.5,135.5 C 56.8333,136.5 56.1667,137.5 55.5,138.5C 54.8333,138.5 54.1667,138.5 53.5,138.5C 54.2623,136.738 55.5956,135.738 57.5,135.5 Z"/></g>
<g><path style="opacity:1" fill="#fbfbfb" d="M 71.5,136.5 C 73.1992,136.34 74.8659,136.506 76.5,137C 74.6131,137.78 72.9464,137.613 71.5,136.5 Z"/></g>
<g><path style="opacity:1" fill="#f9f9f9" d="M 111.5,135.5 C 112.525,135.897 112.692,136.563 112,137.5C 111.536,136.906 111.369,136.239 111.5,135.5 Z"/></g>
<g><path style="opacity:1" fill="#fafafa" d="M 114.5,136.5 C 114.508,139.545 114.841,142.545 115.5,145.5C 114.06,144.054 113.393,142.221 113.5,140C 113.514,138.615 113.848,137.449 114.5,136.5 Z"/></g>
<g><path style="opacity:1" fill="#dcdcdc" d="M 122.5,136.5 C 122.5,136.833 122.5,137.167 122.5,137.5C 121.833,137.833 121.167,138.167 120.5,138.5C 120.5,137.167 121.167,136.5 122.5,136.5 Z"/></g>
<g><path style="opacity:1" fill="#f9f9f9" d="M 61.5,135.5 C 62.8333,136.833 62.8333,138.167 61.5,139.5C 61.5,138.167 61.5,136.833 61.5,135.5 Z"/></g>
<g><path style="opacity:1" fill="#f5f5f5" d="M 67.5,136.5 C 69.6977,136.409 70.0311,137.075 68.5,138.5C 67.6618,138.842 67.3284,139.508 67.5,140.5C 66.7611,140.631 66.0944,140.464 65.5,140C 66.305,138.887 66.9717,137.721 67.5,136.5 Z"/></g>
<g><path style="opacity:1" fill="#d9d9d9" d="M 135.5,136.5 C 135.027,137.906 134.027,138.573 132.5,138.5C 131.833,138.5 131.5,138.167 131.5,137.5C 132.833,137.167 134.167,136.833 135.5,136.5 Z"/></g>
<g><path style="opacity:1" fill="#f8f9f8" d="M 48.5,139.5 C 47.8333,138.167 47.8333,138.167 48.5,139.5 Z"/></g>
<g><path style="opacity:1" fill="#f6f6f6" d="M 55.5,138.5 C 57.0281,138.517 57.5281,139.184 57,140.5C 56.2828,139.956 55.7828,139.289 55.5,138.5 Z"/></g>
<g><path style="opacity:1" fill="#fafbfa" d="M 63.5,140.5 C 63.369,139.761 63.5357,139.094 64,138.5C 64.6917,139.437 64.525,140.103 63.5,140.5 Z"/></g>
<g><path style="opacity:1" fill="#fbfcfb" d="M 77.5,138.5 C 78.8333,139.167 78.8333,139.167 77.5,138.5 Z"/></g>
<g><path style="opacity:1" fill="#f5f5f5" d="M 116.5,137.5 C 117.776,138.386 117.776,139.386 116.5,140.5C 115.438,139.575 115.438,138.575 116.5,137.5 Z"/></g>
<g><path style="opacity:1" fill="#f6f7f6" d="M 149.5,138.5 C 150.833,139.167 150.833,139.167 149.5,138.5 Z"/></g>
<g><path style="opacity:1" fill="#f9f9f9" d="M 61.5,139.5 C 61.2172,140.289 60.7172,140.956 60,141.5C 59.4719,140.184 59.9719,139.517 61.5,139.5 Z"/></g>
<g><path style="opacity:1" fill="#f1f2f1" d="M 70.5,139.5 C 71.8333,140.167 71.8333,140.167 70.5,139.5 Z"/></g>
<g><path style="opacity:1" fill="#f9f9f9" d="M 74.5,140.5 C 73.7611,140.631 73.0944,140.464 72.5,140C 73.4368,139.308 74.1034,139.475 74.5,140.5 Z"/></g>
<g><path style="opacity:1" fill="#e2e2e2" d="M 148.5,138.5 C 148.5,139.5 148.5,140.5 148.5,141.5C 147.833,141.5 147.167,141.5 146.5,141.5C 146.932,140.29 147.599,139.29 148.5,138.5 Z"/></g>
<g><path style="opacity:1" fill="#f6f6f6" d="M 48.5,139.5 C 48.8333,139.5 49.1667,139.5 49.5,139.5C 49.5,140.167 49.5,140.833 49.5,141.5C 48.6618,141.158 48.3284,140.492 48.5,139.5 Z"/></g>
<g><path style="opacity:1" fill="#f6f7f6" d="M 63.5,140.5 C 63.6716,141.492 63.3382,142.158 62.5,142.5C 62.3284,141.508 62.6618,140.842 63.5,140.5 Z"/></g>
<g><path style="opacity:1" fill="#bcbcbc" d="M 120.5,138.5 C 120.155,141.198 118.822,143.198 116.5,144.5C 117.34,142.147 118.674,140.147 120.5,138.5 Z"/></g>
<g><path style="opacity:1" fill="#e5e5e5" d="M 48.5,136.5 C 50.0301,137.211 51.3634,138.211 52.5,139.5C 52.9175,140.222 53.5842,140.722 54.5,141C 53.8742,141.75 53.3742,142.584 53,143.5C 52,142.167 51,142.167 50,143.5C 49.5357,142.906 49.369,142.239 49.5,141.5C 50.8333,140.833 50.8333,140.167 49.5,139.5C 49.4431,138.391 49.1098,137.391 48.5,136.5 Z"/></g>
<g><path style="opacity:1" fill="#fafbfa" d="M 56.5,142.5 C 56.8966,141.475 57.5632,141.308 58.5,142C 57.9056,142.464 57.2389,142.631 56.5,142.5 Z"/></g>
<g><path style="opacity:1" fill="#181818" d="M 67.5,141.5 C 69.5,142.167 71.5,142.833 73.5,143.5C 73.9731,144.906 74.9731,145.573 76.5,145.5C 77.7653,146.479 79.0986,147.479 80.5,148.5C 79.8728,149.417 79.5394,150.417 79.5,151.5C 79.3713,153.216 79.038,154.883 78.5,156.5C 77.6618,156.842 77.3284,157.508 77.5,158.5C 76.8333,158.5 76.1667,158.5 75.5,158.5C 75.5,157.833 75.1667,157.5 74.5,157.5C 74.5,156.833 74.1667,156.5 73.5,156.5C 72.8333,156.5 72.5,156.833 72.5,157.5C 71.7777,156.449 70.7777,155.782 69.5,155.5C 69.5,155.167 69.5,154.833 69.5,154.5C 69.1583,153.662 68.4916,153.328 67.5,153.5C 67.1667,153.5 66.8333,153.5 66.5,153.5C 66.1583,152.662 65.4916,152.328 64.5,152.5C 64.1667,151.5 63.5,150.833 62.5,150.5C 62.5569,149.391 62.8902,148.391 63.5,147.5C 63.7329,145.938 64.3995,144.605 65.5,143.5C 66.8333,143.5 67.5,142.833 67.5,141.5 Z"/></g>
<g><path style="opacity:1" fill="#fbfcfb" d="M 111.5,141.5 C 112.833,142.167 112.833,142.167 111.5,141.5 Z"/></g>
<g><path style="opacity:1" fill="#e3e3e3" d="M 129.5,138.5 C 129.328,139.492 129.662,140.158 130.5,140.5C 127.461,144.809 125.128,144.475 123.5,139.5C 124.871,141.17 126.371,141.836 128,141.5C 128.617,140.551 128.451,139.718 127.5,139C 128.094,138.536 128.761,138.369 129.5,138.5 Z"/></g>
<g><path style="opacity:1" fill="#f7f8f7" d="M 148.5,141.5 C 149.833,142.167 149.833,142.167 148.5,141.5 Z"/></g>
<g><path style="opacity:1" fill="#f4f5f4" d="M 150.5,141.5 C 151.833,142.167 151.833,142.167 150.5,141.5 Z"/></g>
<g><path style="opacity:1" fill="#f7f8f7" d="M 54.5,142.5 C 55.8333,143.167 55.8333,143.167 54.5,142.5 Z"/></g>
<g><path style="opacity:1" fill="#f7f7f7" d="M 60.5,143.5 C 60.8417,142.662 61.5084,142.328 62.5,142.5C 62.1583,143.338 61.4916,143.672 60.5,143.5 Z"/></g>
<g><path style="opacity:1" fill="#929292" d="M 67.5,141.5 C 67.5,142.833 66.8333,143.5 65.5,143.5C 64.475,143.103 64.3083,142.437 65,141.5C 65.7697,142.598 66.603,142.598 67.5,141.5 Z"/></g>
<g><path style="opacity:1" fill="#cfcfcf" d="M 68.5,138.5 C 69.4916,138.328 70.1583,138.662 70.5,139.5C 69.1667,139.833 69.1667,140.167 70.5,140.5C 71.6935,141.272 72.6935,142.272 73.5,143.5C 71.5,142.833 69.5,142.167 67.5,141.5C 67.5,141.167 67.5,140.833 67.5,140.5C 68.3382,140.158 68.6716,139.492 68.5,138.5 Z"/></g>
<g><path style="opacity:1" fill="#f9f9f9" d="M 146.5,143.5 C 146.5,143.167 146.5,142.833 146.5,142.5C 147.167,142.5 147.833,142.5 148.5,142.5C 148.158,143.338 147.492,143.672 146.5,143.5 Z"/></g>
<g><path style="opacity:1" fill="#f9faf9" d="M 56.5,143.5 C 57.8333,144.167 57.8333,144.167 56.5,143.5 Z"/></g>
<g><path style="opacity:1" fill="#f9faf9" d="M 60.5,143.5 C 59.8333,144.167 59.8333,144.167 60.5,143.5 Z"/></g>
<g><path style="opacity:1" fill="#ebebeb" d="M 74.5,140.5 C 76.2014,141.211 77.2014,142.545 77.5,144.5C 76.8333,144.5 76.5,144.833 76.5,145.5C 74.9731,145.573 73.9731,144.906 73.5,143.5C 75.7957,143.196 76.129,142.196 74.5,140.5 Z"/></g>
<g><path style="opacity:1" fill="#f0f1f0" d="M 82.5,143.5 C 83.8333,144.167 83.8333,144.167 82.5,143.5 Z"/></g>
<g><path style="opacity:1" fill="#eeefee" d="M 91.5,143.5 C 92.8333,144.167 92.8333,144.167 91.5,143.5 Z"/></g>
<g><path style="opacity:1" fill="#f8f9f8" d="M 95.5,143.5 C 96.8333,144.167 96.8333,144.167 95.5,143.5 Z"/></g>
<g><path style="opacity:1" fill="#fafbfa" d="M 101.5,144.5 C 100.761,144.631 100.094,144.464 99.5,144C 100.437,143.308 101.103,143.475 101.5,144.5 Z"/></g>
<g><path style="opacity:1" fill="#f8f9f8" d="M 111.5,143.5 C 112.833,144.167 112.833,144.167 111.5,143.5 Z"/></g>
<g><path style="opacity:1" fill="#f3f3f3" d="M 145.5,142.5 C 145.5,143.167 145.833,143.5 146.5,143.5C 145.713,145.104 144.38,145.771 142.5,145.5C 143.167,144.167 144.167,143.167 145.5,142.5 Z"/></g>
<g><path style="opacity:1" fill="#f7f7f7" d="M 59.5,144.5 C 59.5,145.167 59.5,145.833 59.5,146.5C 58.1667,145.833 58.1667,145.167 59.5,144.5 Z"/></g>
<g><path style="opacity:1" fill="#f6f7f6" d="M 86.5,144.5 C 87.8333,145.167 87.8333,145.167 86.5,144.5 Z"/></g>
<g><path style="opacity:1" fill="#eff0ef" d="M 88.5,144.5 C 89.8333,145.167 89.8333,145.167 88.5,144.5 Z"/></g>
<g><path style="opacity:1" fill="#f8f8f8" d="M 93.5,145.5 C 93.8417,144.662 94.5084,144.328 95.5,144.5C 95.5,144.833 95.5,145.167 95.5,145.5C 94.8333,145.5 94.1667,145.5 93.5,145.5 Z"/></g>
<g><path style="opacity:1" fill="#f3f3f3" d="M 101.5,144.5 C 102.239,144.369 102.906,144.536 103.5,145C 102.563,145.692 101.897,145.525 101.5,144.5 Z"/></g>
<g><path style="opacity:1" fill="#dadada" d="M 77.5,144.5 C 77.8333,144.5 78.1667,144.5 78.5,144.5C 79.5477,146.933 80.2144,146.933 80.5,144.5C 81.2891,144.783 81.9558,145.283 82.5,146C 83.0007,147.371 83.0007,148.871 82.5,150.5C 82.1667,147.833 81.8333,147.833 81.5,150.5C 80.8333,150.833 80.1667,151.167 79.5,151.5C 79.5394,150.417 79.8728,149.417 80.5,148.5C 79.0986,147.479 77.7653,146.479 76.5,145.5C 77.1667,145.5 77.5,145.167 77.5,144.5 Z M 78.5,144.5 C 79.1667,144.5 79.8333,144.5 80.5,144.5C 80.2144,146.933 79.5477,146.933 78.5,144.5 Z"/></g>
<g><path style="opacity:1" fill="#f7f7f7" d="M 85.5,147.5 C 84.7109,147.217 84.0442,146.717 83.5,146C 84.816,145.472 85.4827,145.972 85.5,147.5 Z"/></g>
<g><path style="opacity:1" fill="#fafafa" d="M 90.5,145.5 C 91.7733,146.077 91.7733,146.743 90.5,147.5C 89.537,147.03 89.537,146.363 90.5,145.5 Z"/></g>
<g><path style="opacity:1" fill="#f9f9f9" d="M 95.5,145.5 C 96.791,145.263 97.791,145.596 98.5,146.5C 97.209,146.737 96.209,146.404 95.5,145.5 Z"/></g>
<g><path style="opacity:1" fill="#f8f8f8" d="M 113.5,147.5 C 112.475,147.103 112.308,146.437 113,145.5C 113.464,146.094 113.631,146.761 113.5,147.5 Z"/></g>
<g><path style="opacity:1" fill="#f6f6f6" d="M 59.5,146.5 C 60.4916,146.328 61.1583,146.662 61.5,147.5C 60.0335,150.258 59.3668,149.925 59.5,146.5 Z"/></g>
<g><path style="opacity:1" fill="#eff0ef" d="M 87.5,146.5 C 88.8333,147.167 88.8333,147.167 87.5,146.5 Z"/></g>
<g><path style="opacity:1" fill="#f8f8f8" d="M 98.5,146.5 C 99.8734,146.343 101.207,146.51 102.5,147C 100.934,147.765 99.6009,147.598 98.5,146.5 Z"/></g>
<g><path style="opacity:1" fill="#f6f6f6" d="M 142.5,146.5 C 143.833,147.167 143.833,147.833 142.5,148.5C 142.5,147.833 142.5,147.167 142.5,146.5 Z"/></g>
<g><path style="opacity:1" fill="#f7f8f7" d="M 56.5,147.5 C 57.8333,148.167 57.8333,148.167 56.5,147.5 Z"/></g>
<g><path style="opacity:1" fill="#c7c7c7" d="M 61.5,147.5 C 62.1667,147.5 62.8333,147.5 63.5,147.5C 62.8902,148.391 62.5569,149.391 62.5,150.5C 62.1667,150.5 61.8333,150.5 61.5,150.5C 61.5,149.5 61.5,148.5 61.5,147.5 Z"/></g>
<g><path style="opacity:1" fill="#f7f7f7" d="M 85.5,147.5 C 86.5,147.833 87.1667,148.5 87.5,149.5C 86.1667,149.5 85.5,148.833 85.5,147.5 Z"/></g>
<g><path style="opacity:1" fill="#f7f7f7" d="M 99.5,149.5 C 98.1266,149.657 96.7932,149.49 95.5,149C 97.0657,148.235 98.3991,148.402 99.5,149.5 Z"/></g>
<g><path style="opacity:1" fill="#f5f5f5" d="M 101.5,149.5 C 101.897,148.475 102.563,148.308 103.5,149C 102.906,149.464 102.239,149.631 101.5,149.5 Z"/></g>
<g><path style="opacity:1" fill="#fbfcfb" d="M 112.5,149.5 C 111.833,148.167 111.833,148.167 112.5,149.5 Z"/></g>
<g><path style="opacity:1" fill="#a1a1a1" d="M 115.5,146.5 C 115.573,148.027 114.906,149.027 113.5,149.5C 113.5,148.833 113.5,148.167 113.5,147.5C 114.167,147.167 114.833,146.833 115.5,146.5 Z"/></g>
<g><path style="opacity:1" fill="#f7f8f7" d="M 141.5,148.5 C 141.833,148.5 142.167,148.5 142.5,148.5C 142.5,148.833 142.5,149.167 142.5,149.5C 142.167,149.167 141.833,148.833 141.5,148.5 Z"/></g>
<g><path style="opacity:1" fill="#f5f5f5" d="M 57.5,149.5 C 58.525,149.897 58.6917,150.563 58,151.5C 57.5357,150.906 57.369,150.239 57.5,149.5 Z"/></g>
<g><path style="opacity:1" fill="#ececec" d="M 91.5,150.5 C 91.1667,150.5 90.8333,150.5 90.5,150.5C 90.7373,151.791 90.404,152.791 89.5,153.5C 89.5,152.833 89.1667,152.5 88.5,152.5C 88.4431,151.391 88.1098,150.391 87.5,149.5C 89.456,147.825 90.7893,148.158 91.5,150.5 Z"/></g>
<g><path style="opacity:1" fill="#fbfcfb" d="M 142.5,149.5 C 143.833,150.167 143.833,150.167 142.5,149.5 Z"/></g>
<g><path style="opacity:1" fill="#f6f7f6" d="M 55.5,150.5 C 56.8333,151.167 56.8333,151.167 55.5,150.5 Z"/></g>
<g><path style="opacity:1" fill="#f2f3f2" d="M 61.5,150.5 C 60.8333,151.167 60.8333,151.167 61.5,150.5 Z"/></g>
<g><path style="opacity:1" fill="#f8f9f8" d="M 81.5,150.5 C 81.8333,150.5 82.1667,150.5 82.5,150.5C 82.3147,151.17 81.9813,151.17 81.5,150.5 Z"/></g>
<g><path style="opacity:1" fill="#b7b7b7" d="M 93.5,145.5 C 94.038,147.117 94.3713,148.784 94.5,150.5C 96.4147,150.784 98.0813,150.451 99.5,149.5C 100.167,149.5 100.833,149.5 101.5,149.5C 102.11,150.391 102.443,151.391 102.5,152.5C 99.3896,151.912 96.3896,151.245 93.5,150.5C 92.506,148.666 92.506,146.999 93.5,145.5 Z"/></g>
<g><path style="opacity:1" fill="#f7f7f7" d="M 138.5,149.5 C 139.043,149.56 139.376,149.893 139.5,150.5C 138.743,151.773 138.077,151.773 137.5,150.5C 138.167,150.5 138.5,150.167 138.5,149.5 Z"/></g>
<g><path style="opacity:1" fill="#f8f9f8" d="M 142.5,150.5 C 141.833,151.167 141.833,151.167 142.5,150.5 Z"/></g>
<g><path style="opacity:1" fill="#080808" d="M 90.5,150.5 C 90.8333,150.5 91.1667,150.5 91.5,150.5C 92.1667,150.5 92.8333,150.5 93.5,150.5C 96.3896,151.245 99.3896,151.912 102.5,152.5C 102.263,153.791 102.596,154.791 103.5,155.5C 103.5,155.833 103.5,156.167 103.5,156.5C 103.328,157.492 103.662,158.158 104.5,158.5C 104.5,158.833 104.5,159.167 104.5,159.5C 100.627,161.43 96.294,162.097 91.5,161.5C 91.1667,161.5 90.8333,161.5 90.5,161.5C 89.5386,159.735 89.2053,157.735 89.5,155.5C 89.5,154.833 89.5,154.167 89.5,153.5C 90.404,152.791 90.7373,151.791 90.5,150.5 Z"/></g>
<g><path style="opacity:1" fill="#ecedec" d="M 104.5,151.5 C 105.833,152.167 105.833,152.167 104.5,151.5 Z"/></g>
<g><path style="opacity:1" fill="#f9faf9" d="M 64.5,152.5 C 63.8333,153.167 63.8333,153.167 64.5,152.5 Z"/></g>
<g><path style="opacity:1" fill="#f6f6f6" d="M 109.5,153.5 C 108.5,153.5 107.5,153.5 106.5,153.5C 106.957,151.443 107.957,151.443 109.5,153.5 Z"/></g>
<g><path style="opacity:1" fill="#e8e9e8" d="M 134.5,152.5 C 135.833,153.167 135.833,153.167 134.5,152.5 Z"/></g>
<g><path style="opacity:1" fill="#edeeed" d="M 66.5,153.5 C 65.8333,154.167 65.8333,154.167 66.5,153.5 Z"/></g>
<g><path style="opacity:1" fill="#f7f7f7" d="M 88.5,152.5 C 88.5,153.5 88.5,154.5 88.5,155.5C 87.1667,154.5 87.1667,153.5 88.5,152.5 Z"/></g>
<g><path style="opacity:1" fill="#e0e0e0" d="M 102.5,152.5 C 103.167,152.5 103.833,152.5 104.5,152.5C 104.443,153.609 104.11,154.609 103.5,155.5C 102.596,154.791 102.263,153.791 102.5,152.5 Z"/></g>
<g><path style="opacity:1" fill="#f0f1f0" d="M 65.5,154.5 C 64.8333,155.167 64.8333,155.167 65.5,154.5 Z"/></g>
<g><path style="opacity:1" fill="#f7f7f7" d="M 106.5,153.5 C 106.672,154.492 106.338,155.158 105.5,155.5C 105.328,154.508 105.662,153.842 106.5,153.5 Z"/></g>
<g><path style="opacity:1" fill="#f3f3f3" d="M 133.5,153.5 C 133.833,153.5 134.167,153.5 134.5,153.5C 134.5,154.167 134.5,154.833 134.5,155.5C 133.833,155.5 133.167,155.5 132.5,155.5C 131.833,155.5 131.5,155.167 131.5,154.5C 132.492,154.672 133.158,154.338 133.5,153.5 Z"/></g>
<g><path style="opacity:1" fill="#ededed" d="M 67.5,153.5 C 68.4916,153.328 69.1583,153.662 69.5,154.5C 68.1667,154.833 68.1667,155.167 69.5,155.5C 70.9687,157.105 70.6354,157.605 68.5,157C 67.6634,155.989 67.33,154.822 67.5,153.5 Z"/></g>
<g><path style="opacity:1" fill="#f6f7f6" d="M 134.5,155.5 C 135.833,156.167 135.833,156.167 134.5,155.5 Z"/></g>
<g><path style="opacity:1" fill="#fafafa" d="M 78.5,156.5 C 79.8333,157.167 79.8333,157.833 78.5,158.5C 78.5,157.833 78.5,157.167 78.5,156.5 Z"/></g>
<g><path style="opacity:1" fill="#e6e6e6" d="M 105.5,155.5 C 105.737,156.791 105.404,157.791 104.5,158.5C 103.662,158.158 103.328,157.492 103.5,156.5C 104.167,156.167 104.833,155.833 105.5,155.5 Z"/></g>
<g><path style="opacity:1" fill="#fafafa" d="M 66.5,158.5 C 65.8333,158.5 65.1667,158.5 64.5,158.5C 65.1667,155.833 65.8333,155.833 66.5,158.5 Z"/></g>
<g><path style="opacity:1" fill="#f6f6f6" d="M 73.5,156.5 C 74.1667,156.5 74.5,156.833 74.5,157.5C 75.1667,157.5 75.5,157.833 75.5,158.5C 74.221,159.715 73.221,159.382 72.5,157.5C 73.1667,157.5 73.5,157.167 73.5,156.5 Z"/></g>
<g><path style="opacity:1" fill="#f8f8f8" d="M 106.5,157.5 C 107.525,157.897 107.692,158.563 107,159.5C 106.536,158.906 106.369,158.239 106.5,157.5 Z"/></g>
<g><path style="opacity:1" fill="#d5d5d5" d="M 115.5,157.5 C 116.791,157.263 117.791,157.596 118.5,158.5C 117.105,159.815 116.105,159.481 115.5,157.5 Z"/></g>
<g><path style="opacity:1" fill="#f6f7f6" d="M 134.5,157.5 C 135.833,158.167 135.833,158.167 134.5,157.5 Z"/></g>
<g><path style="opacity:1" fill="#f1f2f1" d="M 64.5,158.5 C 63.8333,159.167 63.8333,159.167 64.5,158.5 Z"/></g>
<g><path style="opacity:1" fill="#f5f6f5" d="M 66.5,158.5 C 67.8333,159.167 67.8333,159.167 66.5,158.5 Z"/></g>
<g><path style="opacity:1" fill="#f6f7f6" d="M 69.5,158.5 C 70.8333,159.167 70.8333,159.167 69.5,158.5 Z"/></g>
<g><path style="opacity:1" fill="#f2f3f2" d="M 77.5,158.5 C 77.8333,158.5 78.1667,158.5 78.5,158.5C 78.3147,159.17 77.9813,159.17 77.5,158.5 Z"/></g>
<g><path style="opacity:1" fill="#bebebe" d="M 88.5,155.5 C 88.8333,155.5 89.1667,155.5 89.5,155.5C 89.2053,157.735 89.5386,159.735 90.5,161.5C 90.5,161.833 90.5,162.167 90.5,162.5C 89.8333,162.5 89.1667,162.5 88.5,162.5C 87.4537,160.215 87.4537,157.882 88.5,155.5 Z"/></g>
<g><path style="opacity:1" fill="#f8f9f8" d="M 111.5,158.5 C 112.833,159.167 112.833,159.167 111.5,158.5 Z"/></g>
<g><path style="opacity:1" fill="#f7f8f7" d="M 110.5,159.5 C 110.833,159.5 111.167,159.5 111.5,159.5C 111.315,160.17 110.981,160.17 110.5,159.5 Z"/></g>
<g><path style="opacity:1" fill="#bababa" d="M 124.5,159.5 C 125.791,159.263 126.791,159.596 127.5,160.5C 127.5,160.833 127.5,161.167 127.5,161.5C 126.29,161.068 125.29,160.401 124.5,159.5 Z"/></g>
<g><path style="opacity:1" fill="#f8f8f8" d="M 122.5,161.5 C 121.761,161.631 121.094,161.464 120.5,161C 121.437,160.308 122.103,160.475 122.5,161.5 Z"/></g>
<g><path style="opacity:1" fill="#bababa" d="M 104.5,159.5 C 106.824,159.877 107.491,160.877 106.5,162.5C 101.984,163.352 97.6504,163.685 93.5,163.5C 92.209,163.737 91.209,163.404 90.5,162.5C 91.1667,162.5 91.5,162.167 91.5,161.5C 96.294,162.097 100.627,161.43 104.5,159.5 Z"/></g>
<g><path style="opacity:1" fill="#e6e6e6" d="M 111.5,152.5 C 111.461,153.583 111.127,154.583 110.5,155.5C 111.602,156.176 112.602,156.842 113.5,157.5C 111.821,157.285 110.821,157.952 110.5,159.5C 109.308,160.566 109.641,161.399 111.5,162C 110.552,162.483 109.552,162.649 108.5,162.5C 108.357,160.738 108.691,159.071 109.5,157.5C 108.975,156.808 108.308,156.308 107.5,156C 108.381,155.292 109.047,154.458 109.5,153.5C 110.167,153.167 110.833,152.833 111.5,152.5 Z"/></g>
<g><path style="opacity:1" fill="#fafbfa" d="M 122.5,161.5 C 123.239,161.369 123.906,161.536 124.5,162C 123.563,162.692 122.897,162.525 122.5,161.5 Z"/></g>
<g><path style="opacity:1" fill="#e9e9e9" d="M 128.5,160.5 C 129.492,160.328 130.158,160.662 130.5,161.5C 129.833,161.5 129.5,161.833 129.5,162.5C 128.508,162.672 127.842,162.338 127.5,161.5C 128.167,161.5 128.5,161.167 128.5,160.5 Z"/></g>
<g><path style="opacity:1" fill="#f9faf9" d="M 106.5,162.5 C 107.167,162.5 107.5,162.833 107.5,163.5C 107.167,163.167 106.833,162.833 106.5,162.5 Z"/></g>
<g><path style="opacity:1" fill="#fbfcfb" d="M 119.5,162.5 C 120.833,163.167 120.833,163.167 119.5,162.5 Z"/></g>
<g><path style="opacity:1" fill="#f9f9f9" d="M 88.5,162.5 C 88.631,163.239 88.4643,163.906 88,164.5C 87.3083,163.563 87.475,162.897 88.5,162.5 Z"/></g>
<g><path style="opacity:1" fill="#f6f6f6" d="M 102.5,164.5 C 103.251,163.427 104.251,163.26 105.5,164C 104.552,164.483 103.552,164.649 102.5,164.5 Z"/></g>
<g><path style="opacity:1" fill="#f7f8f7" d="M 107.5,163.5 C 108.833,164.167 108.833,164.167 107.5,163.5 Z"/></g>
<g><path style="opacity:1" fill="#fafbfa" d="M 110.5,164.5 C 109.833,163.167 109.833,163.167 110.5,164.5 Z"/></g>
<g><path style="opacity:1" fill="#fafafa" d="M 121.5,165.5 C 121.369,164.761 121.536,164.094 122,163.5C 129.342,164.877 129.176,165.544 121.5,165.5 Z"/></g>
<g><path style="opacity:1" fill="#ececec" d="M 134.5,160.5 C 134.795,161.897 135.129,163.397 135.5,165C 134.906,165.464 134.239,165.631 133.5,165.5C 132.352,164.836 131.019,164.669 129.5,165C 130.598,164.23 130.598,163.397 129.5,162.5C 130.167,162.5 130.5,162.167 130.5,161.5C 130.833,161.5 131.167,161.5 131.5,161.5C 131.369,162.376 131.702,163.043 132.5,163.5C 133.463,163.03 133.463,162.363 132.5,161.5C 133.492,161.672 134.158,161.338 134.5,160.5 Z M 131.5,161.5 C 131.833,161.5 132.167,161.5 132.5,161.5C 133.463,162.363 133.463,163.03 132.5,163.5C 131.702,163.043 131.369,162.376 131.5,161.5 Z"/></g>
<g><path style="opacity:1" fill="#f7f8f7" d="M 89.5,165.5 C 89.8966,164.475 90.5632,164.308 91.5,165C 90.9056,165.464 90.2389,165.631 89.5,165.5 Z"/></g>
<g><path style="opacity:1" fill="#fafafa" d="M 93.5,163.5 C 96.925,163.367 97.2583,164.033 94.5,165.5C 93.6618,165.158 93.3284,164.492 93.5,163.5 Z"/></g>
<g><path style="opacity:1" fill="#fbfcfb" d="M 98.5,165.5 C 98.8966,164.475 99.5632,164.308 100.5,165C 99.9056,165.464 99.2389,165.631 98.5,165.5 Z"/></g>
<g><path style="opacity:1" fill="#f9faf9" d="M 110.5,164.5 C 111.833,165.167 111.833,165.167 110.5,164.5 Z"/></g>
<g><path style="opacity:1" fill="#f8f9f8" d="M 94.5,165.5 C 95.1667,165.5 95.5,165.833 95.5,166.5C 95.1667,166.167 94.8333,165.833 94.5,165.5 Z"/></g>
<g><path style="opacity:1" fill="#f3f3f3" d="M 105.5,165.5 C 108.001,165.511 108.168,166.178 106,167.5C 105.536,166.906 105.369,166.239 105.5,165.5 Z"/></g>
<g><path style="opacity:1" fill="#fafafa" d="M 121.5,165.5 C 121.103,166.525 120.437,166.692 119.5,166C 120.094,165.536 120.761,165.369 121.5,165.5 Z"/></g>
<g><path style="opacity:1" fill="#f9f9f9" d="M 90.5,167.5 C 90.8966,166.475 91.5632,166.308 92.5,167C 91.9056,167.464 91.2389,167.631 90.5,167.5 Z"/></g>
<g><path style="opacity:1" fill="#fafbfa" d="M 95.5,166.5 C 96.8333,167.167 96.8333,167.167 95.5,166.5 Z"/></g>
<g><path style="opacity:1" fill="#f7f7f7" d="M 102.5,167.5 C 102.897,166.475 103.563,166.308 104.5,167C 103.906,167.464 103.239,167.631 102.5,167.5 Z"/></g>
<g><path style="opacity:1" fill="#f6f6f6" d="M 108.5,167.5 C 108.897,166.475 109.563,166.308 110.5,167C 109.906,167.464 109.239,167.631 108.5,167.5 Z"/></g>
<g><path style="opacity:1" fill="#f9f9f9" d="M 122.5,167.5 C 123.251,166.427 124.251,166.26 125.5,167C 124.552,167.483 123.552,167.649 122.5,167.5 Z"/></g>
<g><path style="opacity:1" fill="#fafafa" d="M 133.5,165.5 C 133.157,167.225 132.157,167.725 130.5,167C 131.527,166.487 132.527,165.987 133.5,165.5 Z"/></g>
</svg>
