<?xml version="1.0" encoding="UTF-8"?>
<!DOCTYPE svg PUBLIC "-//W3C//DTD SVG 1.1//EN" "http://www.w3.org/Graphics/SVG/1.1/DTD/svg11.dtd">
<svg xmlns="http://www.w3.org/2000/svg" version="1.1" width="200px" height="200px" style="shape-rendering:geometricPrecision; text-rendering:geometricPrecision; image-rendering:optimizeQuality; fill-rule:evenodd; clip-rule:evenodd" xmlns:xlink="http://www.w3.org/1999/xlink">
<g><path style="opacity:0.873" fill="#000000" d="M 106.5,-0.5 C 111.833,-0.5 117.167,-0.5 122.5,-0.5C 164.5,8.83333 190.167,34.5 199.5,76.5C 199.5,81.8333 199.5,87.1667 199.5,92.5C 168.572,93.6583 137.572,93.8249 106.5,93C 105.17,61.8333 105.17,30.6667 106.5,-0.5 Z M 112.5,6.5 C 146.762,9.53917 171.262,26.5392 186,57.5C 189.903,66.7793 192.07,76.446 192.5,86.5C 165.833,86.5 139.167,86.5 112.5,86.5C 112.5,59.8333 112.5,33.1667 112.5,6.5 Z"/></g>
<g><path style="opacity:0.823" fill="#000000" d="M 119.5,12.5 C 156.35,18.8493 178.684,40.3493 186.5,77C 185.304,81.9559 182.971,82.6225 179.5,79C 171.967,45.9671 151.634,25.8004 118.5,18.5C 117.15,16.2174 117.483,14.2174 119.5,12.5 Z"/></g>
<g><path style="opacity:0.868" fill="#000000" d="M 103.5,199.5 C 94.5,199.5 85.5,199.5 76.5,199.5C 34.5,190.167 8.83333,164.5 -0.5,122.5C -0.5,113.5 -0.5,104.5 -0.5,95.5C 10.2684,48.7398 39.6018,22.7398 87.5,17.5C 89.2278,17.5901 90.8944,17.9234 92.5,18.5C 93.4998,47.4923 93.8332,76.4923 93.5,105.5C 122.508,105.167 151.508,105.5 180.5,106.5C 180.266,146.795 161.932,175.628 125.5,193C 118.19,195.719 110.857,197.886 103.5,199.5 Z M 77.5,25.5 C 80.5,25.5 83.5,25.5 86.5,25.5C 86.5,52.1667 86.5,78.8333 86.5,105.5C 59.8333,105.5 33.1667,105.5 6.5,105.5C 11.2587,61.9456 34.9253,35.2789 77.5,25.5 Z M 6.5,112.5 C 33.1667,112.5 59.8333,112.5 86.5,112.5C 86.5,139.167 86.5,165.833 86.5,192.5C 45.1335,187.966 18.9669,165.633 8,125.5C 7.07746,121.21 6.57746,116.877 6.5,112.5 Z M 93.5,112.5 C 120.167,112.5 146.833,112.5 173.5,112.5C 170.454,147.766 152.788,172.599 120.5,187C 111.782,190.263 102.782,192.097 93.5,192.5C 93.5,165.833 93.5,139.167 93.5,112.5 Z"/></g>
<g><path style="opacity:0.814" fill="#000000" d="M 131.5,29.5 C 149.051,34.5395 161.551,45.5395 169,62.5C 170.5,67.6667 168.667,69.5 163.5,68C 156.667,53.1667 145.833,42.3333 131,35.5C 130.322,33.4024 130.489,31.4024 131.5,29.5 Z"/></g>
<g><path style="opacity:0.833" fill="#000000" d="M 73.5,31.5 C 75.5273,31.3379 77.5273,31.5045 79.5,32C 81.2112,33.1332 81.7112,34.6332 81,36.5C 47.6539,44.5127 26.9873,65.1794 19,98.5C 17.2739,99.5762 15.4406,99.7429 13.5,99C 16.3016,72.1612 29.6349,52.1612 53.5,39C 60.0166,35.7766 66.6832,33.2766 73.5,31.5 Z"/></g>
<g><path style="opacity:0.822" fill="#000000" d="M 64.5,47.5 C 68.3204,48.5724 69.3204,50.9057 67.5,54.5C 52.9193,60.7033 42.4193,71.0366 36,85.5C 30.9343,88.8937 28.9343,87.5604 30,81.5C 37.4365,65.8958 48.9365,54.5625 64.5,47.5 Z"/></g>
<g><path style="opacity:0.823" fill="#000000" d="M 14.5,117.5 C 16.7144,117.291 18.381,118.124 19.5,120C 27.0331,153.033 47.3664,173.2 80.5,180.5C 81.7039,185.459 79.7039,187.292 74.5,186C 40.2938,177.794 19.6271,156.46 12.5,122C 12.5186,120.167 13.1852,118.667 14.5,117.5 Z"/></g>
<g><path style="opacity:0.831" fill="#000000" d="M 162.5,117.5 C 164.39,117.297 165.89,117.963 167,119.5C 163.934,143.79 152.101,162.623 131.5,176C 121.942,181.964 111.609,185.298 100.5,186C 97.8333,184 97.8333,182 100.5,180C 134.074,171.926 154.741,151.093 162.5,117.5 Z"/></g>
<g><path style="opacity:0.814" fill="#000000" d="M 30.5,130.5 C 32.4672,130.261 34.3005,130.594 36,131.5C 42.6667,146.167 53.3333,156.833 68,163.5C 69.5,168.667 67.6667,170.5 62.5,169C 47.6667,162.167 36.8333,151.333 30,136.5C 29.3224,134.402 29.4891,132.402 30.5,130.5 Z"/></g>
<g><path style="opacity:0.822" fill="#000000" d="M 144.5,130.5 C 146.199,130.34 147.866,130.506 149.5,131C 150.83,133.877 150.664,136.711 149,139.5C 141.725,152.775 131.225,162.609 117.5,169C 112.9,170.583 111.066,169.083 112,164.5C 116.247,161.292 120.747,158.458 125.5,156C 134.387,149.297 140.72,140.797 144.5,130.5 Z"/></g>
</svg>
