<?xml version="1.0" encoding="UTF-8"?>
<!DOCTYPE svg PUBLIC "-//W3C//DTD SVG 1.1//EN" "http://www.w3.org/Graphics/SVG/1.1/DTD/svg11.dtd">
<svg xmlns="http://www.w3.org/2000/svg" version="1.1" width="200px" height="200px" style="shape-rendering:geometricPrecision; text-rendering:geometricPrecision; image-rendering:optimizeQuality; fill-rule:evenodd; clip-rule:evenodd" xmlns:xlink="http://www.w3.org/1999/xlink">
<g><path style="opacity:1" fill="#202020" d="M 30.5,44.5 C 39.8333,44.5 49.1667,44.5 58.5,44.5C 58.5,43.5 58.5,42.5 58.5,41.5C 61.4213,21.2458 73.088,10.2458 93.5,8.5C 115.363,10.0294 127.363,21.6961 129.5,43.5C 140.838,43.3335 152.172,43.5001 163.5,44C 164,44.5 164.5,45 165,45.5C 167.117,88.3382 169.284,131.172 171.5,174C 171.695,176.352 171.028,178.352 169.5,180C 120.833,180.667 72.1667,180.667 23.5,180C 22.8606,177.589 22.5272,175.089 22.5,172.5C 24.362,130.144 26.5286,87.811 29,45.5C 29.3826,44.944 29.8826,44.6107 30.5,44.5 Z M 70.5,40.5 C 69.5128,45.3054 69.1795,50.3054 69.5,55.5C 67.8333,55.5 66.1667,55.5 64.5,55.5C 62.2209,25.9394 75.5542,13.1061 104.5,17C 115.194,21.7002 121.36,29.8668 123,41.5C 123.499,46.1548 123.666,50.8215 123.5,55.5C 121.5,55.5 119.5,55.5 117.5,55.5C 121.214,39.0957 115.547,27.5957 100.5,21C 84.3307,18.2401 74.3307,24.7401 70.5,40.5 Z M 92.5,26.5 C 103.001,26.9135 109.335,32.2468 111.5,42.5C 99.8523,43.4989 88.1857,43.8322 76.5,43.5C 77.7982,33.8722 83.1316,28.2055 92.5,26.5 Z M 34.5,50.5 C 42.1667,50.5 49.8333,50.5 57.5,50.5C 57.1632,54.3076 57.6632,57.9743 59,61.5C 64.082,62.637 69.2487,62.8037 74.5,62C 75,61.5 75.5,61 76,60.5C 76.4983,57.1832 76.665,53.8499 76.5,50.5C 88.1667,50.5 99.8333,50.5 111.5,50.5C 111.177,54.226 111.511,57.8927 112.5,61.5C 117.833,62.8333 123.167,62.8333 128.5,61.5C 129.489,57.8927 129.823,54.226 129.5,50.5C 135.167,50.5 140.833,50.5 146.5,50.5C 146.667,91.8347 146.5,133.168 146,174.5C 107.333,173.167 68.6667,173.167 30,174.5C 31.3661,133.174 32.8661,91.8405 34.5,50.5 Z M 153.5,50.5 C 155.167,50.5 156.833,50.5 158.5,50.5C 160.693,91.8362 162.527,133.17 164,174.5C 160.667,173.167 157.333,173.167 154,174.5C 153.5,133.168 153.333,91.8347 153.5,50.5 Z M 79.5,83.5 C 102.605,80.9575 117.772,90.6242 125,112.5C 128.171,135.292 119.005,150.459 97.5,158C 73.6782,161.848 58.1782,152.348 51,129.5C 48.037,106.423 57.537,91.0899 79.5,83.5 Z M 82.5,95.5 C 84.156,104.287 85.156,113.287 85.5,122.5C 85.5,123.167 85.8333,123.5 86.5,123.5C 95.3178,124.493 104.318,124.827 113.5,124.5C 113.5,125.5 113.5,126.5 113.5,127.5C 106.885,145.106 94.5513,150.939 76.5,145C 61.5449,135.35 58.0449,122.517 66,106.5C 70.0378,100.627 75.5378,96.9604 82.5,95.5 Z"/></g>
<g><path style="opacity:1" fill="#c8c8c8" d="M 58.5,41.5 C 58.5,42.5 58.5,43.5 58.5,44.5C 49.1667,44.5 39.8333,44.5 30.5,44.5C 39.9138,44.1118 49.2471,43.1118 58.5,41.5 Z"/></g>
<g><path style="opacity:1" fill="#bdbdbd" d="M 70.5,40.5 C 70.5,45.8333 70.5,51.1667 70.5,56.5C 68.2646,56.7947 66.2646,56.4614 64.5,55.5C 66.1667,55.5 67.8333,55.5 69.5,55.5C 69.1795,50.3054 69.5128,45.3054 70.5,40.5 Z"/></g>
<g><path style="opacity:1" fill="#1d1d1d" d="M 91.5,76.5 C 98.8569,77.2599 105.69,79.5932 112,83.5C 114.016,81.316 116.183,79.316 118.5,77.5C 120.784,78.5818 121.95,80.2484 122,82.5C 120.315,84.0175 118.815,85.6841 117.5,87.5C 132.485,102.249 136.319,119.583 129,139.5C 116.131,162.683 96.9641,170.517 71.5,163C 47.3504,150.861 38.8504,131.695 46,105.5C 48.8295,98.6601 52.9962,92.8267 58.5,88C 56.8391,86.0048 55.1725,84.0048 53.5,82C 54.2918,80.0403 55.6251,78.5403 57.5,77.5C 59.8169,79.316 61.9835,81.316 64,83.5C 70.3098,79.5932 77.1431,77.2599 84.5,76.5C 85.4767,73.7131 85.81,70.7131 85.5,67.5C 83.5,67.5 81.5,67.5 79.5,67.5C 79.5,65.8333 79.5,64.1667 79.5,62.5C 85.1667,62.5 90.8333,62.5 96.5,62.5C 96.5,64.1667 96.5,65.8333 96.5,67.5C 94.5,67.5 92.5,67.5 90.5,67.5C 90.19,70.7131 90.5233,73.7131 91.5,76.5 Z M 79.5,83.5 C 57.537,91.0899 48.037,106.423 51,129.5C 58.1782,152.348 73.6782,161.848 97.5,158C 119.005,150.459 128.171,135.292 125,112.5C 117.772,90.6242 102.605,80.9575 79.5,83.5 Z M 82.5,95.5 C 84.156,104.287 85.156,113.287 85.5,122.5C 85.5,123.167 85.8333,123.5 86.5,123.5C 95.3178,124.493 104.318,124.827 113.5,124.5C 113.5,125.5 113.5,126.5 113.5,127.5C 106.885,145.106 94.5513,150.939 76.5,145C 61.5449,135.35 58.0449,122.517 66,106.5C 70.0378,100.627 75.5378,96.9604 82.5,95.5 Z"/></g>
<g><path style="opacity:1" fill="#8d8d8d" d="M 91.5,76.5 C 90.5233,73.7131 90.19,70.7131 90.5,67.5C 92.5,67.5 94.5,67.5 96.5,67.5C 96.5,65.8333 96.5,64.1667 96.5,62.5C 90.8333,62.5 85.1667,62.5 79.5,62.5C 79.5,64.1667 79.5,65.8333 79.5,67.5C 81.5,67.5 83.5,67.5 85.5,67.5C 85.81,70.7131 85.4767,73.7131 84.5,76.5C 84.5,73.8333 84.5,71.1667 84.5,68.5C 82.5,68.5 80.5,68.5 78.5,68.5C 78.5,66.1667 78.5,63.8333 78.5,61.5C 84.8333,61.5 91.1667,61.5 97.5,61.5C 97.5,63.8333 97.5,66.1667 97.5,68.5C 95.5,68.5 93.5,68.5 91.5,68.5C 91.5,71.1667 91.5,73.8333 91.5,76.5 Z"/></g>
<g><path style="opacity:1" fill="#161616" d="M 90.5,90.5 C 90.5,99.8333 90.5,109.167 90.5,118.5C 99.8333,118.5 109.167,118.5 118.5,118.5C 120.121,118.787 121.121,119.787 121.5,121.5C 116.394,147.795 100.894,157.795 75,151.5C 53.9692,138.857 49.6359,121.857 62,100.5C 68.1373,93.1999 75.9707,89.1999 85.5,88.5C 87.6397,88.5561 89.3064,89.2227 90.5,90.5 Z M 82.5,95.5 C 84.156,104.287 85.156,113.287 85.5,122.5C 85.5,123.167 85.8333,123.5 86.5,123.5C 95.3178,124.493 104.318,124.827 113.5,124.5C 113.5,125.5 113.5,126.5 113.5,127.5C 106.885,145.106 94.5513,150.939 76.5,145C 61.5449,135.35 58.0449,122.517 66,106.5C 70.0378,100.627 75.5378,96.9604 82.5,95.5 Z"/></g>
<g><path style="opacity:1" fill="#888888" d="M 82.5,95.5 C 83.209,94.596 84.209,94.2627 85.5,94.5C 85.5,103.833 85.5,113.167 85.5,122.5C 85.156,113.287 84.156,104.287 82.5,95.5 Z"/></g>
<g><path style="opacity:1" fill="#b3b3b3" d="M 90.5,90.5 C 91.4933,99.3178 91.8266,108.318 91.5,117.5C 100.682,117.173 109.682,117.507 118.5,118.5C 109.167,118.5 99.8333,118.5 90.5,118.5C 90.5,109.167 90.5,99.8333 90.5,90.5 Z"/></g>
<g><path style="opacity:1" fill="#5b5b5b" d="M 86.5,123.5 C 95.8333,123.5 105.167,123.5 114.5,123.5C 114.768,125.099 114.434,126.432 113.5,127.5C 113.5,126.5 113.5,125.5 113.5,124.5C 104.318,124.827 95.3178,124.493 86.5,123.5 Z"/></g>
</svg>
