<?xml version="1.0" encoding="UTF-8"?>
<!DOCTYPE svg PUBLIC "-//W3C//DTD SVG 1.1//EN" "http://www.w3.org/Graphics/SVG/1.1/DTD/svg11.dtd">
<svg xmlns="http://www.w3.org/2000/svg" version="1.1" width="200px" height="200px" style="shape-rendering:geometricPrecision; text-rendering:geometricPrecision; image-rendering:optimizeQuality; fill-rule:evenodd; clip-rule:evenodd" xmlns:xlink="http://www.w3.org/1999/xlink">
<g><path style="opacity:1" fill="#111111" d="M 86.5,-0.5 C 92.8333,-0.5 99.1667,-0.5 105.5,-0.5C 118.321,2.91775 128.321,10.2511 135.5,21.5C 155.507,24.3423 168.674,35.3423 175,54.5C 187.043,58.7109 195.21,66.7109 199.5,78.5C 199.5,83.1667 199.5,87.8333 199.5,92.5C 194.701,106.293 185.034,114.293 170.5,116.5C 155.833,116.5 141.167,116.5 126.5,116.5C 126.171,129.344 126.505,142.011 127.5,154.5C 128.289,154.783 128.956,155.283 129.5,156C 136.524,156.831 143.524,156.664 150.5,155.5C 157.35,143.344 166.516,141.344 178,149.5C 184.885,161.506 182.052,170.339 169.5,176C 160.548,177.192 154.215,173.692 150.5,165.5C 142.521,164.668 134.521,164.168 126.5,164C 122.819,162.163 120.485,159.33 119.5,155.5C 119.5,142.5 119.5,129.5 119.5,116.5C 113.974,116.179 108.64,116.512 103.5,117.5C 103.167,134.513 103.501,151.513 104.5,168.5C 114.979,173.792 117.812,181.792 113,192.5C 110.559,195.454 107.725,197.787 104.5,199.5C 101.167,199.5 97.8333,199.5 94.5,199.5C 83.0027,193.49 80.5027,184.823 87,173.5C 89.364,171.637 91.864,169.971 94.5,168.5C 95.4995,151.513 95.8328,134.513 95.5,117.5C 90.3595,116.512 85.0262,116.179 79.5,116.5C 79.5,129.5 79.5,142.5 79.5,155.5C 78.5147,159.33 76.1813,162.163 72.5,164C 64.4793,164.168 56.4793,164.668 48.5,165.5C 43.2312,175.965 35.2312,178.799 24.5,174C 16.6323,166.788 15.4657,158.621 21,149.5C 32.4838,141.344 41.6505,143.344 48.5,155.5C 55.4763,156.664 62.4763,156.831 69.5,156C 70.0442,155.283 70.7109,154.783 71.5,154.5C 72.4954,142.011 72.8287,129.344 72.5,116.5C 57.8333,116.5 43.1667,116.5 28.5,116.5C 13.9657,114.293 4.29908,106.293 -0.5,92.5C -0.5,87.8333 -0.5,83.1667 -0.5,78.5C 3.54607,66.7887 11.5461,59.1221 23.5,55.5C 25.5135,36.15 36.1801,24.8167 55.5,21.5C 63.121,10.1929 73.4543,2.85956 86.5,-0.5 Z M 91.5,7.5 C 109.642,6.90159 122.975,14.5683 131.5,30.5C 151.156,31.3278 162.99,41.3278 167,60.5C 171.807,62.587 176.64,64.7536 181.5,67C 194.833,79.3333 194.833,91.6667 181.5,104C 178.382,105.893 175.049,107.226 171.5,108C 123.5,108.667 75.5,108.667 27.5,108C 12.2999,103.757 6.13323,93.9236 9,78.5C 10.676,73.8222 13.5094,69.9889 17.5,67C 22.36,64.7536 27.1933,62.587 32,60.5C 31.8187,41.3465 41.3187,31.1798 60.5,30C 67.0378,17.0821 77.3712,9.58215 91.5,7.5 Z"/></g>
<g><path style="opacity:1" fill="#bfbfbf" d="M 28.5,116.5 C 43.1667,116.5 57.8333,116.5 72.5,116.5C 72.8287,129.344 72.4954,142.011 71.5,154.5C 71.5,142.167 71.5,129.833 71.5,117.5C 56.9903,117.829 42.6569,117.496 28.5,116.5 Z"/></g>
<g><path style="opacity:1" fill="#bfbfbf" d="M 170.5,116.5 C 156.343,117.496 142.01,117.829 127.5,117.5C 127.5,129.833 127.5,142.167 127.5,154.5C 126.505,142.011 126.171,129.344 126.5,116.5C 141.167,116.5 155.833,116.5 170.5,116.5 Z"/></g>
<g><path style="opacity:1" fill="#9d9d9d" d="M 95.5,117.5 C 90.5,117.5 85.5,117.5 80.5,117.5C 80.8287,130.344 80.4954,143.011 79.5,155.5C 79.5,142.5 79.5,129.5 79.5,116.5C 85.0262,116.179 90.3595,116.512 95.5,117.5 Z"/></g>
<g><path style="opacity:1" fill="#9d9d9d" d="M 103.5,117.5 C 108.64,116.512 113.974,116.179 119.5,116.5C 119.5,129.5 119.5,142.5 119.5,155.5C 118.505,143.011 118.171,130.344 118.5,117.5C 113.5,117.5 108.5,117.5 103.5,117.5 Z"/></g>
</svg>
