<?xml version="1.0" encoding="UTF-8"?>
<!DOCTYPE svg PUBLIC "-//W3C//DTD SVG 1.1//EN" "http://www.w3.org/Graphics/SVG/1.1/DTD/svg11.dtd">
<svg xmlns="http://www.w3.org/2000/svg" version="1.1" width="200px" height="200px" style="shape-rendering:geometricPrecision; text-rendering:geometricPrecision; image-rendering:optimizeQuality; fill-rule:evenodd; clip-rule:evenodd" xmlns:xlink="http://www.w3.org/1999/xlink">
<g><path style="opacity:1" fill="#171717" d="M 89.5,-0.5 C 96.1667,-0.5 102.833,-0.5 109.5,-0.5C 128.901,4.38855 142.734,16.0552 151,34.5C 174.944,29.6231 191.11,38.6231 199.5,61.5C 199.5,67.1667 199.5,72.8333 199.5,78.5C 193.421,98.2543 180.087,107.921 159.5,107.5C 156.9,104.959 156.9,102.459 159.5,100C 184.988,96.5173 194.488,82.3506 188,57.5C 182.366,47.3451 173.7,42.0117 162,41.5C 156.478,42.5946 150.978,43.428 145.5,44C 141.764,35.1919 136.764,27.1919 130.5,20C 112.414,6.28862 93.4139,4.95529 73.5,16C 67.4817,21.354 62.1483,27.354 57.5,34C 56.5838,34.3742 55.7504,34.8742 55,35.5C 49.4514,32.7691 43.9514,32.9358 38.5,36C 35.1213,40.3457 32.4546,45.0124 30.5,50C 12.5909,54.3095 5.75757,65.4761 10,83.5C 12.899,90.7316 18.0657,95.5649 25.5,98C 33.7999,99.6649 42.1332,99.8316 50.5,98.5C 55.6813,92.07 62.3479,87.9033 70.5,86C 93.1366,80.5959 115.47,81.5959 137.5,89C 142.541,91.2554 146.375,94.7554 149,99.5C 149.667,127.5 149.667,155.5 149,183.5C 145.574,188.306 141.074,191.806 135.5,194C 128.858,196.419 122.191,198.252 115.5,199.5C 104.833,199.5 94.1667,199.5 83.5,199.5C 73.2458,197.913 63.5791,194.413 54.5,189C 49.7515,185.52 48.4182,181.02 50.5,175.5C 52.4325,174.48 54.4325,174.313 56.5,175C 57.6169,178.028 59.2835,180.695 61.5,183C 77.809,189.996 94.809,192.33 112.5,190C 121.293,189.291 129.627,186.958 137.5,183C 138.333,182.167 139.167,181.333 140,180.5C 140.667,175.833 140.667,171.167 140,166.5C 127.259,172.764 113.759,175.43 99.5,174.5C 84.714,175.425 70.714,172.592 57.5,166C 54.3333,164.167 51.8333,161.667 50,158.5C 49.5001,141.837 49.3334,125.17 49.5,108.5C 42.4921,108.666 35.4921,108.5 28.5,108C 13.1796,105.173 3.51292,96.34 -0.5,81.5C -0.5,76.8333 -0.5,72.1667 -0.5,67.5C 2.88454,54.2809 11.2179,45.7809 24.5,42C 29.4475,28.6808 39.1142,22.6808 53.5,24C 62.4666,11.1717 74.4666,3.00499 89.5,-0.5 Z M 90.5,91.5 C 107.263,90.3039 123.263,93.1373 138.5,100C 139,100.5 139.5,101 140,101.5C 140.667,111.167 140.667,120.833 140,130.5C 135.526,134.33 130.359,136.83 124.5,138C 107.835,141.333 91.1682,141.333 74.5,138C 68.6406,136.83 63.4739,134.33 59,130.5C 58.3333,125.833 58.3333,121.167 59,116.5C 66.9888,120.624 75.4888,123.124 84.5,124C 94.8333,124.667 105.167,124.667 115.5,124C 121.528,123.13 127.361,121.63 133,119.5C 135.401,115.301 134.234,112.634 129.5,111.5C 110.208,116.614 90.8746,116.781 71.5,112C 53.9698,105.727 54.3032,100.061 72.5,95C 78.581,93.5026 84.581,92.3359 90.5,91.5 Z M 58.5,141.5 C 71.4683,147.493 85.1349,150.16 99.5,149.5C 113.719,150.223 127.219,147.556 140,141.5C 140.667,146.167 140.667,150.833 140,155.5C 138.269,157.617 136.102,159.117 133.5,160C 110.833,167.333 88.1667,167.333 65.5,160C 62.8976,159.117 60.7309,157.617 59,155.5C 58.5008,150.845 58.3342,146.179 58.5,141.5 Z"/></g>
<g><path style="opacity:1" fill="#181818" d="M 76.5,32.5 C 78.6547,32.372 80.6547,32.872 82.5,34C 87.8056,38.4619 92.139,43.6286 95.5,49.5C 94.8999,51.9355 93.3999,53.6022 91,54.5C 88.3723,52.8745 86.039,50.8745 84,48.5C 83.6667,56.1667 83.3333,63.8333 83,71.5C 81.0604,74.608 78.3937,75.2747 75,73.5C 74.6667,64.8333 74.3333,56.1667 74,47.5C 72.2488,50.9203 69.5821,53.2536 66,54.5C 63.6001,53.6022 62.1001,51.9355 61.5,49.5C 66.1199,43.5437 71.1199,37.8771 76.5,32.5 Z"/></g>
<g><path style="opacity:1" fill="#141414" d="M 114.5,58.5 C 114.56,59.0431 114.893,59.3764 115.5,59.5C 116.498,51.5277 116.831,43.5277 116.5,35.5C 118.479,32.0533 120.979,31.7199 124,34.5C 124.333,42.8333 124.667,51.1667 125,59.5C 127.143,56.6752 129.81,54.6752 133,53.5C 137.323,54.8241 138.323,57.4908 136,61.5C 131.833,65.6667 127.667,69.8333 123.5,74C 121.5,74.6667 119.5,74.6667 117.5,74C 113,69.5 108.5,65 104,60.5C 102.833,55 105,52.8333 110.5,54C 112.041,55.3712 113.375,56.8712 114.5,58.5 Z"/></g>
<g><path style="opacity:1" fill="#b6b6b6" d="M 116.5,35.5 C 116.831,43.5277 116.498,51.5277 115.5,59.5C 114.893,59.3764 114.56,59.0431 114.5,58.5C 115.167,50.8333 115.833,43.1667 116.5,35.5 Z"/></g>
</svg>
