<?xml version="1.0" encoding="UTF-8"?>
<!DOCTYPE svg PUBLIC "-//W3C//DTD SVG 1.1//EN" "http://www.w3.org/Graphics/SVG/1.1/DTD/svg11.dtd">
<svg xmlns="http://www.w3.org/2000/svg" version="1.1" width="200px" height="200px" style="shape-rendering:geometricPrecision; text-rendering:geometricPrecision; image-rendering:optimizeQuality; fill-rule:evenodd; clip-rule:evenodd" xmlns:xlink="http://www.w3.org/1999/xlink">
<g><path style="opacity:1" fill="#fafafa" d="M 84.5,24.5 C 83.8333,24.5 83.5,24.1667 83.5,23.5C 84.2506,22.4265 85.2506,22.2599 86.5,23C 85.5842,23.2784 84.9175,23.7784 84.5,24.5 Z"/></g>
<g><path style="opacity:1" fill="#f9f9f9" d="M 87.5,24.5 C 87.2022,21.6644 87.8689,21.1644 89.5,23C 88.9558,23.7172 88.2891,24.2172 87.5,24.5 Z"/></g>
<g><path style="opacity:1" fill="#f9faf9" d="M 66.5,23.5 C 67.8333,24.1667 67.8333,24.1667 66.5,23.5 Z"/></g>
<g><path style="opacity:1" fill="#fbfcfb" d="M 69.5,23.5 C 70.8333,24.1667 70.8333,24.1667 69.5,23.5 Z"/></g>
<g><path style="opacity:1" fill="#171717" d="M 83.5,23.5 C 83.5,24.1667 83.8333,24.5 84.5,24.5C 85.5,24.5 86.5,24.5 87.5,24.5C 88.531,25.2485 89.6976,25.9152 91,26.5C 91.3333,26.1667 91.6667,25.8333 92,25.5C 92.2784,26.4158 92.7784,27.0825 93.5,27.5C 93.8417,28.3382 94.5084,28.6716 95.5,28.5C 96.8333,28.8333 98.1667,29.1667 99.5,29.5C 100.5,30.1667 101.5,30.8333 102.5,31.5C 102.918,32.2216 103.584,32.7216 104.5,33C 115.495,33.4998 126.495,33.6665 137.5,33.5C 138.167,33.1667 138.833,32.8333 139.5,32.5C 140.785,34.4516 142.451,36.1182 144.5,37.5C 145.375,40.5051 146.375,40.8384 147.5,38.5C 147.833,38.5 148.167,38.5 148.5,38.5C 148.285,40.1788 148.952,41.1788 150.5,41.5C 150.833,42.5 151.5,43.1667 152.5,43.5C 153.846,45.5368 155.18,47.5368 156.5,49.5C 156.5,50.5 156.5,51.5 156.5,52.5C 156.5,54.1667 156.5,55.8333 156.5,57.5C 156.6,60.667 155.933,63.667 154.5,66.5C 156.925,67.6493 156.925,68.316 154.5,68.5C 153.596,69.209 153.263,70.209 153.5,71.5C 154.506,72.3957 154.506,73.0623 153.5,73.5C 152.566,74.5676 152.232,75.901 152.5,77.5C 152.611,78.1174 152.944,78.6174 153.5,79C 151.136,85.6493 149.47,92.4826 148.5,99.5C 147.596,100.209 147.263,101.209 147.5,102.5C 152.833,102.5 158.167,102.5 163.5,102.5C 163.833,102.5 164.167,102.5 164.5,102.5C 164.842,103.338 165.508,103.672 166.5,103.5C 167.492,103.328 168.158,103.662 168.5,104.5C 168.842,105.338 169.508,105.672 170.5,105.5C 173.097,108.356 174.93,111.689 176,115.5C 177.026,123.67 176.526,131.67 174.5,139.5C 173.5,139.833 172.833,140.5 172.5,141.5C 172.443,142.609 172.11,143.609 171.5,144.5C 170.508,144.328 169.842,144.662 169.5,145.5C 168.833,146.167 168.167,146.833 167.5,147.5C 167.5,146.833 167.167,146.5 166.5,146.5C 165.833,146.5 165.5,146.833 165.5,147.5C 165.167,147.5 164.833,147.5 164.5,147.5C 158.642,147.178 152.975,147.511 147.5,148.5C 147.5,149.167 147.5,149.833 147.5,150.5C 147.5,150.833 147.5,151.167 147.5,151.5C 147.662,153.527 147.495,155.527 147,157.5C 145.558,159.391 144.391,161.391 143.5,163.5C 142.508,163.328 141.842,163.662 141.5,164.5C 140.508,164.328 139.842,164.662 139.5,165.5C 137.302,165.875 135.302,166.542 133.5,167.5C 132.5,167.833 131.833,168.5 131.5,169.5C 128.961,173.154 124.961,175.154 119.5,175.5C 113.468,174.911 107.802,173.244 102.5,170.5C 102.5,169.833 102.167,169.5 101.5,169.5C 100.833,169.5 100.5,169.833 100.5,170.5C 97.8822,168.967 95.2155,167.634 92.5,166.5C 82.0131,165.506 71.3464,165.172 60.5,165.5C 60.1667,165.5 59.8333,165.5 59.5,165.5C 58.8333,165.167 58.1667,164.833 57.5,164.5C 53.8867,162.81 51.22,160.81 49.5,158.5C 49.1583,157.662 48.4916,157.328 47.5,157.5C 47.5,156.833 47.1667,156.5 46.5,156.5C 46.5,155.833 46.1667,155.5 45.5,155.5C 43.0882,155.306 42.0882,153.973 42.5,151.5C 42.6716,150.508 42.3382,149.842 41.5,149.5C 41.5,149.167 41.5,148.833 41.5,148.5C 41.5,145.833 41.5,143.167 41.5,140.5C 41.5,140.167 41.5,139.833 41.5,139.5C 42.4511,138.081 42.7845,136.415 42.5,134.5C 43.5829,127.42 44.9162,120.42 46.5,113.5C 47.913,110.781 48.5797,107.781 48.5,104.5C 48.5172,102.435 48.8505,100.435 49.5,98.5C 50.4967,81.0079 50.8301,63.3412 50.5,45.5C 50.5,44.8333 50.5,44.1667 50.5,43.5C 50.8333,42.8333 51.1667,42.1667 51.5,41.5C 51.3284,40.5084 51.6618,39.8417 52.5,39.5C 53.9063,39.0269 54.573,38.0269 54.5,36.5C 56.249,34.744 58.249,33.4106 60.5,32.5C 61.1667,32.5 61.8333,32.5 62.5,32.5C 63.4916,32.6716 64.1583,32.3382 64.5,31.5C 64.5,31.1667 64.5,30.8333 64.5,30.5C 65.1667,30.5 65.5,30.1667 65.5,29.5C 66.8333,28.1667 68.1667,26.8333 69.5,25.5C 74.1223,23.5038 78.7889,22.8372 83.5,23.5 Z M 84.5,30.5 C 84.8333,31.1667 85.1667,31.8333 85.5,32.5C 81.367,32.2739 77.367,32.1073 73.5,32C 76.9582,30.5845 80.6249,30.0845 84.5,30.5 Z M 138.5,41.5 C 139.401,42.2905 140.068,43.2905 140.5,44.5C 140.833,63.5117 140.5,82.5117 139.5,101.5C 138.914,101.291 138.414,100.957 138,100.5C 120.402,101.16 102.902,101.827 85.5,102.5C 84.1667,102.833 82.8333,103.167 81.5,103.5C 80.0119,100.814 79.3453,101.147 79.5,104.5C 76.8333,104.833 76.8333,105.167 79.5,105.5C 78.1638,107.307 76.4971,108.807 74.5,110C 73.243,119.272 73.243,128.772 74.5,138.5C 75.3382,138.842 75.6716,139.508 75.5,140.5C 74.1667,140.833 74.1667,141.167 75.5,141.5C 75.8417,142.338 76.5084,142.672 77.5,142.5C 77.5,144.5 78.5,145.5 80.5,145.5C 82.1401,146.32 83.8068,147.153 85.5,148C 104.338,148.168 123.004,148.668 141.5,149.5C 140.761,149.369 140.094,149.536 139.5,150C 140.406,151.699 140.739,153.533 140.5,155.5C 140.167,155.5 139.833,155.5 139.5,155.5C 139.672,156.492 139.338,157.158 138.5,157.5C 137.653,158.966 136.32,159.8 134.5,160C 127.833,160.167 121.167,160.333 114.5,160.5C 97.6369,160.19 80.6369,160.023 63.5,160C 62.2625,159.768 61.2625,159.268 60.5,158.5C 61.8333,158.167 61.8333,157.833 60.5,157.5C 59.791,156.596 58.791,156.263 57.5,156.5C 57.5,155.5 57.5,154.5 57.5,153.5C 56.1667,117.5 56.1667,81.5 57.5,45.5C 57.2291,43.6203 57.8958,42.287 59.5,41.5C 60.0778,42.547 60.7445,42.3803 61.5,41C 61.2716,40.6012 60.9382,40.4346 60.5,40.5C 61.2625,39.7321 62.2625,39.2321 63.5,39C 82.9729,38.7197 102.306,38.553 121.5,38.5C 125.833,38.6667 130.167,38.8333 134.5,39C 136.32,39.2004 137.653,40.0337 138.5,41.5 Z M 148.5,48.5 C 149.598,49.397 149.598,50.2303 148.5,51C 149.167,51.3333 149.833,51.6667 150.5,52C 150.53,53.4293 150.197,54.9293 149.5,56.5C 148.167,56.8333 148.167,57.1667 149.5,57.5C 149.5,59.5 149.5,61.5 149.5,63.5C 148.761,63.631 148.094,63.4643 147.5,63C 147.254,58.1859 147.587,53.3525 148.5,48.5 Z M 162.5,109.5 C 166.067,110.068 168.401,112.068 169.5,115.5C 169.225,121.344 169.225,127.344 169.5,133.5C 169.155,136.198 167.822,138.198 165.5,139.5C 164.486,140.674 163.153,141.34 161.5,141.5C 160.596,140.791 160.263,139.791 160.5,138.5C 159.29,138.932 158.29,139.599 157.5,140.5C 157.167,140.5 156.833,140.5 156.5,140.5C 141.921,141.669 127.254,141.669 112.5,140.5C 104.523,140.801 96.1898,141.134 87.5,141.5C 87.1667,141.5 86.8333,141.5 86.5,141.5C 86.5,140.833 86.5,140.167 86.5,139.5C 85.8333,139.833 85.1667,140.167 84.5,140.5C 83.7101,139.206 82.7101,138.039 81.5,137C 82.056,136.617 82.3893,136.117 82.5,135.5C 81.179,132.402 80.5123,128.902 80.5,125C 80.5442,121.069 81.2109,117.402 82.5,114C 82.1667,113.667 81.8333,113.333 81.5,113C 82.7893,111.198 84.4559,110.031 86.5,109.5C 111.833,108.167 137.167,108.167 162.5,109.5 Z M 129.5,118.5 C 130.167,118.5 130.833,118.5 131.5,118.5C 131.5,118.833 131.5,119.167 131.5,119.5C 130.167,119.833 130.167,120.167 131.5,120.5C 131.5,120.833 131.5,121.167 131.5,121.5C 129.952,121.179 129.285,120.179 129.5,118.5 Z M 138.5,119.5 C 139.338,119.842 139.672,120.508 139.5,121.5C 138.833,121.5 138.167,121.5 137.5,121.5C 137.5,121.167 137.5,120.833 137.5,120.5C 138.167,120.5 138.5,120.167 138.5,119.5 Z M 139.5,121.5 C 141.104,122.287 141.771,123.62 141.5,125.5C 140.833,125.5 140.167,125.5 139.5,125.5C 139.672,124.508 139.338,123.842 138.5,123.5C 138.833,122.833 139.167,122.167 139.5,121.5 Z M 122.5,124.5 C 122.328,125.492 122.662,126.158 123.5,126.5C 122.377,127.757 121.711,127.424 121.5,125.5C 121.5,124.833 121.833,124.5 122.5,124.5 Z M 48.5,134.5 C 49.4663,139.672 49.4663,144.672 48.5,149.5C 48.4431,148.391 48.1098,147.391 47.5,146.5C 47.8222,144.525 47.8222,142.858 47.5,141.5C 48.3686,139.283 48.702,136.95 48.5,134.5 Z M 111.5,167.5 C 115.238,166.746 118.905,166.746 122.5,167.5C 118.983,168.62 115.316,168.62 111.5,167.5 Z"/></g>
<g><path style="opacity:1" fill="#fbfcfb" d="M 99.5,23.5 C 100.833,24.1667 100.833,24.1667 99.5,23.5 Z"/></g>
<g><path style="opacity:1" fill="#fafbfa" d="M 66.5,24.5 C 65.8333,25.1667 65.8333,25.1667 66.5,24.5 Z"/></g>
<g><path style="opacity:1" fill="#f7f8f7" d="M 69.5,24.5 C 69.5,24.8333 69.5,25.1667 69.5,25.5C 68.8299,25.0187 68.8299,24.6853 69.5,24.5 Z"/></g>
<g><path style="opacity:1" fill="#fafbfa" d="M 96.5,24.5 C 97.8333,25.1667 97.8333,25.1667 96.5,24.5 Z"/></g>
<g><path style="opacity:1" fill="#fafbfa" d="M 65.5,25.5 C 64.8333,26.1667 64.8333,26.1667 65.5,25.5 Z"/></g>
<g><path style="opacity:1" fill="#ebebeb" d="M 95.5,28.5 C 94.5084,28.6716 93.8417,28.3382 93.5,27.5C 94.0623,25.3345 94.729,25.6678 95.5,28.5 Z"/></g>
<g><path style="opacity:1" fill="#f9faf9" d="M 96.5,25.5 C 95.8333,26.1667 95.8333,26.1667 96.5,25.5 Z"/></g>
<g><path style="opacity:1" fill="#fbfcfb" d="M 63.5,28.5 C 62.475,28.1034 62.3083,27.4368 63,26.5C 63.4643,27.0944 63.631,27.7611 63.5,28.5 Z"/></g>
<g><path style="opacity:1" fill="#f9faf9" d="M 101.5,26.5 C 102.833,27.1667 102.833,27.1667 101.5,26.5 Z"/></g>
<g><path style="opacity:1" fill="#fafafa" d="M 65.5,29.5 C 64.8333,29.5 64.5,29.8333 64.5,30.5C 64.1667,30.5 63.8333,30.5 63.5,30.5C 63.5,29.8333 63.5,29.1667 63.5,28.5C 64.9245,26.9689 65.5912,27.3023 65.5,29.5 Z"/></g>
<g><path style="opacity:1" fill="#fbfbfb" d="M 99.5,29.5 C 99.8966,28.475 100.563,28.3083 101.5,29C 100.906,29.4643 100.239,29.631 99.5,29.5 Z"/></g>
<g><path style="opacity:1" fill="#f9f9f9" d="M 63.5,30.5 C 63.5,31.1667 63.8333,31.5 64.5,31.5C 64.1583,32.3382 63.4916,32.6716 62.5,32.5C 60.9689,31.0755 61.3023,30.4088 63.5,30.5 Z"/></g>
<g><path style="opacity:1" fill="#f9faf9" d="M 57.5,31.5 C 58.8333,32.1667 58.8333,32.1667 57.5,31.5 Z"/></g>
<g><path style="opacity:1" fill="#fafbfa" d="M 60.5,32.5 C 59.8333,31.1667 59.8333,31.1667 60.5,32.5 Z"/></g>
<g><path style="opacity:1" fill="#d0d0d0" d="M 84.5,30.5 C 85.9217,30.7086 87.255,31.2086 88.5,32C 87.552,32.4828 86.552,32.6495 85.5,32.5C 85.1667,31.8333 84.8333,31.1667 84.5,30.5 Z"/></g>
<g><path style="opacity:1" fill="#f9f9f9" d="M 139.5,32.5 C 139.897,31.475 140.563,31.3083 141.5,32C 140.906,32.4643 140.239,32.631 139.5,32.5 Z"/></g>
<g><path style="opacity:1" fill="#fbfcfb" d="M 144.5,31.5 C 145.833,32.1667 145.833,32.1667 144.5,31.5 Z"/></g>
<g><path style="opacity:1" fill="#f8f9f8" d="M 53.5,32.5 C 54.8333,33.1667 54.8333,33.1667 53.5,32.5 Z"/></g>
<g><path style="opacity:1" fill="#6d6d6d" d="M 102.5,31.5 C 112.519,31.7204 122.686,31.7204 133,31.5C 134.622,32.0989 136.122,32.7656 137.5,33.5C 126.495,33.6665 115.495,33.4998 104.5,33C 103.584,32.7216 102.918,32.2216 102.5,31.5 Z"/></g>
<g><path style="opacity:1" fill="#fafbfa" d="M 144.5,32.5 C 144.5,32.8333 144.5,33.1667 144.5,33.5C 143.83,33.0187 143.83,32.6853 144.5,32.5 Z"/></g>
<g><path style="opacity:1" fill="#f7f8f7" d="M 147.5,32.5 C 148.833,33.1667 148.833,33.1667 147.5,32.5 Z"/></g>
<g><path style="opacity:1" fill="#fafbfa" d="M 48.5,34.5 C 47.8333,33.1667 47.8333,33.1667 48.5,34.5 Z"/></g>
<g><path style="opacity:1" fill="#fafbfa" d="M 52.5,34.5 C 51.8333,33.1667 51.8333,33.1667 52.5,34.5 Z"/></g>
<g><path style="opacity:1" fill="#f9faf9" d="M 144.5,33.5 C 145.833,34.1667 145.833,34.1667 144.5,33.5 Z"/></g>
<g><path style="opacity:1" fill="#f7f8f7" d="M 48.5,34.5 C 49.1667,34.5 49.5,34.8333 49.5,35.5C 49.1667,35.1667 48.8333,34.8333 48.5,34.5 Z"/></g>
<g><path style="opacity:1" fill="#f9faf9" d="M 52.5,34.5 C 53.8333,35.1667 53.8333,35.1667 52.5,34.5 Z"/></g>
<g><path style="opacity:1" fill="#fafbfa" d="M 144.5,34.5 C 143.833,35.1667 143.833,35.1667 144.5,34.5 Z"/></g>
<g><path style="opacity:1" fill="#fbfcfb" d="M 148.5,35.5 C 147.833,34.1667 147.833,34.1667 148.5,35.5 Z"/></g>
<g><path style="opacity:1" fill="#fafbfa" d="M 49.5,35.5 C 50.8333,36.1667 50.8333,36.1667 49.5,35.5 Z"/></g>
<g><path style="opacity:1" fill="#f2f3f2" d="M 145.5,35.5 C 146.833,36.1667 146.833,36.1667 145.5,35.5 Z"/></g>
<g><path style="opacity:1" fill="#fafbfa" d="M 148.5,35.5 C 149.833,36.1667 149.833,36.1667 148.5,35.5 Z"/></g>
<g><path style="opacity:1" fill="#fbfcfb" d="M 48.5,37.5 C 47.8333,36.1667 47.8333,36.1667 48.5,37.5 Z"/></g>
<g><path style="opacity:1" fill="#fafafa" d="M 52.5,35.5 C 52.5,36.1667 52.5,36.8333 52.5,37.5C 51.1667,36.8333 51.1667,36.1667 52.5,35.5 Z"/></g>
<g><path style="opacity:1" fill="#f9faf9" d="M 145.5,36.5 C 144.833,37.1667 144.833,37.1667 145.5,36.5 Z"/></g>
<g><path style="opacity:1" fill="#7a7a7a" d="M 54.5,36.5 C 54.573,38.0269 53.9063,39.0269 52.5,39.5C 52.5,38.8333 52.5,38.1667 52.5,37.5C 53.1667,37.1667 53.8333,36.8333 54.5,36.5 Z"/></g>
<g><path style="opacity:1" fill="#fbfcfb" d="M 147.5,38.5 C 146.833,37.1667 146.833,37.1667 147.5,38.5 Z"/></g>
<g><path style="opacity:1" fill="#fbfbfb" d="M 148.5,38.5 C 149.167,37.1667 149.833,37.1667 150.5,38.5C 149.833,38.5 149.167,38.5 148.5,38.5 Z"/></g>
<g><path style="opacity:1" fill="#fbfcfb" d="M 150.5,38.5 C 151.833,39.1667 151.833,39.1667 150.5,38.5 Z"/></g>
<g><path style="opacity:1" fill="#f8f8f8" d="M 48.5,37.5 C 50.8418,38.2107 51.1751,39.544 49.5,41.5C 49.1254,40.2069 48.7921,38.8736 48.5,37.5 Z"/></g>
<g><path style="opacity:1" fill="#fafbfa" d="M 156.5,40.5 C 155.833,39.1667 155.833,39.1667 156.5,40.5 Z"/></g>
<g><path style="opacity:1" fill="#fafbfa" d="M 158.5,39.5 C 159.833,40.1667 159.833,40.1667 158.5,39.5 Z"/></g>
<g><path style="opacity:1" fill="#fafbfa" d="M 150.5,40.5 C 151.833,41.1667 151.833,41.1667 150.5,40.5 Z"/></g>
<g><path style="opacity:1" fill="#f8f9f8" d="M 152.5,40.5 C 153.833,41.1667 153.833,41.1667 152.5,40.5 Z"/></g>
<g><path style="opacity:1" fill="#f9faf9" d="M 156.5,40.5 C 157.167,40.5 157.5,40.8333 157.5,41.5C 157.167,41.1667 156.833,40.8333 156.5,40.5 Z"/></g>
<g><path style="opacity:1" fill="#f7f8f7" d="M 155.5,42.5 C 154.833,41.1667 154.833,41.1667 155.5,42.5 Z"/></g>
<g><path style="opacity:1" fill="#fbfbfb" d="M 157.5,41.5 C 158.239,41.369 158.906,41.5357 159.5,42C 158.563,42.6917 157.897,42.525 157.5,41.5 Z"/></g>
<g><path style="opacity:1" fill="#fbfcfb" d="M 152.5,42.5 C 153.833,43.1667 153.833,43.1667 152.5,42.5 Z"/></g>
<g><path style="opacity:1" fill="#f9faf9" d="M 155.5,42.5 C 156.833,43.1667 156.833,43.1667 155.5,42.5 Z"/></g>
<g><path style="opacity:1" fill="#f2f2f2" d="M 49.5,41.5 C 50.1667,41.5 50.8333,41.5 51.5,41.5C 51.1667,42.1667 50.8333,42.8333 50.5,43.5C 48.3227,44.5042 47.9893,43.8375 49.5,41.5 Z"/></g>
<g><path style="opacity:1" fill="#f8f9f8" d="M 155.5,43.5 C 154.833,44.1667 154.833,44.1667 155.5,43.5 Z"/></g>
<g><path style="opacity:1" fill="#fafbfa" d="M 157.5,44.5 C 158.833,45.1667 158.833,45.1667 157.5,44.5 Z"/></g>
<g><path style="opacity:1" fill="#fafafa" d="M 156.5,49.5 C 156.783,48.7109 157.283,48.0442 158,47.5C 159.365,48.5929 159.699,49.9262 159,51.5C 158.583,50.244 157.75,49.5774 156.5,49.5 Z"/></g>
<g><path style="opacity:1" fill="#fafafa" d="M 68.5,50.5 C 67.8333,50.1667 67.1667,49.8333 66.5,49.5C 66.6964,47.3544 67.6964,47.1878 69.5,49C 68.944,49.3826 68.6107,49.8826 68.5,50.5 Z"/></g>
<g><path style="opacity:1" fill="#555555" d="M 127.5,50.5 C 127.5,50.8333 127.5,51.1667 127.5,51.5C 108.5,51.5 89.5,51.5 70.5,51.5C 87.9022,50.827 105.402,50.1603 123,49.5C 124.356,50.3802 125.856,50.7135 127.5,50.5 Z"/></g>
<g><path style="opacity:1" fill="#fbfbfb" d="M 67.5,52.5 C 66.9232,53.7733 66.2565,53.7733 65.5,52.5C 65.9698,51.537 66.6365,51.537 67.5,52.5 Z"/></g>
<g><path style="opacity:1" fill="#060606" d="M 69.5,51.5 C 69.8333,51.5 70.1667,51.5 70.5,51.5C 89.5,51.5 108.5,51.5 127.5,51.5C 128.167,52.5 128.833,53.5 129.5,54.5C 128.71,55.4013 127.71,56.0679 126.5,56.5C 107.833,56.5 89.1667,56.5 70.5,56.5C 70.1667,56.5 69.8333,56.5 69.5,56.5C 69.6716,55.5084 69.3382,54.8417 68.5,54.5C 68.5,53.8333 68.5,53.1667 68.5,52.5C 69.1667,52.5 69.5,52.1667 69.5,51.5 Z"/></g>
<g><path style="opacity:1" fill="#424242" d="M 148.5,48.5 C 147.587,53.3525 147.254,58.1859 147.5,63C 148.094,63.4643 148.761,63.631 149.5,63.5C 149.737,64.791 149.404,65.791 148.5,66.5C 147.367,64.9786 147.367,65.6453 148.5,68.5C 148.762,69.9778 148.429,71.3112 147.5,72.5C 146.167,64.1667 146.167,55.8333 147.5,47.5C 148.107,47.6236 148.44,47.9569 148.5,48.5 Z"/></g>
<g><path style="opacity:1" fill="#d4d4d4" d="M 50.5,45.5 C 50.8301,63.3412 50.4967,81.0079 49.5,98.5C 49.813,81.2296 49.4797,63.7296 48.5,46C 49.0944,45.5357 49.7611,45.369 50.5,45.5 Z"/></g>
<g><path style="opacity:1" fill="#dbdbdb" d="M 70.5,56.5 C 89.1667,56.5 107.833,56.5 126.5,56.5C 126.217,57.2891 125.717,57.9558 125,58.5C 106.736,57.8395 88.5688,57.1728 70.5,56.5 Z"/></g>
<g><path style="opacity:1" fill="#efefef" d="M 156.5,52.5 C 159.408,53.1593 159.742,53.9926 157.5,55C 158.056,55.3826 158.389,55.8826 158.5,56.5C 157.833,56.5 157.5,56.8333 157.5,57.5C 157.167,57.5 156.833,57.5 156.5,57.5C 156.5,55.8333 156.5,54.1667 156.5,52.5 Z"/></g>
<g><path style="opacity:1" fill="#f9faf9" d="M 158.5,56.5 C 159.833,57.1667 159.833,57.1667 158.5,56.5 Z"/></g>
<g><path style="opacity:1" fill="#fbfbfb" d="M 157.5,57.5 C 157.833,57.5 158.167,57.5 158.5,57.5C 158.167,60.1667 157.833,60.1667 157.5,57.5 Z"/></g>
<g><path style="opacity:1" fill="#fbfcfb" d="M 157.5,63.5 C 158.833,64.1667 158.833,64.1667 157.5,63.5 Z"/></g>
<g><path style="opacity:1" fill="#fafbfa" d="M 157.5,65.5 C 158.833,66.1667 158.833,66.1667 157.5,65.5 Z"/></g>
<g><path style="opacity:1" fill="#d6d6d6" d="M 125.5,65.5 C 126.167,65.5 126.833,65.5 127.5,65.5C 127.5,66.1667 127.5,66.8333 127.5,67.5C 108.5,67.5 89.5,67.5 70.5,67.5C 88.8333,66.8333 107.167,66.1667 125.5,65.5 Z"/></g>
<g><path style="opacity:1" fill="#e1e1e1" d="M 70.5,67.5 C 69.7659,68.7079 69.4326,70.0413 69.5,71.5C 69.1667,71.5 68.8333,71.5 68.5,71.5C 68.1568,69.5168 68.8235,68.1834 70.5,67.5 Z"/></g>
<g><path style="opacity:1" fill="#030303" d="M 70.5,67.5 C 89.5,67.5 108.5,67.5 127.5,67.5C 127.328,68.4916 127.662,69.1583 128.5,69.5C 129.815,70.8946 129.481,71.8946 127.5,72.5C 108.5,72.5 89.5,72.5 70.5,72.5C 69.8333,72.5 69.5,72.1667 69.5,71.5C 69.4326,70.0413 69.7659,68.7079 70.5,67.5 Z"/></g>
<g><path style="opacity:1" fill="#9f9f9f" d="M 127.5,67.5 C 127.833,67.5 128.167,67.5 128.5,67.5C 128.833,68.8333 129.167,68.8333 129.5,67.5C 130.338,67.8417 130.672,68.5084 130.5,69.5C 129.833,69.5 129.167,69.5 128.5,69.5C 127.662,69.1583 127.328,68.4916 127.5,67.5 Z"/></g>
<g><path style="opacity:1" fill="#f7f8f7" d="M 157.5,68.5 C 158.833,69.1667 158.833,69.1667 157.5,68.5 Z"/></g>
<g><path style="opacity:1" fill="#fafbfa" d="M 157.5,69.5 C 157.5,69.8333 157.5,70.1667 157.5,70.5C 156.83,70.0187 156.83,69.6853 157.5,69.5 Z"/></g>
<g><path style="opacity:1" fill="#cccccc" d="M 154.5,68.5 C 154.414,69.4959 154.748,70.3292 155.5,71C 154.906,71.4643 154.239,71.631 153.5,71.5C 153.263,70.209 153.596,69.209 154.5,68.5 Z"/></g>
<g><path style="opacity:1" fill="#fbfcfb" d="M 157.5,70.5 C 158.833,71.1667 158.833,71.1667 157.5,70.5 Z"/></g>
<g><path style="opacity:1" fill="#a9a9a9" d="M 70.5,73.5 C 70.5,73.1667 70.5,72.8333 70.5,72.5C 89.5,72.5 108.5,72.5 127.5,72.5C 127.217,73.2891 126.717,73.9558 126,74.5C 107.576,73.5075 89.0765,73.1741 70.5,73.5 Z"/></g>
<g><path style="opacity:1" fill="#cccccc" d="M 153.5,73.5 C 155.078,75.3747 154.745,76.7081 152.5,77.5C 152.232,75.901 152.566,74.5676 153.5,73.5 Z"/></g>
<g><path style="opacity:1" fill="#fbfbfb" d="M 122.5,79.5 C 122.289,81.4241 121.623,81.7574 120.5,80.5C 121.167,80.1667 121.833,79.8333 122.5,79.5 Z"/></g>
<g><path style="opacity:1" fill="#fbfcfb" d="M 157.5,79.5 C 158.833,80.1667 158.833,80.1667 157.5,79.5 Z"/></g>
<g><path style="opacity:1" fill="#0e0e0e" d="M 124.5,82.5 C 128.558,83.7486 129.558,85.9152 127.5,89C 125.236,89.2362 123.069,89.7362 121,90.5C 103.91,89.5081 86.7437,89.1747 69.5,89.5C 69.5,88.8333 69.5,88.1667 69.5,87.5C 69.5,86.8333 69.5,86.1667 69.5,85.5C 69.5,84.8333 69.5,84.1667 69.5,83.5C 88.1049,83.8352 106.438,83.5019 124.5,82.5 Z"/></g>
<g><path style="opacity:1" fill="#e4e4e4" d="M 69.5,85.5 C 69.5,86.1667 69.5,86.8333 69.5,87.5C 65.7139,86.3047 65.7139,85.638 69.5,85.5 Z"/></g>
<g><path style="opacity:1" fill="#fafafa" d="M 68.5,89.5 C 67.8333,89.5 67.1667,89.5 66.5,89.5C 66.7856,87.0673 67.4523,87.0673 68.5,89.5 Z"/></g>
<g><path style="opacity:1" fill="#fbfbfb" d="M 66.5,89.5 C 66.8417,90.3382 67.5084,90.6716 68.5,90.5C 68.5,90.8333 68.5,91.1667 68.5,91.5C 67.325,91.719 66.325,91.3857 65.5,90.5C 65.6236,89.8933 65.9569,89.56 66.5,89.5 Z"/></g>
<g><path style="opacity:1" fill="#fbfcfb" d="M 150.5,92.5 C 151.833,93.1667 151.833,93.1667 150.5,92.5 Z"/></g>
<g><path style="opacity:1" fill="#fbfcfb" d="M 163.5,97.5 C 164.833,98.1667 164.833,98.1667 163.5,97.5 Z"/></g>
<g><path style="opacity:1" fill="#fbfcfb" d="M 160.5,98.5 C 161.833,99.1667 161.833,99.1667 160.5,98.5 Z"/></g>
<g><path style="opacity:1" fill="#fafbfa" d="M 165.5,98.5 C 166.833,99.1667 166.833,99.1667 165.5,98.5 Z"/></g>
<g><path style="opacity:1" fill="#f8f8f8" d="M 81.5,103.5 C 80.8333,103.5 80.5,103.833 80.5,104.5C 80.1667,104.5 79.8333,104.5 79.5,104.5C 79.3453,101.147 80.0119,100.814 81.5,103.5 Z"/></g>
<g><path style="opacity:1" fill="#e1e1e1" d="M 140.5,44.5 C 141.497,63.6595 141.83,82.9928 141.5,102.5C 122.833,102.5 104.167,102.5 85.5,102.5C 102.902,101.827 120.402,101.16 138,100.5C 138.414,100.957 138.914,101.291 139.5,101.5C 140.5,82.5117 140.833,63.5117 140.5,44.5 Z"/></g>
<g><path style="opacity:1" fill="#d7d7d7" d="M 148.5,99.5 C 148.369,100.239 148.536,100.906 149,101.5C 151.294,101.048 153.794,101.048 156.5,101.5C 158.964,101.41 161.13,100.743 163,99.5C 163.483,100.448 163.649,101.448 163.5,102.5C 158.167,102.5 152.833,102.5 147.5,102.5C 147.263,101.209 147.596,100.209 148.5,99.5 Z"/></g>
<g><path style="opacity:1" fill="#cbcbcb" d="M 166.5,103.5 C 165.508,103.672 164.842,103.338 164.5,102.5C 165.327,101.561 165.994,101.895 166.5,103.5 Z"/></g>
<g><path style="opacity:1" fill="#fbfbfb" d="M 43.5,104.5 C 43.8966,103.475 44.5632,103.308 45.5,104C 44.9056,104.464 44.2389,104.631 43.5,104.5 Z"/></g>
<g><path style="opacity:1" fill="#e7e7e7" d="M 170.5,105.5 C 169.508,105.672 168.842,105.338 168.5,104.5C 169.925,102.969 170.591,103.302 170.5,105.5 Z"/></g>
<g><path style="opacity:1" fill="#fbfcfb" d="M 173.5,105.5 C 172.833,104.167 172.833,104.167 173.5,105.5 Z"/></g>
<g><path style="opacity:1" fill="#fbfcfb" d="M 173.5,105.5 C 174.338,105.842 174.672,106.508 174.5,107.5C 173.662,107.158 173.328,106.492 173.5,105.5 Z"/></g>
<g><path style="opacity:1" fill="#fbfcfb" d="M 45.5,106.5 C 46.8333,107.167 46.8333,107.167 45.5,106.5 Z"/></g>
<g><path style="opacity:1" fill="#fafbfa" d="M 174.5,107.5 C 175.833,108.167 175.833,108.167 174.5,107.5 Z"/></g>
<g><path style="opacity:1" fill="#a6a6a6" d="M 48.5,104.5 C 48.5797,107.781 47.913,110.781 46.5,113.5C 46.0618,113.565 45.7284,113.399 45.5,113C 46.4371,110.051 47.4371,107.217 48.5,104.5 Z"/></g>
<g><path style="opacity:1" fill="#fbfcfb" d="M 42.5,113.5 C 43.8333,114.167 43.8333,114.167 42.5,113.5 Z"/></g>
<g><path style="opacity:1" fill="#686868" d="M 91.5,114.5 C 91.5,114.167 91.5,113.833 91.5,113.5C 98.5,113.5 105.5,113.5 112.5,113.5C 113.071,115.36 113.071,117.027 112.5,118.5C 111.566,117.432 111.232,116.099 111.5,114.5C 104.833,114.5 98.1667,114.5 91.5,114.5 Z"/></g>
<g><path style="opacity:1" fill="#9c9c9c" d="M 127.5,113.5 C 127.5,114.167 127.833,114.5 128.5,114.5C 128.5,115.5 128.5,116.5 128.5,117.5C 125.842,114.35 122.509,113.683 118.5,115.5C 118.5,114.833 118.5,114.167 118.5,113.5C 121.741,112.927 124.741,112.927 127.5,113.5 Z"/></g>
<g><path style="opacity:1" fill="#929292" d="M 137.5,112.5 C 140.312,112.767 142.645,113.767 144.5,115.5C 141.927,114.445 139.261,114.278 136.5,115C 137.056,115.383 137.389,115.883 137.5,116.5C 136.503,116.53 135.836,116.03 135.5,115C 136.056,113.989 136.722,113.156 137.5,112.5 Z"/></g>
<g><path style="opacity:1" fill="#858585" d="M 158.5,115.5 C 158.167,115.5 157.833,115.5 157.5,115.5C 155.393,114.532 153.059,114.198 150.5,114.5C 151.172,113.733 152.005,113.066 153,112.5C 155.069,113.264 157.236,113.764 159.5,114C 158.944,114.383 158.611,114.883 158.5,115.5 Z"/></g>
<g><path style="opacity:1" fill="#d4d4d4" d="M 90.5,112.5 C 91.1667,112.5 91.5,112.833 91.5,113.5C 91.5,113.833 91.5,114.167 91.5,114.5C 91.5,116.167 91.5,117.833 91.5,119.5C 90.0179,117.264 89.6846,114.931 90.5,112.5 Z"/></g>
<g><path style="opacity:1" fill="#0d0d0d" d="M 91.5,114.5 C 98.1667,114.5 104.833,114.5 111.5,114.5C 111.232,116.099 111.566,117.432 112.5,118.5C 110.393,119.468 108.059,119.802 105.5,119.5C 104.512,124.64 104.179,129.974 104.5,135.5C 102.5,135.5 100.5,135.5 98.5,135.5C 98.5,133.167 98.5,130.833 98.5,128.5C 97.5975,125.609 97.2641,122.609 97.5,119.5C 95.5,119.5 93.5,119.5 91.5,119.5C 91.5,117.833 91.5,116.167 91.5,114.5 Z"/></g>
<g><path style="opacity:1" fill="#141414" d="M 128.5,117.5 C 128.5,118.167 128.833,118.5 129.5,118.5C 129.285,120.179 129.952,121.179 131.5,121.5C 130.375,122.652 130.375,123.652 131.5,124.5C 131.796,126.403 132.463,128.07 133.5,129.5C 133.5,130.167 133.5,130.833 133.5,131.5C 133.328,132.492 133.662,133.158 134.5,133.5C 134.5,133.833 134.5,134.167 134.5,134.5C 132.393,135.468 130.059,135.802 127.5,135.5C 127.5,135.167 127.5,134.833 127.5,134.5C 126.486,133.235 124.986,132.569 123,132.5C 121.014,132.569 119.514,133.235 118.5,134.5C 118.5,134.833 118.5,135.167 118.5,135.5C 115.612,136.01 113.279,135.344 111.5,133.5C 112.674,132.486 113.34,131.153 113.5,129.5C 113.5,128.833 113.5,128.167 113.5,127.5C 115.072,124.785 116.072,121.785 116.5,118.5C 117.401,117.71 118.068,116.71 118.5,115.5C 122.509,113.683 125.842,114.35 128.5,117.5 Z M 122.5,124.5 C 122.328,125.492 122.662,126.158 123.5,126.5C 122.377,127.757 121.711,127.424 121.5,125.5C 121.5,124.833 121.833,124.5 122.5,124.5 Z"/></g>
<g><path style="opacity:1" fill="#1b1b1b" d="M 144.5,115.5 C 145.167,116.167 145.833,116.833 146.5,117.5C 146.369,118.239 146.536,118.906 147,119.5C 148.176,117.804 149.343,116.138 150.5,114.5C 153.059,114.198 155.393,114.532 157.5,115.5C 157.5,115.833 157.5,116.167 157.5,116.5C 156.094,116.973 155.427,117.973 155.5,119.5C 154.402,120.397 154.402,121.23 155.5,122C 154.584,122.278 153.918,122.778 153.5,123.5C 152.957,123.56 152.624,123.893 152.5,124.5C 153.513,126.527 154.513,128.527 155.5,130.5C 155.932,131.71 156.599,132.71 157.5,133.5C 157.833,133.5 158.167,133.5 158.5,133.5C 158.804,134.15 159.137,134.817 159.5,135.5C 156.914,136.48 154.247,136.813 151.5,136.5C 151.068,135.29 150.401,134.29 149.5,133.5C 149.167,132.5 148.5,131.833 147.5,131.5C 147.5,130.833 147.167,130.5 146.5,130.5C 145.662,130.842 145.328,131.508 145.5,132.5C 145.5,132.833 145.5,133.167 145.5,133.5C 144.662,133.842 144.328,134.508 144.5,135.5C 144.167,135.5 143.833,135.5 143.5,135.5C 140.612,136.01 138.279,135.344 136.5,133.5C 136.5,133.167 136.5,132.833 136.5,132.5C 137.338,132.158 137.672,131.492 137.5,130.5C 137.833,130.5 138.167,130.5 138.5,130.5C 139.906,130.027 140.573,129.027 140.5,127.5C 141.338,127.158 141.672,126.492 141.5,125.5C 141.771,123.62 141.104,122.287 139.5,121.5C 139.672,120.508 139.338,119.842 138.5,119.5C 138.5,118.833 138.167,118.5 137.5,118.5C 137.5,117.833 137.5,117.167 137.5,116.5C 137.389,115.883 137.056,115.383 136.5,115C 139.261,114.278 141.927,114.445 144.5,115.5 Z"/></g>
<g><path style="opacity:1" fill="#fafafa" d="M 115.5,114.5 C 116.239,114.369 116.906,114.536 117.5,115C 116.663,116.011 116.33,117.178 116.5,118.5C 114.255,117.708 113.922,116.375 115.5,114.5 Z"/></g>
<g><path style="opacity:1" fill="#fafafa" d="M 131.5,117.5 C 131.5,117.833 131.5,118.167 131.5,118.5C 130.833,118.5 130.167,118.5 129.5,118.5C 129.409,116.302 130.075,115.969 131.5,117.5 Z"/></g>
<g><path style="opacity:1" fill="#fafafa" d="M 136.5,118.5 C 135.637,119.463 134.97,119.463 134.5,118.5C 135.257,117.227 135.923,117.227 136.5,118.5 Z"/></g>
<g><path style="opacity:1" fill="#f0f0f0" d="M 158.5,115.5 C 159.598,116.601 159.765,117.934 159,119.5C 157.855,118.316 156.688,118.316 155.5,119.5C 155.427,117.973 156.094,116.973 157.5,116.5C 158.206,117.557 158.539,117.224 158.5,115.5 Z"/></g>
<g><path style="opacity:1" fill="#757575" d="M 169.5,115.5 C 170.833,121.5 170.833,127.5 169.5,133.5C 169.225,127.344 169.225,121.344 169.5,115.5 Z"/></g>
<g><path style="opacity:1" fill="#fafbfa" d="M 40.5,120.5 C 41.8333,121.167 41.8333,121.167 40.5,120.5 Z"/></g>
<g><path style="opacity:1" fill="#fbfbfb" d="M 113.5,127.5 C 111.235,126.06 111.068,124.393 113,122.5C 113.494,124.134 113.66,125.801 113.5,127.5 Z"/></g>
<g><path style="opacity:1" fill="#f9f9f9" d="M 137.5,121.5 C 138.167,121.5 138.833,121.5 139.5,121.5C 139.167,122.167 138.833,122.833 138.5,123.5C 137.662,123.158 137.328,122.492 137.5,121.5 Z"/></g>
<g><path style="opacity:1" fill="#fafbfa" d="M 40.5,123.5 C 41.8333,124.167 41.8333,124.167 40.5,123.5 Z"/></g>
<g><path style="opacity:1" fill="#f9faf9" d="M 42.5,123.5 C 43.8333,124.167 43.8333,124.167 42.5,123.5 Z"/></g>
<g><path style="opacity:1" fill="#7c7c7c" d="M 105.5,119.5 C 105.697,124.68 105.697,129.68 105.5,134.5C 105.672,135.492 105.338,136.158 104.5,136.5C 102.167,136.5 99.8333,136.5 97.5,136.5C 97.1936,133.615 97.5269,130.948 98.5,128.5C 98.5,130.833 98.5,133.167 98.5,135.5C 100.5,135.5 102.5,135.5 104.5,135.5C 104.179,129.974 104.512,124.64 105.5,119.5 Z"/></g>
<g><path style="opacity:1" fill="#fbfcfb" d="M 40.5,124.5 C 39.8333,125.167 39.8333,125.167 40.5,124.5 Z"/></g>
<g><path style="opacity:1" fill="#e8e8e8" d="M 139.5,125.5 C 140.167,125.5 140.833,125.5 141.5,125.5C 141.672,126.492 141.338,127.158 140.5,127.5C 140.167,126.833 139.833,126.167 139.5,125.5 Z"/></g>
<g><path style="opacity:1" fill="#f9faf9" d="M 40.5,127.5 C 41.525,127.897 41.6917,128.563 41,129.5C 40.5357,128.906 40.369,128.239 40.5,127.5 Z"/></g>
<g><path style="opacity:1" fill="#777777" d="M 121.5,125.5 C 121.711,127.424 122.377,127.757 123.5,126.5C 124.167,126.5 124.5,126.167 124.5,125.5C 125.404,126.209 125.737,127.209 125.5,128.5C 123.833,128.5 122.167,128.5 120.5,128.5C 120.263,127.209 120.596,126.209 121.5,125.5 Z"/></g>
<g><path style="opacity:1" fill="#d8d8d8" d="M 140.5,127.5 C 140.573,129.027 139.906,130.027 138.5,130.5C 138.167,129.167 137.833,129.167 137.5,130.5C 136.957,130.44 136.624,130.107 136.5,129.5C 137.766,128.638 139.099,127.971 140.5,127.5 Z"/></g>
<g><path style="opacity:1" fill="#fbfcfb" d="M 39.5,130.5 C 40.8333,131.167 40.8333,131.167 39.5,130.5 Z"/></g>
<g><path style="opacity:1" fill="#d3d3d3" d="M 155.5,130.5 C 157.048,130.821 157.715,131.821 157.5,133.5C 156.599,132.71 155.932,131.71 155.5,130.5 Z"/></g>
<g><path style="opacity:1" fill="#d3d3d3" d="M 113.5,129.5 C 113.34,131.153 112.674,132.486 111.5,133.5C 110.571,131.678 111.238,130.345 113.5,129.5 Z"/></g>
<g><path style="opacity:1" fill="#e2e2e2" d="M 146.5,130.5 C 147.167,130.5 147.5,130.833 147.5,131.5C 147.158,132.338 146.492,132.672 145.5,132.5C 145.328,131.508 145.662,130.842 146.5,130.5 Z"/></g>
<g><path style="opacity:1" fill="#d9d9d9" d="M 127.5,134.5 C 124.5,133.167 121.5,133.167 118.5,134.5C 119.514,133.235 121.014,132.569 123,132.5C 124.986,132.569 126.486,133.235 127.5,134.5 Z"/></g>
<g><path style="opacity:1" fill="#c9c9c9" d="M 133.5,131.5 C 133.833,131.5 134.167,131.5 134.5,131.5C 134.833,132.167 135.167,132.833 135.5,133.5C 135.167,133.5 134.833,133.5 134.5,133.5C 133.662,133.158 133.328,132.492 133.5,131.5 Z"/></g>
<g><path style="opacity:1" fill="#f9faf9" d="M 41.5,134.5 C 40.8333,133.167 40.8333,133.167 41.5,134.5 Z"/></g>
<g><path style="opacity:1" fill="#dfdfdf" d="M 149.5,133.5 C 150.401,134.29 151.068,135.29 151.5,136.5C 150.833,136.5 150.167,136.5 149.5,136.5C 149.5,135.5 149.5,134.5 149.5,133.5 Z"/></g>
<g><path style="opacity:1" fill="#6d6d6d" d="M 111.5,133.5 C 113.279,135.344 115.612,136.01 118.5,135.5C 118.5,135.833 118.5,136.167 118.5,136.5C 115.833,136.5 113.167,136.5 110.5,136.5C 110.263,135.209 110.596,134.209 111.5,133.5 Z"/></g>
<g><path style="opacity:1" fill="#626262" d="M 135.5,133.5 C 135.833,133.5 136.167,133.5 136.5,133.5C 138.279,135.344 140.612,136.01 143.5,135.5C 143.5,135.833 143.5,136.167 143.5,136.5C 140.552,136.223 137.719,136.556 135,137.5C 132.393,136.877 129.893,136.21 127.5,135.5C 130.059,135.802 132.393,135.468 134.5,134.5C 135.167,134.5 135.5,134.167 135.5,133.5 Z"/></g>
<g><path style="opacity:1" fill="#fafafa" d="M 144.5,135.5 C 145.338,135.842 145.672,136.508 145.5,137.5C 144.833,137.5 144.167,137.5 143.5,137.5C 143.5,137.167 143.5,136.833 143.5,136.5C 144.167,136.5 144.5,136.167 144.5,135.5 Z"/></g>
<g><path style="opacity:1" fill="#fafbfa" d="M 40.5,137.5 C 39.8333,136.167 39.8333,136.167 40.5,137.5 Z"/></g>
<g><path style="opacity:1" fill="#fafafa" d="M 86.5,138.5 C 84.9719,138.483 84.4719,137.816 85,136.5C 85.7172,137.044 86.2172,137.711 86.5,138.5 Z"/></g>
<g><path style="opacity:1" fill="#f9f9f9" d="M 105.5,134.5 C 106.776,135.386 106.776,136.386 105.5,137.5C 104.893,137.376 104.56,137.043 104.5,136.5C 105.338,136.158 105.672,135.492 105.5,134.5 Z"/></g>
<g><path style="opacity:1" fill="#a1a1a1" d="M 41.5,134.5 C 41.8333,134.5 42.1667,134.5 42.5,134.5C 42.7845,136.415 42.4511,138.081 41.5,139.5C 40.6618,139.158 40.3284,138.492 40.5,137.5C 41.404,136.791 41.7373,135.791 41.5,134.5 Z"/></g>
<g><path style="opacity:1" fill="#fbfbfb" d="M 112.5,138.5 C 112.5,139.167 112.5,139.833 112.5,140.5C 110.067,139.452 110.067,138.786 112.5,138.5 Z"/></g>
<g><path style="opacity:1" fill="#c9c9c9" d="M 86.5,139.5 C 86.5,140.167 86.5,140.833 86.5,141.5C 85.5084,141.672 84.8417,141.338 84.5,140.5C 85.1667,140.167 85.8333,139.833 86.5,139.5 Z"/></g>
<g><path style="opacity:1" fill="#dcdcdc" d="M 174.5,139.5 C 174.938,139.435 175.272,139.601 175.5,140C 174.756,141.039 173.756,141.539 172.5,141.5C 172.833,140.5 173.5,139.833 174.5,139.5 Z"/></g>
<g><path style="opacity:1" fill="#dcdcdc" d="M 50.5,130.5 C 50.6663,137.508 50.4996,144.508 50,151.5C 49.2828,150.956 48.7828,150.289 48.5,149.5C 49.4663,144.672 49.4663,139.672 48.5,134.5C 48.1568,132.517 48.8235,131.183 50.5,130.5 Z"/></g>
<g><path style="opacity:1" fill="#dcdcdc" d="M 160.5,138.5 C 160.263,139.791 160.596,140.791 161.5,141.5C 136.833,142.833 112.167,142.833 87.5,141.5C 96.1898,141.134 104.523,140.801 112.5,140.5C 127.254,141.669 141.921,141.669 156.5,140.5C 156.833,140.5 157.167,140.5 157.5,140.5C 158.29,139.599 159.29,138.932 160.5,138.5 Z"/></g>
<g><path style="opacity:1" fill="#bdbdbd" d="M 41.5,140.5 C 41.5,143.167 41.5,145.833 41.5,148.5C 40.7611,148.631 40.0944,148.464 39.5,148C 40.1233,145.393 40.79,142.893 41.5,140.5 Z"/></g>
<g><path style="opacity:1" fill="#bebebe" d="M 47.5,141.5 C 47.8222,142.858 47.8222,144.525 47.5,146.5C 46.1667,144.833 46.1667,143.167 47.5,141.5 Z"/></g>
<g><path style="opacity:1" fill="#f5f5f5" d="M 77.5,142.5 C 78.8333,143.167 79.8333,144.167 80.5,145.5C 78.5,145.5 77.5,144.5 77.5,142.5 Z"/></g>
<g><path style="opacity:1" fill="#fafbfa" d="M 171.5,144.5 C 172.833,145.167 172.833,145.167 171.5,144.5 Z"/></g>
<g><path style="opacity:1" fill="#fbfcfb" d="M 173.5,144.5 C 174.833,145.167 174.833,145.167 173.5,144.5 Z"/></g>
<g><path style="opacity:1" fill="#fafafa" d="M 169.5,145.5 C 170.167,145.5 170.833,145.5 171.5,145.5C 170.833,146.833 170.167,146.833 169.5,145.5 Z"/></g>
<g><path style="opacity:1" fill="#fbfbfb" d="M 82.5,149.5 C 79.9991,149.489 79.8324,148.822 82,147.5C 82.4643,148.094 82.631,148.761 82.5,149.5 Z"/></g>
<g><path style="opacity:1" fill="#b1b1b1" d="M 147.5,148.5 C 152.975,147.511 158.642,147.178 164.5,147.5C 164.5,147.833 164.5,148.167 164.5,148.5C 161.494,149.105 158.327,149.105 155,148.5C 153.167,148.833 151.333,149.167 149.5,149.5C 150.609,151.214 149.942,151.881 147.5,151.5C 147.5,151.167 147.5,150.833 147.5,150.5C 148.833,149.833 148.833,149.167 147.5,148.5 Z"/></g>
<g><path style="opacity:1" fill="#f9faf9" d="M 173.5,147.5 C 174.833,148.167 174.833,148.167 173.5,147.5 Z"/></g>
<g><path style="opacity:1" fill="#f5f5f5" d="M 166.5,146.5 C 167.167,146.5 167.5,146.833 167.5,147.5C 167.167,148.167 166.833,148.833 166.5,149.5C 165.833,149.5 165.167,149.5 164.5,149.5C 164.5,149.167 164.5,148.833 164.5,148.5C 165.167,148.5 165.5,148.167 165.5,147.5C 165.5,146.833 165.833,146.5 166.5,146.5 Z"/></g>
<g><path style="opacity:1" fill="#fbfcfb" d="M 173.5,148.5 C 173.5,148.833 173.5,149.167 173.5,149.5C 172.83,149.019 172.83,148.685 173.5,148.5 Z"/></g>
<g><path style="opacity:1" fill="#d2d2d2" d="M 41.5,149.5 C 42.3382,149.842 42.6716,150.508 42.5,151.5C 40.8946,150.994 40.5613,150.327 41.5,149.5 Z"/></g>
<g><path style="opacity:1" fill="#d9d9d9" d="M 141.5,149.5 C 141.795,151.735 141.461,153.735 140.5,155.5C 140.739,153.533 140.406,151.699 139.5,150C 140.094,149.536 140.761,149.369 141.5,149.5 Z"/></g>
<g><path style="opacity:1" fill="#fbfcfb" d="M 164.5,149.5 C 163.833,150.167 163.833,150.167 164.5,149.5 Z"/></g>
<g><path style="opacity:1" fill="#fafafa" d="M 166.5,149.5 C 167.492,149.328 168.158,149.662 168.5,150.5C 167.508,150.672 166.842,150.338 166.5,149.5 Z"/></g>
<g><path style="opacity:1" fill="#fbfcfb" d="M 173.5,149.5 C 174.833,150.167 174.833,150.167 173.5,149.5 Z"/></g>
<g><path style="opacity:1" fill="#fafbfa" d="M 168.5,150.5 C 169.833,151.167 169.833,151.167 168.5,150.5 Z"/></g>
<g><path style="opacity:1" fill="#fbfcfb" d="M 39.5,152.5 C 40.8333,153.167 40.8333,153.167 39.5,152.5 Z"/></g>
<g><path style="opacity:1" fill="#fafbfa" d="M 40.5,154.5 C 41.8333,155.167 41.8333,155.167 40.5,154.5 Z"/></g>
<g><path style="opacity:1" fill="#fbfcfb" d="M 149.5,155.5 C 150.833,156.167 150.833,156.167 149.5,155.5 Z"/></g>
<g><path style="opacity:1" fill="#f9f9f9" d="M 45.5,155.5 C 46.1667,155.5 46.5,155.833 46.5,156.5C 46.5,156.833 46.5,157.167 46.5,157.5C 45.5084,157.328 44.8417,157.662 44.5,158.5C 43.9569,158.44 43.6236,158.107 43.5,157.5C 44.2427,156.818 44.9094,156.151 45.5,155.5 Z"/></g>
<g><path style="opacity:1" fill="#dedede" d="M 57.5,156.5 C 58.791,156.263 59.791,156.596 60.5,157.5C 59.8333,157.5 59.5,157.833 59.5,158.5C 58.5,158.167 57.8333,157.5 57.5,156.5 Z"/></g>
<g><path style="opacity:1" fill="#f9faf9" d="M 46.5,157.5 C 46.8333,157.5 47.1667,157.5 47.5,157.5C 47.3147,158.17 46.9813,158.17 46.5,157.5 Z"/></g>
<g><path style="opacity:1" fill="#fbfcfb" d="M 44.5,158.5 C 45.8333,159.167 45.8333,159.167 44.5,158.5 Z"/></g>
<g><path style="opacity:1" fill="#f7f8f7" d="M 49.5,158.5 C 49.5,158.833 49.5,159.167 49.5,159.5C 48.8299,159.019 48.8299,158.685 49.5,158.5 Z"/></g>
<g><path style="opacity:1" fill="#fbfcfb" d="M 148.5,158.5 C 149.833,159.167 149.833,159.167 148.5,158.5 Z"/></g>
<g><path style="opacity:1" fill="#fbfcfb" d="M 49.5,159.5 C 50.8333,160.167 50.8333,160.167 49.5,159.5 Z"/></g>
<g><path style="opacity:1" fill="#fafbfa" d="M 47.5,160.5 C 48.8333,161.167 48.8333,161.167 47.5,160.5 Z"/></g>
<g><path style="opacity:1" fill="#fafbfa" d="M 150.5,161.5 C 149.833,160.167 149.833,160.167 150.5,161.5 Z"/></g>
<g><path style="opacity:1" fill="#fbfbfb" d="M 49.5,163.5 C 49.369,162.761 49.5357,162.094 50,161.5C 50.6917,162.437 50.525,163.103 49.5,163.5 Z"/></g>
<g><path style="opacity:1" fill="#fbfcfb" d="M 146.5,161.5 C 147.833,162.167 147.833,162.167 146.5,161.5 Z"/></g>
<g><path style="opacity:1" fill="#fafbfa" d="M 150.5,161.5 C 151.833,162.167 151.833,162.167 150.5,161.5 Z"/></g>
<g><path style="opacity:1" fill="#f7f8f7" d="M 52.5,163.5 C 51.8333,162.167 51.8333,162.167 52.5,163.5 Z"/></g>
<g><path style="opacity:1" fill="#f8f9f8" d="M 49.5,163.5 C 49.5,163.833 49.5,164.167 49.5,164.5C 48.8299,164.019 48.8299,163.685 49.5,163.5 Z"/></g>
<g><path style="opacity:1" fill="#fafbfa" d="M 52.5,163.5 C 53.8333,164.167 53.8333,164.167 52.5,163.5 Z"/></g>
<g><path style="opacity:1" fill="#f9f9f9" d="M 143.5,163.5 C 145.424,163.711 145.757,164.377 144.5,165.5C 144.167,164.833 143.833,164.167 143.5,163.5 Z"/></g>
<g><path style="opacity:1" fill="#fafbfa" d="M 146.5,163.5 C 147.833,164.167 147.833,164.167 146.5,163.5 Z"/></g>
<g><path style="opacity:1" fill="#fbfcfb" d="M 49.5,164.5 C 50.1667,164.5 50.5,164.833 50.5,165.5C 50.1667,165.167 49.8333,164.833 49.5,164.5 Z"/></g>
<g><path style="opacity:1" fill="#f9faf9" d="M 141.5,164.5 C 142.833,165.167 142.833,165.167 141.5,164.5 Z"/></g>
<g><path style="opacity:1" fill="#fbfcfb" d="M 149.5,164.5 C 150.833,165.167 150.833,165.167 149.5,164.5 Z"/></g>
<g><path style="opacity:1" fill="#fafbfa" d="M 50.5,165.5 C 51.8333,166.167 51.8333,166.167 50.5,165.5 Z"/></g>
<g><path style="opacity:1" fill="#fbfbfb" d="M 53.5,165.5 C 54.7733,166.077 54.7733,166.743 53.5,167.5C 52.537,167.03 52.537,166.363 53.5,165.5 Z"/></g>
<g><path style="opacity:1" fill="#f9faf9" d="M 55.5,165.5 C 56.8333,166.167 56.8333,166.167 55.5,165.5 Z"/></g>
<g><path style="opacity:1" fill="#fafafa" d="M 57.5,164.5 C 58.1667,164.833 58.8333,165.167 59.5,165.5C 59.5,165.833 59.5,166.167 59.5,166.5C 58.1667,166.5 57.5,165.833 57.5,164.5 Z"/></g>
<g><path style="opacity:1" fill="#656565" d="M 60.5,166.5 C 60.5,166.167 60.5,165.833 60.5,165.5C 71.3464,165.172 82.0131,165.506 92.5,166.5C 82.0818,167.825 71.4151,167.825 60.5,166.5 Z"/></g>
<g><path style="opacity:1" fill="#4f4f4f" d="M 124.5,167.5 C 123.833,166.167 123.167,166.167 122.5,167.5C 118.905,166.746 115.238,166.746 111.5,167.5C 110.624,167.631 109.957,167.298 109.5,166.5C 114.833,165.167 120.167,165.167 125.5,166.5C 125.376,167.107 125.043,167.44 124.5,167.5 Z"/></g>
<g><path style="opacity:1" fill="#f8f8f8" d="M 139.5,165.5 C 140.167,165.5 140.833,165.5 141.5,165.5C 140.833,166.833 140.167,166.833 139.5,165.5 Z"/></g>
<g><path style="opacity:1" fill="#fafbfa" d="M 144.5,165.5 C 143.833,166.167 143.833,166.167 144.5,165.5 Z"/></g>
<g><path style="opacity:1" fill="#f9faf9" d="M 147.5,165.5 C 148.833,166.167 148.833,166.167 147.5,165.5 Z"/></g>
<g><path style="opacity:1" fill="#fafbfa" d="M 145.5,166.5 C 146.833,167.167 146.833,167.167 145.5,166.5 Z"/></g>
<g><path style="opacity:1" fill="#f9f9f9" d="M 59.5,166.5 C 59.8333,166.5 60.1667,166.5 60.5,166.5C 60.9175,167.222 61.5842,167.722 62.5,168C 60.8425,168.725 59.8425,168.225 59.5,166.5 Z"/></g>
<g><path style="opacity:1" fill="#fafbfa" d="M 134.5,167.5 C 135.833,168.167 135.833,168.167 134.5,167.5 Z"/></g>
<g><path style="opacity:1" fill="#fbfcfb" d="M 136.5,168.5 C 136.897,167.475 137.563,167.308 138.5,168C 137.906,168.464 137.239,168.631 136.5,168.5 Z"/></g>
<g><path style="opacity:1" fill="#fbfcfb" d="M 140.5,168.5 C 140.897,167.475 141.563,167.308 142.5,168C 141.906,168.464 141.239,168.631 140.5,168.5 Z"/></g>
<g><path style="opacity:1" fill="#ececec" d="M 133.5,167.5 C 133.5,168.167 133.5,168.833 133.5,169.5C 132.833,169.5 132.167,169.5 131.5,169.5C 131.833,168.5 132.5,167.833 133.5,167.5 Z"/></g>
<g><path style="opacity:1" fill="#fbfcfb" d="M 96.5,169.5 C 97.8333,170.167 97.8333,170.167 96.5,169.5 Z"/></g>
<g><path style="opacity:1" fill="#fbfcfb" d="M 133.5,169.5 C 134.833,170.167 134.833,170.167 133.5,169.5 Z"/></g>
<g><path style="opacity:1" fill="#e4e4e4" d="M 101.5,169.5 C 102.167,169.5 102.5,169.833 102.5,170.5C 102.5,171.167 102.5,171.833 102.5,172.5C 101.833,172.167 101.167,171.833 100.5,171.5C 100.5,171.167 100.5,170.833 100.5,170.5C 101.167,170.5 101.5,170.167 101.5,169.5 Z"/></g>
<g><path style="opacity:1" fill="#fafbfa" d="M 96.5,171.5 C 97.8333,172.167 97.8333,172.167 96.5,171.5 Z"/></g>
<g><path style="opacity:1" fill="#fbfcfb" d="M 100.5,171.5 C 100.631,172.239 100.464,172.906 100,173.5C 99.3083,172.563 99.475,171.897 100.5,171.5 Z"/></g>
<g><path style="opacity:1" fill="#fbfbfb" d="M 131.5,171.5 C 134.001,171.511 134.168,172.178 132,173.5C 131.536,172.906 131.369,172.239 131.5,171.5 Z"/></g>
<g><path style="opacity:1" fill="#fbfcfb" d="M 102.5,172.5 C 103.833,173.167 103.833,173.167 102.5,172.5 Z"/></g>
<g><path style="opacity:1" fill="#fafbfa" d="M 96.5,174.5 C 96.8966,173.475 97.5632,173.308 98.5,174C 97.9056,174.464 97.2389,174.631 96.5,174.5 Z"/></g>
<g><path style="opacity:1" fill="#f9faf9" d="M 102.5,173.5 C 102.5,173.833 102.5,174.167 102.5,174.5C 101.83,174.019 101.83,173.685 102.5,173.5 Z"/></g>
<g><path style="opacity:1" fill="#fbfcfb" d="M 133.5,173.5 C 134.833,174.167 134.833,174.167 133.5,173.5 Z"/></g>
<g><path style="opacity:1" fill="#f9faf9" d="M 101.5,174.5 C 100.833,175.167 100.833,175.167 101.5,174.5 Z"/></g>
<g><path style="opacity:1" fill="#fbfcfb" d="M 102.5,174.5 C 103.833,175.167 103.833,175.167 102.5,174.5 Z"/></g>
<g><path style="opacity:1" fill="#fafbfa" d="M 107.5,174.5 C 108.833,175.167 108.833,175.167 107.5,174.5 Z"/></g>
<g><path style="opacity:1" fill="#fbfcfb" d="M 130.5,174.5 C 131.833,175.167 131.833,175.167 130.5,174.5 Z"/></g>
<g><path style="opacity:1" fill="#f8f9f8" d="M 133.5,174.5 C 132.833,175.167 132.833,175.167 133.5,174.5 Z"/></g>
</svg>
