<?xml version="1.0" standalone="no"?>
<!DOCTYPE svg PUBLIC "-//W3C//DTD SVG 20010904//EN"
 "http://www.w3.org/TR/2001/REC-SVG-20010904/DTD/svg10.dtd">
<svg version="1.0" xmlns="http://www.w3.org/2000/svg"
 width="512.000000pt" height="512.000000pt" viewBox="0 0 512.000000 512.000000"
 preserveAspectRatio="xMidYMid meet">

<g transform="translate(0.000000,512.000000) scale(0.100000,-0.100000)"
fill="#000000" stroke="none">
<path d="M2506 4600 c-16 -5 -42 -22 -59 -37 -55 -52 -57 -67 -57 -367 l0
-275 -37 -6 c-157 -25 -254 -61 -360 -133 -86 -58 -191 -176 -240 -268 -253
-478 46 -1050 585 -1120 l52 -7 0 -423 0 -424 -257 0 c-147 0 -274 -5 -295
-10 -141 -40 -174 -215 -57 -302 43 -32 94 -38 357 -38 l252 0 0 -270 c0 -300
2 -314 63 -367 63 -55 157 -53 221 6 53 49 56 67 56 361 0 208 3 271 13 274 6
2 44 11 82 20 215 49 421 220 515 430 80 177 87 379 21 566 -88 248 -313 444
-566 492 l-65 13 0 432 0 433 258 0 c146 0 273 5 294 10 141 40 174 215 57
302 -43 32 -94 38 -356 38 l-253 0 0 269 c0 166 -4 281 -11 298 -31 83 -125
129 -213 103z m-116 -1451 l0 -420 -22 6 c-101 30 -212 115 -262 199 -67 115
-75 279 -18 400 42 89 108 158 195 201 118 59 107 99 107 -386z m445 -814
c203 -98 293 -354 196 -560 -39 -84 -120 -166 -203 -205 -108 -51 -98 -90 -98
386 l0 416 28 -6 c15 -4 50 -18 77 -31z"/>
</g>
</svg>
