<?xml version="1.0" standalone="no"?>
<!DOCTYPE svg PUBLIC "-//W3C//DTD SVG 20010904//EN"
 "http://www.w3.org/TR/2001/REC-SVG-20010904/DTD/svg10.dtd">
<svg version="1.0" xmlns="http://www.w3.org/2000/svg"
 width="512.000000pt" height="512.000000pt" viewBox="0 0 512.000000 512.000000"
 preserveAspectRatio="xMidYMid meet">

<g transform="translate(0.000000,512.000000) scale(0.100000,-0.100000)"
fill="#000000" stroke="none">
<path d="M2940 5114 c-456 -42 -811 -190 -1208 -507 -157 -125 -255 -218 -354
-337 -197 -235 -335 -478 -434 -767 l-39 -113 -372 0 -373 0 0 -285 0 -285
308 -2 307 -3 6 -275 c4 -151 10 -285 14 -297 l7 -23 -321 0 -321 0 0 -310 0
-310 399 0 398 0 39 -108 c49 -138 161 -359 247 -489 72 -107 221 -286 303
-364 352 -332 775 -540 1254 -616 171 -27 544 -24 735 5 535 83 954 306 1278
680 46 53 87 103 91 110 5 8 -84 123 -250 321 l-258 310 -85 -81 c-162 -153
-409 -336 -551 -408 -83 -41 -189 -77 -303 -102 -88 -19 -133 -22 -322 -22
-246 0 -318 11 -492 76 -274 103 -504 312 -673 611 l-32 57 826 0 826 0 0 310
0 310 -917 2 -918 3 -8 40 c-4 22 -10 154 -14 293 l-6 252 932 0 931 0 0 310
0 310 -850 0 c-467 0 -850 3 -850 6 0 19 125 223 187 305 162 215 410 398 648
478 150 50 257 65 465 64 217 0 381 -21 515 -64 171 -54 388 -203 607 -417
l137 -134 256 321 c213 266 255 323 246 338 -15 28 -259 264 -336 325 -108 86
-263 183 -392 248 -318 157 -627 228 -1028 234 -115 2 -230 2 -255 0z"/>
</g>
</svg>
