<?xml version="1.0" encoding="UTF-8"?>
<svg version="1.1" xmlns="http://www.w3.org/2000/svg" width="476" height="106">
<path d="M0 0 C157.08 0 314.16 0 476 0 C476 34.98 476 69.96 476 106 C318.92 106 161.84 106 0 106 C0 71.02 0 36.04 0 0 Z " fill="#FCFCFC" transform="translate(0,0)"/>
<path d="M0 0 C49.5 0 99 0 150 0 C150 34.98 150 69.96 150 106 C92.25 106 34.5 106 -25 106 C-25 105.67 -25 105.34 -25 105 C-24.45472656 104.90203125 -23.90945313 104.8040625 -23.34765625 104.703125 C-14.83130676 103.01441296 -7.15581591 100.29897442 -1 94 C5.39187827 83.55173744 5.6700405 71.1116253 3.234375 59.28125 C0.57237676 51.70767753 -3.86391884 45.51053273 -8.6953125 39.19140625 C-12.95523106 33.29250208 -14.91327802 29.19206437 -14 22 C-11.99583296 18.96142416 -10.48649586 17.42955774 -6.9453125 16.40625 C-1.53740019 15.58290003 2.81275619 16.39667009 8 18 C10.64 14.04 13.28 10.08 16 6 C12.2112477 4.73708257 8.44871565 3.51178033 4.625 2.375 C3.31402344 1.98441406 3.31402344 1.98441406 1.9765625 1.5859375 C1.32429688 1.39257812 0.67203125 1.19921875 0 1 C0 0.67 0 0.34 0 0 Z " fill="#FEFDFC" transform="translate(326,0)"/>
<path d="M0 0 C8.58 0 17.16 0 26 0 C26.22700097 9.68455976 26.40998712 19.36731959 26.51812172 29.05395031 C26.57005312 33.55317631 26.64034134 38.05047 26.75439453 42.54858398 C26.86400993 46.89949981 26.92303643 51.24857209 26.94877243 55.60076332 C26.96708216 57.25101023 27.00283628 58.9011696 27.05730057 60.55061913 C27.46017392 73.27143398 24.66186727 79.75120132 16 89 C15.34 89.99 14.68 90.98 14 92 C10.59687262 90.94124926 7.98646769 89.99097846 5 88 C1.08679151 88.31127795 -1.35378586 89.67200425 -4.5 91.9375 C-11.77850414 97.15290702 -18.13561287 97.98034549 -27 97 C-34.38510594 94.80387583 -39.81135324 90.41665036 -44 84 C-49.17913976 73.64172049 -50.86269295 62.15435243 -47.9375 50.8125 C-44.76674381 41.78465251 -39.66054006 35.68845771 -31.33203125 31.05859375 C-24.78209878 28.08534132 -16.36679851 27.61523815 -9.51171875 29.7890625 C-5.99039218 31.52651553 -3.16463943 33.62652043 0 36 C0 24.12 0 12.24 0 0 Z " fill="#231F20" transform="translate(250,2)"/>
<path d="M0 0 C3.55036983 2.55956895 4.7696505 5.02803756 6.6875 8.9375 C7.3165625 8.46699219 7.945625 7.99648438 8.59375 7.51171875 C17.97577828 0.68714095 24.88840156 -2.27394049 36.6875 -1.0625 C41.60744462 0.57748154 43.38849012 2.37213663 45.6875 6.9375 C47.55657948 18.11829978 43.97965994 30.05290623 41.6875 40.9375 C41.11994397 43.66567902 40.5587268 46.39498343 40 49.125 C39.76925781 50.21167969 39.53851563 51.29835937 39.30078125 52.41796875 C38.52168643 56.88907976 38.13909588 61.42154124 37.6875 65.9375 C29.7675 65.9375 21.8475 65.9375 13.6875 65.9375 C14.81057692 54.70673077 14.81057692 54.70673077 15.84375 49.1875 C16.17052734 47.40859375 16.17052734 47.40859375 16.50390625 45.59375 C16.95963542 43.15625 17.41536458 40.71875 17.87109375 38.28125 C19.99933678 28.18193468 19.99933678 28.18193468 20.6875 17.9375 C18.87332291 15.74776503 18.87332291 15.74776503 16.375 15.5 C12.39087632 16.14857827 11.18509643 17.79949423 8.6875 20.9375 C3.67304309 29.19220189 2.64397809 39.16536449 0.9375 48.5 C0.61950352 50.19355007 0.30050156 51.88691168 -0.01953125 53.58007812 C-0.79735688 57.69691171 -1.55437623 61.81679915 -2.3125 65.9375 C-10.2325 65.9375 -18.1525 65.9375 -26.3125 65.9375 C-24.85219247 56.02242132 -23.04257435 46.23227985 -20.9921875 36.42382812 C-19.69214623 29.92749092 -18.65678886 23.5785636 -19.3125 16.9375 C-20.40789142 15.64636604 -20.40789142 15.64636604 -23.0625 15.5 C-26.4919294 15.64952264 -26.4919294 15.64952264 -28.9375 18.3125 C-35.311343 27.11718524 -36.69622479 37.99545113 -38.5 48.4375 C-38.8877947 50.63283683 -39.27859998 52.82759028 -39.67243958 55.02185059 C-40.02455215 56.99076931 -40.36834193 58.96117111 -40.71166992 60.93164062 C-41.3125 63.9375 -41.3125 63.9375 -42.3125 65.9375 C-49.9025 65.9375 -57.4925 65.9375 -65.3125 65.9375 C-64.18886445 53.57750891 -64.18886445 53.57750891 -63.296875 49.37890625 C-63.0999707 48.42894775 -62.90306641 47.47898926 -62.70019531 46.50024414 C-62.48975586 45.51016357 -62.27931641 44.52008301 -62.0625 43.5 C-59.81292155 32.63340629 -57.81006336 21.73653619 -55.92480469 10.80102539 C-55.72790039 9.67172607 -55.53099609 8.54242676 -55.328125 7.37890625 C-55.15571289 6.37545166 -54.98330078 5.37199707 -54.80566406 4.33813477 C-54.3125 1.9375 -54.3125 1.9375 -53.3125 -0.0625 C-45.7225 -0.0625 -38.1325 -0.0625 -30.3125 -0.0625 C-30.6425 3.2375 -30.9725 6.5375 -31.3125 9.9375 C-30.3225 9.03 -29.3325 8.1225 -28.3125 7.1875 C-20.23748815 0.25904156 -10.45883141 -3.35471951 0 0 Z " fill="#C2922E" transform="translate(429.3125,32.0625)"/>
<path d="M0 0 C1.30686768 0.00302124 1.30686768 0.00302124 2.64013672 0.00610352 C10.329051 0.12462379 18.32828087 0.82039043 25.3125 4.3125 C24.67430842 7.86084519 23.79975713 11.17525507 22.5625 14.5625 C22.25828125 15.43390625 21.9540625 16.3053125 21.640625 17.203125 C20.3125 19.3125 20.3125 19.3125 18.25390625 20.12109375 C13.34320617 20.44064794 8.43843303 20.23854976 3.52539062 20.00976562 C-3.55760455 19.85738246 -8.57638893 21.58621277 -13.9296875 26.27734375 C-14.46851563 26.92832031 -15.00734375 27.57929687 -15.5625 28.25 C-16.11679687 28.89839844 -16.67109375 29.54679687 -17.2421875 30.21484375 C-22.30305718 37.5599438 -21.43729551 46.75462452 -20.6875 55.3125 C-19.16495355 63.09868693 -15.15106076 67.86880198 -8.6875 72.3125 C-3.93100993 74.98740781 -3.93100993 74.98740781 5.3125 75.3125 C5.3125 67.7225 5.3125 60.1325 5.3125 52.3125 C2.6725 52.3125 0.0325 52.3125 -2.6875 52.3125 C-3.6775 51.8175 -3.6775 51.8175 -4.6875 51.3125 C-4.6875 48.6725 -4.6875 46.0325 -4.6875 43.3125 C7.8525 43.3125 20.3925 43.3125 33.3125 43.3125 C33.3125 58.8225 33.3125 74.3325 33.3125 90.3125 C10.03145703 94.96870859 10.03145703 94.96870859 2.8125 94.75 C1.98556641 94.73533691 1.15863281 94.72067383 0.30664062 94.70556641 C-14.64102116 94.24613358 -27.6248457 89.05843388 -38.49609375 78.67578125 C-48.9372669 67.41569256 -51.19551065 55.87553237 -50.96484375 40.99609375 C-50.74379202 35.44340616 -49.51267642 31.10647124 -46.6875 26.3125 C-46.275 25.56097656 -45.8625 24.80945313 -45.4375 24.03515625 C-38.17057405 11.95802079 -27.17729175 5.16627878 -13.89453125 1.171875 C-9.26603227 0.08154992 -4.73894124 -0.02971553 0 0 Z " fill="#242021" transform="translate(51.6875,4.6875)"/>
<path d="M0 0 C6.69283067 5.38691249 12.71398926 11.42731412 14.5625 20.0625 C15.72832584 31.18853353 14.48284108 40.58421526 7.61328125 49.62890625 C0.79450402 57.05978197 -8.06638364 61.65469507 -18.16015625 62.30078125 C-29.43309105 62.58692936 -39.37058286 61.51752076 -48.4375 54.0625 C-56.62789281 46.25678317 -60.52845868 39.064902 -61.0625 27.6875 C-60.78877965 18.34325371 -57.4372411 10.98292549 -51.125 4.125 C-36.79147138 -8.81937607 -16.45941673 -9.27712579 0 0 Z " fill="#242021" transform="translate(150.4375,36.9375)"/>
<path d="M0 0 C-1.59043379 5.08938811 -4.7446951 8.87456643 -8 13 C-9.7015625 12.4740625 -9.7015625 12.4740625 -11.4375 11.9375 C-16.12453978 10.78030901 -20.3217635 10.75921036 -25 12 C-27.71107713 13.37716666 -27.71107713 13.37716666 -29 16 C-30.3706798 24.9855676 -25.70349661 30.66127753 -20.63037109 37.70458984 C-13.69235109 47.42008981 -10.69387549 55.16277259 -10.5 67.125 C-10.48122803 67.96039307 -10.46245605 68.79578613 -10.44311523 69.65649414 C-10.53531276 78.56277555 -13.81433885 85.6670612 -20 92 C-29.04336322 99.03372695 -39.74675474 100.88292224 -51 100 C-59.0163156 98.65512275 -65.92760184 95.95866534 -73 92 C-72.39889717 87.99264783 -70.33397972 85.44530629 -67.9375 82.25 C-67.20402344 81.26515625 -66.47054688 80.2803125 -65.71484375 79.265625 C-65.14894531 78.51796875 -64.58304687 77.7703125 -64 77 C-61.14769881 78.11084519 -58.4725855 79.27384984 -55.75 80.6875 C-51.12231977 82.30718808 -47.6740238 82.53762278 -43 81 C-39.65372249 78.33663627 -38.44970791 76.85059659 -37.45703125 72.765625 C-36.80196177 65.00366962 -40.5548394 60.02777614 -45 54 C-52.94332567 43.17268679 -58.27364977 32.78271006 -57 19 C-54.85626426 9.44776573 -50.21908554 3.21210303 -42 -2 C-28.76882091 -9.1564868 -12.74341364 -7.0424128 0 0 Z " fill="#C2912D" transform="translate(342,6)"/>
<path d="M0 0 C8.58 0 17.16 0 26 0 C26 31.68 26 63.36 26 96 C17.42 96 8.84 96 0 96 C0 64.32 0 32.64 0 0 Z " fill="#231F20" transform="translate(170,2)"/>
<path d="M0 0 C7.92 0 15.84 0 24 0 C22.44670489 10.65463362 20.52575657 21.22160281 18.54101562 31.80297852 C17.99918802 34.69182922 17.46027435 37.58121172 16.921875 40.47070312 C16.57308503 42.33857311 16.22413229 44.20641272 15.875 46.07421875 C15.71660645 46.9223967 15.55821289 47.77057465 15.39501953 48.64445496 C14.30732659 54.43976541 13.15659009 60.21704956 12 66 C4.08 66 -3.84 66 -12 66 C-11.34 62.37 -10.68 58.74 -10 55 C-9.62416279 52.83284854 -9.25228478 50.66500144 -8.88671875 48.49609375 C-6.13436812 32.28526352 -3.15538185 16.13752434 0 0 Z " fill="#C39330" transform="translate(345,32)"/>
<path d="M0 0 C3.33431592 0.10152565 4.31129174 0.18983558 7 2.3125 C11.98173328 11.8927563 13.20160844 22.28598549 10.8125 32.875 C9.34481717 37.27804848 7.93747755 41.12502245 4.625 44.4375 C1.56752049 44.99823466 -1.31350161 44.96139277 -4.375 44.4375 C-8.7814455 40.70896919 -10.09935939 35.52196364 -10.59838867 29.93774414 C-10.71509521 27.12235722 -10.74619484 24.31772255 -10.75 21.5 C-10.77449219 20.54931641 -10.79898438 19.59863281 -10.82421875 18.61914062 C-10.85015499 12.34689385 -9.93379733 7.67706882 -6.375 2.4375 C-3.99374088 0.05624088 -3.26792462 0.09228359 0 0 Z " fill="#F9F9F9" transform="translate(127.375,42.5625)"/>
<path d="M0 0 C3.34828087 0.06600554 4.2085203 0.34704629 7.125 2.3125 C12.59835228 10.20056653 12.32464487 21.11183538 10.75 30.2890625 C9.70817757 34.30244664 8.70073745 36.86335208 5.9375 40 C2.60581412 41.70458347 0.9349539 42.14269873 -2.75 41.375 C-8.44424531 35.81016935 -10.02802649 30.74503567 -10.16992188 22.86132812 C-10.17572266 21.93771484 -10.18152344 21.01410156 -10.1875 20.0625 C-10.23680664 18.69448242 -10.23680664 18.69448242 -10.28710938 17.29882812 C-10.33928412 10.6821223 -8.88422397 6.54943145 -4.75 1.375 C-3.75 0.375 -3.75 0.375 0 0 Z " fill="#FBFBFB" transform="translate(238.75,44.625)"/>
<path d="M0 0 C8.58 0 17.16 0 26 0 C26 0.33 26 0.66 26 1 C18.08 1 10.16 1 2 1 C2 31.69 2 62.38 2 94 C9.92 94 17.84 94 26 94 C26 94.66 26 95.32 26 96 C17.42 96 8.84 96 0 96 C0 64.32 0 32.64 0 0 Z " fill="#302D2D" transform="translate(170,2)"/>
<path d="M0 0 C0.33 0.99 0.66 1.98 1 3 C7.93 3 14.86 3 22 3 C22.33 2.01 22.66 1.02 23 0 C23 1.65 23 3.3 23 5 C15.08 5 7.16 5 -1 5 C-0.67 3.35 -0.34 1.7 0 0 Z " fill="#CBA250" transform="translate(404,93)"/>
<path d="M0 0 C7.59 0 15.18 0 23 0 C22.67 2.31 22.34 4.62 22 7 C21.67 7 21.34 7 21 7 C21 5.35 21 3.7 21 2 C14.4 2 7.8 2 1 2 C0.67 3.32 0.34 4.64 0 6 C0 4.02 0 2.04 0 0 Z " fill="#C89C42" transform="translate(376,32)"/>
</svg>
