<?xml version="1.0" encoding="UTF-8"?>
<svg version="1.1" xmlns="http://www.w3.org/2000/svg" width="924" height="520">
<path d="M0 0 C1.13152382 -0.00250352 2.26304765 -0.00500704 3.42886007 -0.00758642 C5.32082709 -0.00407467 5.32082709 -0.00407467 7.25101566 -0.00049198 C8.59575617 -0.00153378 9.9404964 -0.00301404 11.285236 -0.00489634 C15.01431037 -0.00882216 18.74335917 -0.00644393 22.47243316 -0.00311839 C26.51655868 -0.00059785 30.56068005 -0.00383514 34.60480499 -0.00636172 C41.70382073 -0.00998662 48.80282888 -0.00985578 55.90184498 -0.00731456 C66.45799465 -0.003546 77.01413787 -0.00545855 87.5702875 -0.00852287 C106.41900918 -0.01380036 125.26772749 -0.01332756 144.11644951 -0.01044396 C160.61084444 -0.00793279 177.10523813 -0.00726965 193.59963322 -0.0084666 C195.23797431 -0.00858118 195.23797431 -0.00858118 196.90941321 -0.00869807 C201.34262514 -0.00900939 205.77583706 -0.00932778 210.20904898 -0.00965784 C251.83368431 -0.01271989 293.45831749 -0.00993854 335.08295248 -0.00456094 C372.09991729 0.000185 409.11687865 -0.00023961 446.13384342 -0.00502193 C487.68019158 -0.01037141 529.22653782 -0.01250277 570.77288628 -0.00940967 C575.19822852 -0.00908893 579.62357076 -0.00877609 584.048913 -0.0084666 C585.13862166 -0.00838752 586.22833031 -0.00830845 587.35106044 -0.00822697 C603.83894785 -0.00708737 620.32683389 -0.00842373 636.81472111 -0.01094615 C655.55384235 -0.01379861 674.29295966 -0.01310516 693.03208041 -0.00766541 C703.53203392 -0.00471832 714.03197895 -0.00455294 724.53193225 -0.00831159 C731.53214785 -0.01054202 738.5323566 -0.00918023 745.53257119 -0.00480682 C749.52994216 -0.0024118 753.52729619 -0.001648 757.52466667 -0.0052128 C761.15296516 -0.00841572 764.78123149 -0.00711087 768.40952758 -0.00203214 C770.34624741 -0.00053171 772.28296908 -0.00399161 774.21968615 -0.00758642 C775.91697188 -0.00383114 775.91697188 -0.00383114 777.64854622 0 C778.63146835 0.00006776 779.61439049 0.00013552 780.62709814 0.00020533 C782.82427311 0.12534916 782.82427311 0.12534916 783.82427311 1.12534916 C783.82427311 75.37534916 783.82427311 149.62534916 783.82427311 226.12534916 C523.12427311 226.12534916 262.42427311 226.12534916 -6.17572689 226.12534916 C-6.17572689 0.00042573 -6.17572689 0.00042573 0 0 Z " fill="#010100" transform="translate(73.17572689056396,146.8746508359909)"/>
<path d="M0 0 C12.87 0 25.74 0 39 0 C39 54.45 39 108.9 39 165 C18.87 165 -1.26 165 -22 165 C-28.6875 148.625 -28.6875 148.625 -30.7644043 143.52197266 C-33.60883534 136.56894712 -36.52043701 129.74238611 -39.97875977 123.06640625 C-41.4872702 120.01404377 -42.54929344 116.91827855 -43.625 113.6875 C-44.71639612 110.41697403 -45.71387029 107.47563447 -47.4921875 104.51953125 C-49.94801464 100.41588227 -51.20038783 95.89115414 -52.71875 91.375 C-53.86290133 88.0616484 -53.86290133 88.0616484 -55.5 85.5 C-57.95633821 81.40610298 -59.2030394 76.88326742 -60.71875 72.375 C-61.85893408 69.07131498 -61.85893408 69.07131498 -63.46875 66.5546875 C-65.46315584 63.22728593 -66.6931086 59.76659844 -68 56.125 C-68.49833004 54.75199691 -68.99831956 53.37959494 -69.5 52.0078125 C-69.7165625 51.40598145 -69.933125 50.80415039 -70.15625 50.18408203 C-71.35217094 47.08839085 -72.6927142 44.05033352 -74 41 C-74.495 102.38 -74.495 102.38 -75 165 C-103.05 165 -131.1 165 -160 165 C-169.17994026 137.46017922 -169.17994026 137.46017922 -172.69921875 126.09765625 C-173.10092339 124.8073872 -173.50286834 123.51719294 -173.9050293 122.22706604 C-174.74160414 119.54208658 -175.57687883 116.85670834 -176.41098022 114.17095947 C-178.37241163 107.85599614 -180.34191578 101.54354814 -182.31077003 95.230896 C-182.96537158 93.13192659 -183.61973672 91.03288358 -184.27409363 88.93383789 C-187.77616019 77.70272838 -191.29963255 66.47847977 -194.85195923 55.26315308 C-195.40580338 53.51443451 -195.95901319 51.76551491 -196.51156616 50.01638794 C-197.2598442 47.64837976 -198.01034262 45.28108917 -198.76171875 42.9140625 C-198.97739502 42.23082413 -199.19307129 41.54758575 -199.4152832 40.84364319 C-200.16668459 38.48478451 -200.89093145 36.2181371 -202 34 C-202.37995117 35.18996582 -202.75990234 36.37993164 -203.15136719 37.60595703 C-209.84468495 58.56418984 -216.54833605 79.51902742 -223.3046875 100.45703125 C-223.52639114 101.14410912 -223.74809479 101.83118698 -223.97651672 102.53908539 C-226.16411204 109.31802441 -228.35299223 116.09654738 -230.54376793 122.87445927 C-231.16667634 124.80187728 -231.78932767 126.72937816 -232.41189575 128.65690613 C-233.16727508 130.99538868 -233.92313864 133.33371491 -234.67965698 135.67182922 C-237.83255144 145.43400632 -240.91053611 155.2166977 -244 165 C-258.19 165 -272.38 165 -287 165 C-284.95392865 158.17976217 -282.81523258 151.56668216 -280.296875 144.9296875 C-279.9421965 143.98670807 -279.58751801 143.04372864 -279.22209167 142.07217407 C-278.06779167 139.00528508 -276.90890147 135.9401528 -275.75 132.875 C-274.94179647 130.72994661 -274.13393946 128.58476263 -273.32641602 126.43945312 C-271.68211179 122.07204384 -270.03624264 117.70522943 -268.38916016 113.33886719 C-264.89180694 104.06429517 -261.41496376 94.78204297 -257.9375 85.5 C-256.72159121 82.25511945 -255.50545252 79.01032519 -254.2890625 75.765625 C-254.00476883 75.00724335 -253.72047516 74.24886169 -253.42756653 73.46749878 C-251.6943725 68.84596411 -249.95489611 64.2268584 -248.2109375 59.609375 C-247.79851807 58.51560547 -247.38609863 57.42183594 -246.96118164 56.29492188 C-246.23834413 54.37882635 -245.51381554 52.46336708 -244.78686523 50.54882812 C-242.7009562 45.01484905 -240.79116747 39.43973965 -238.96679688 33.81396484 C-237.9810585 30.94486876 -236.86746785 28.16953489 -235.6875 25.375 C-232.2911182 17.31846644 -229.16893178 9.14868172 -226 1 C-208.18 1 -190.36 1 -172 1 C-169.69 7.6 -167.38 14.2 -165 21 C-163.09092434 26.19370508 -161.16953691 31.38071393 -159.21875 36.55859375 C-158.67832599 37.99806521 -158.13808981 39.43760721 -157.59802246 40.87721252 C-156.18194044 44.65027543 -154.76316945 48.42232145 -153.34381104 52.19415283 C-151.98653491 55.8025929 -150.63212018 59.41210505 -149.27734375 63.02148438 C-137.88178006 93.3590366 -126.43338178 123.67668311 -115 154 C-114.505 78.265 -114.505 78.265 -114 1 C-93.87 1 -73.74 1 -53 1 C-47.45724662 12.08550677 -47.45724662 12.08550677 -45.859375 16.54296875 C-42.15065475 26.4218344 -37.91165002 36.08186698 -33.76101685 45.78112793 C-32.23082329 49.35731757 -30.70374519 52.93482313 -29.17749023 56.51269531 C-24.77908944 66.82164603 -20.37370357 77.12760129 -15.96420288 87.43180847 C-14.36577116 91.16896474 -12.77001311 94.90725833 -11.17492676 98.64584351 C-10.07868655 101.21210778 -8.97835893 103.77659429 -7.87792969 106.34106445 C-7.22178121 107.87832238 -6.56584309 109.41567012 -5.91015625 110.953125 C-5.61132034 111.64631332 -5.31248444 112.33950165 -5.0045929 113.05369568 C-3 117.77211287 -3 117.77211287 -3 120 C-2.34 120 -1.68 120 -1 120 C-1.00138269 119.08144147 -1.00138269 119.08144147 -1.00279331 118.14432621 C-1.02484895 103.26448512 -1.04141175 88.3846456 -1.05181217 73.50479221 C-1.05697503 66.30909705 -1.06401753 59.11341278 -1.07543945 51.91772461 C-1.0853866 45.64815306 -1.0918535 39.37858939 -1.09408849 33.10901016 C-1.09539555 29.78734379 -1.09899997 26.46570534 -1.10573006 23.14404488 C-1.11293628 19.44180053 -1.11399112 15.73960369 -1.11352539 12.03735352 C-1.11712067 10.92821091 -1.12071594 9.8190683 -1.12442017 8.67631531 C-1.1230455 7.67365631 -1.12167084 6.67099731 -1.12025452 5.63795471 C-1.12163721 4.32301702 -1.12163721 4.32301702 -1.12304783 2.98151493 C-1 1 -1 1 0 0 Z " fill="#FCFCFC" transform="translate(384,174)"/>
<path d="M0 0 C1.07689087 -0.00580078 1.07689087 -0.00580078 2.17553711 -0.01171875 C11.20282678 0.17439095 19.67720088 2.80261114 28.25 5.4375 C28.25 6.0975 28.25 6.7575 28.25 7.4375 C32.54 7.4375 36.83 7.4375 41.25 7.4375 C42.57 5.1275 43.89 2.8175 45.25 0.4375 C46.91611905 0.394779 48.58382885 0.39686168 50.25 0.4375 C52.33345082 2.52095082 51.90501606 6.75747677 52.1875 9.63671875 C52.27249756 10.46452347 52.35749512 11.29232819 52.44506836 12.1452179 C52.71754635 14.80474011 52.98410125 17.46481258 53.25 20.125 C53.51675159 22.76723709 53.78478412 25.40933168 54.05493164 28.05122375 C54.22296168 29.69715163 54.38891241 31.34329349 54.55249023 32.9896698 C54.9767472 37.17316955 55.53421291 41.29155808 56.25 45.4375 C56.36196073 48.11560075 56.29625299 50.75482686 56.25 53.4375 C54.27 53.4375 52.29 53.4375 50.25 53.4375 C50.04246094 52.87804687 49.83492187 52.31859375 49.62109375 51.7421875 C42.54111589 32.83130479 42.54111589 32.83130479 28.25 19.4375 C28.25 18.7775 28.25 18.1175 28.25 17.4375 C21.25816887 14.40770651 13.84930868 12.12834624 6.25 11.4375 C5.55261719 11.37304688 4.85523438 11.30859375 4.13671875 11.2421875 C-1.88378054 10.93024453 -6.68312972 12.1117906 -11.75 15.4375 C-16.14741224 19.53022263 -19.47289684 23.11680477 -19.98828125 29.29296875 C-20.20015794 38.80511677 -18.64363056 44.74865896 -12.2890625 51.94140625 C-9.03955089 55.10019546 -5.38165883 57.7396963 -1.75 60.4375 C-1.07582031 60.96601563 -0.40164063 61.49453125 0.29296875 62.0390625 C4.31632198 65.17101411 8.41995924 67.75393966 12.91015625 70.1640625 C16.18481017 71.94626146 19.35768238 73.88405968 22.54296875 75.8203125 C24.5303727 77.00759278 26.53579353 78.1648483 28.55078125 79.3046875 C29.64777344 79.92601562 30.74476563 80.54734375 31.875 81.1875 C33.41027344 82.04601562 33.41027344 82.04601562 34.9765625 82.921875 C35.72679687 83.42203125 36.47703125 83.9221875 37.25 84.4375 C37.25 85.0975 37.25 85.7575 37.25 86.4375 C37.83265625 86.705625 38.4153125 86.97375 39.015625 87.25 C48.45642188 92.26748645 56.88784734 102.35104203 60.25 112.4375 C63.12588151 123.85944076 62.23481126 137.08092537 56.625 147.4375 C46.98451357 159.61495654 37.20923136 168.29536608 21.25 170.4375 C6.78213617 171.59373813 -6.5657233 171.15467793 -20.046875 165.46875 C-25.36121239 163.24414365 -29.21834836 163.37470582 -34.75 164.4375 C-35.41 166.4175 -36.07 168.3975 -36.75 170.4375 C-38.4 170.4375 -40.05 170.4375 -41.75 170.4375 C-48.93731531 131.73688731 -48.93731531 131.73688731 -48.75 118.4375 C-46.4375 118.125 -46.4375 118.125 -43.75 118.4375 C-41.38825576 121.85304088 -39.67043139 125.5760617 -37.875 129.3125 C-36.08786215 132.94038983 -34.28031501 136.30985811 -31.875 139.5625 C-29.75 142.4375 -29.75 142.4375 -29.75 144.4375 C-29.09 144.4375 -28.43 144.4375 -27.75 144.4375 C-26.79824871 145.5970704 -25.88941515 146.79195417 -25 148 C-19.63968085 154.38241391 -11.54441272 157.83936243 -3.75 160.4375 C12.82572648 161.5636546 12.82572648 161.5636546 27.36328125 154.63671875 C34.23874774 147.30573481 35.71166074 140.76434005 35.4375 131 C35.42396484 130.07767578 35.41042969 129.15535156 35.39648438 128.20507812 C35.36140953 125.94859617 35.31226387 123.69336774 35.25 121.4375 C34.59 121.4375 33.93 121.4375 33.25 121.4375 C32.47816985 120.19211668 31.7598233 118.91358124 31.0625 117.625 C26.84424949 111.01571146 20.48398077 107.08112252 14.12036133 102.72680664 C12.24193901 101.43194327 10.39376368 100.1010655 8.546875 98.76171875 C6.08521155 96.99829397 3.6169355 95.42036095 0.9375 94 C-11.01909047 87.49480417 -23.28746271 80.38002106 -32.75 70.4375 C-32.75 69.7775 -32.75 69.1175 -32.75 68.4375 C-33.41 68.4375 -34.07 68.4375 -34.75 68.4375 C-35.73350025 66.35620896 -36.71164458 64.27238641 -37.6875 62.1875 C-38.23277344 61.02734375 -38.77804687 59.8671875 -39.33984375 58.671875 C-43.39450852 49.37197906 -43.71874435 35.34772675 -40.25 25.8125 C-37.61522422 20.51461752 -33.89157707 15.64711119 -29.75 11.4375 C-28.76 11.1075 -27.77 10.7775 -26.75 10.4375 C-26.75 9.7775 -26.75 9.1175 -26.75 8.4375 C-25.76 8.4375 -24.77 8.4375 -23.75 8.4375 C-23.75 7.7775 -23.75 7.1175 -23.75 6.4375 C-22.39871743 5.80628864 -21.04377953 5.18290165 -19.6875 4.5625 C-18.55634766 4.04042969 -18.55634766 4.04042969 -17.40234375 3.5078125 C-11.639776 1.18241697 -6.20547131 0.02362021 0 0 Z " fill="#F8CA00" transform="translate(482.75,171.5625)"/>
<path d="M0 0 C0.99 0.99 0.99 0.99 2 2 C5.38065711 2.55087895 8.62120117 2.56687489 12 2 C14.19078127 -0.23204449 14.19078127 -0.23204449 15 -3 C15.33 -3.66 15.66 -4.32 16 -5 C17.98 -5 19.96 -5 22 -5 C22.71883211 0.95827698 23.43066567 6.91733461 24.13623047 12.87719727 C24.37685494 14.90151119 24.6193383 16.9256051 24.86376953 18.94946289 C25.21624425 21.87068704 25.56186577 24.79265609 25.90625 27.71484375 C26.0156189 28.60896469 26.12498779 29.50308563 26.2376709 30.42430115 C26.88524437 35.98903548 27.18708968 41.39603574 27 47 C26 48 26 48 23.4375 48.0625 C22.633125 48.041875 21.82875 48.02125 21 48 C20.74605469 47.28714844 20.49210938 46.57429688 20.23046875 45.83984375 C18.3049484 40.48156054 16.33231051 35.1946916 14 30 C13.505 28.88625 13.505 28.88625 13 27.75 C12.07765618 25.9577459 12.07765618 25.9577459 10.6328125 24.6328125 C8.89476558 22.89476558 7.41632738 21.03862868 5.875 19.125 C2.12791147 14.81663872 -1.86609172 12.39400333 -7 10 C-7.64453125 9.69191406 -8.2890625 9.38382813 -8.953125 9.06640625 C-16.70538342 5.54418449 -25.8436588 4.60631848 -34.19140625 6.49609375 C-40.19789918 8.8745037 -44.5077439 12.48316945 -47.375 18.1875 C-49.86192773 24.44123877 -49.84836166 30.15549327 -47.9375 36.5625 C-44.01469263 43.52231953 -39.82525625 48.83825838 -33 53 C-33 53.66 -33 54.32 -33 55 C-32.278125 55.2475 -31.55625 55.495 -30.8125 55.75 C-27.73105265 57.11953215 -25.5939755 58.85997022 -23 61 C-20.56960168 62.57975891 -18.34553444 63.87269784 -15.625 64.875 C-12.75050261 66.10692745 -10.45427516 67.79155026 -7.94921875 69.64453125 C-5.18148046 71.56919094 -2.24671043 73.12732868 0.7109375 74.73828125 C3.02287915 76.01261086 5.30129298 77.3251827 7.5625 78.6875 C8.22378906 79.08324219 8.88507813 79.47898437 9.56640625 79.88671875 C10.03949219 80.25410156 10.51257813 80.62148438 11 81 C11 81.66 11 82.32 11 83 C11.556875 83.23460937 12.11375 83.46921875 12.6875 83.7109375 C20.21590946 87.9075171 25.8472861 95.11208891 29 103 C29.51820313 104.20785156 30.03640625 105.41570312 30.5703125 106.66015625 C32.27169689 111.23735066 32.49984109 115.46363961 32.4375 120.3125 C32.42920166 121.14700684 32.42090332 121.98151367 32.41235352 122.84130859 C32.06289912 135.64800368 26.87130092 143.55588923 18.4375 152.8125 C15.76470358 155.21116345 13.05228052 157.10758608 10 159 C8.948125 159.70125 7.89625 160.4025 6.8125 161.125 C-4.44972746 167.42148355 -23.75641081 167.1657538 -35.96972656 164.30419922 C-40.33616325 162.95585204 -44.51723178 161.31003273 -48.72265625 159.53125 C-53.023607 157.79711368 -56.38406144 157.56978643 -61 158 C-63.40072446 160.24583901 -63.95753518 161.87260553 -65 165 C-66.98 165 -68.96 165 -71 165 C-73.26688902 153.37634904 -75.2790141 141.7533679 -76.75 130 C-76.87737549 128.99259766 -77.00475098 127.98519531 -77.13598633 126.94726562 C-77.7007381 122.2709468 -78.15948063 117.72062667 -78 113 C-76.02 113 -74.04 113 -72 113 C-71.54560547 114.16015625 -71.54560547 114.16015625 -71.08203125 115.34375 C-68.77744334 121.07331011 -66.41571717 126.37523096 -62.91796875 131.4765625 C-62 133 -62 133 -62 135 C-61.34 135 -60.68 135 -60 135 C-59.08567692 136.42228034 -58.17352031 137.84600906 -57.2734375 139.27734375 C-55.4086266 141.79998672 -53.11235943 143.64190095 -50.68359375 145.60546875 C-49 147 -49 147 -47.55859375 148.54296875 C-45.70855146 150.2724569 -43.94477407 151.11950066 -41.625 152.125 C-40.49964844 152.62386719 -40.49964844 152.62386719 -39.3515625 153.1328125 C-30.66944401 156.33452397 -18.4845988 156.72520244 -9.671875 153.953125 C-7.32453844 152.75837286 -5.18053545 151.47152699 -3 150 C-1.91912109 149.49919922 -1.91912109 149.49919922 -0.81640625 148.98828125 C1.79886336 147.56534961 2.06120268 145.749335 3 143 C3.66 142.01 4.32 141.02 5 140 C6.18328547 135.74472341 6.217402 131.45100639 6.25 127.0625 C6.270625 126.37220703 6.29125 125.68191406 6.3125 124.97070312 C6.36705137 117.77674108 3.48650792 113.03605333 -1.10546875 107.8046875 C-4.11702361 104.93594865 -7.53536949 102.72867778 -11.0234375 100.48046875 C-11.67570313 99.99191406 -12.32796875 99.50335938 -13 99 C-13 98.34 -13 97.68 -13 97 C-13.99 97 -14.98 97 -16 97 C-16 96.34 -16 95.68 -16 95 C-16.99 95 -17.98 95 -19 95 C-19 94.34 -19 93.68 -19 93 C-19.86625 92.814375 -19.86625 92.814375 -20.75 92.625 C-23.02335767 91.99351176 -24.9253529 91.11141809 -27 90 C-27 89.34 -27 88.68 -27 88 C-28.0209375 87.9071875 -28.0209375 87.9071875 -29.0625 87.8125 C-32.2842724 86.92137146 -34.38713037 85.402829 -37.03125 83.40234375 C-39.87591337 81.37608552 -42.91064243 79.76299436 -45.984375 78.11328125 C-48 77 -48 77 -51 75 C-51 74.34 -51 73.68 -51 73 C-51.87785156 72.87044922 -51.87785156 72.87044922 -52.7734375 72.73828125 C-55.61541184 71.79594239 -56.70702132 70.46457161 -58.625 68.1875 C-59.21539063 67.50042969 -59.80578125 66.81335938 -60.4140625 66.10546875 C-61.89910579 64.13394577 -62.98239206 62.24176008 -64 60 C-64.66 60 -65.32 60 -66 60 C-66.64910154 58.41800369 -67.29414694 56.83434276 -67.9375 55.25 C-68.29714844 54.36828125 -68.65679688 53.4865625 -69.02734375 52.578125 C-72.93121139 42.23052403 -72.48710865 28.10085063 -68 18 C-67.73316406 17.3709375 -67.46632813 16.741875 -67.19140625 16.09375 C-64.61994082 10.88224673 -60.48876699 7.55858524 -56 4 C-55.46632813 3.53464844 -54.93265625 3.06929687 -54.3828125 2.58984375 C-39.48168264 -9.53122457 -16.72041508 -6.34067023 0 0 Z " fill="#F8CA00" transform="translate(772,177)"/>
<path d="M0 0 C23.1 0 46.2 0 70 0 C70 1.65 70 3.3 70 5 C69.26394531 5.03738281 68.52789063 5.07476562 67.76953125 5.11328125 C60.42439383 5.58975994 60.42439383 5.58975994 54 9 C53.34 9 52.68 9 52 9 C53.00962006 13.32694312 53.95393407 17.05401571 56 21 C56 21.99 56 22.98 56 24 C56.66 24 57.32 24 58 24 C58 24.99 58 25.98 58 27 C58.66 27 59.32 27 60 27 C60 27.99 60 28.98 60 30 C60.66 30 61.32 30 62 30 C62 30.99 62 31.98 62 33 C62.66 33 63.32 33 64 33 C64 33.99 64 34.98 64 36 C64.66 36 65.32 36 66 36 C66.99 38.97 66.99 38.97 68 42 C68.66 42 69.32 42 70 42 C70 42.99 70 43.98 70 45 C70.66 45 71.32 45 72 45 C72 45.99 72 46.98 72 48 C72.66 48 73.32 48 74 48 C74 48.99 74 49.98 74 51 C74.66 51 75.32 51 76 51 C76 51.99 76 52.98 76 54 C76.66 54 77.32 54 78 54 C78 54.99 78 55.98 78 57 C78.66 57 79.32 57 80 57 C80 57.99 80 58.98 80 60 C80.66 60 81.32 60 82 60 C82 60.99 82 61.98 82 63 C82.66 63 83.32 63 84 63 C84 63.99 84 64.98 84 66 C84.66 66 85.32 66 86 66 C87.98 69.63 89.96 73.26 92 77 C92.66 76.67 93.32 76.34 94 76 C94.495 74.515 94.495 74.515 95 73 C95.66 73 96.32 73 97 73 C97.10054687 72.44441406 97.20109375 71.88882813 97.3046875 71.31640625 C98.15642403 68.47887949 99.49841963 66.41384097 101.125 63.9375 C101.75019531 62.97585937 102.37539063 62.01421875 103.01953125 61.0234375 C103.67308594 60.02570313 104.32664062 59.02796875 105 58 C106.27446708 56.0231713 107.54545044 54.04409114 108.8125 52.0625 C109.37582031 51.18722656 109.93914062 50.31195313 110.51953125 49.41015625 C111.80738765 47.31356681 112.94397727 45.2202234 114 43 C114.66 43 115.32 43 116 43 C116.09925781 42.44441406 116.19851563 41.88882813 116.30078125 41.31640625 C117.16136362 38.46542668 118.53492403 36.41453992 120.1875 33.9375 C128.50826152 22.41772713 128.50826152 22.41772713 130 9 C126.13241884 5.00349946 120.27412905 5.29698979 115 5 C115 3.35 115 1.7 115 0 C132.82 0 150.64 0 169 0 C169 1.65 169 3.3 169 5 C167.081875 5.2784375 167.081875 5.2784375 165.125 5.5625 C155.2602954 7.79251171 147.95719249 15.17252615 142 23 C140.56949452 25.28970845 139.30041318 27.63139028 138 30 C137.34 30.639375 136.68 31.27875 136 31.9375 C133.735546 34.27271819 132.6387567 36.73888896 131.26171875 39.65625 C128.30674328 45.14536852 124.25368193 50.00692111 120.51171875 54.9765625 C118.42687833 57.80368356 116.68719473 60.54359375 115.20703125 63.734375 C112.72540904 68.77571242 109.40949811 73.02028557 105.97851562 77.44335938 C105.50994141 78.06146484 105.04136719 78.67957031 104.55859375 79.31640625 C104.13892334 79.85724854 103.71925293 80.39809082 103.28686523 80.95532227 C98.6614222 88.30460805 98.53267831 94.5273541 98.53125 103.08984375 C98.52363647 104.34833633 98.51602295 105.60682892 98.50817871 106.90345764 C98.49739646 109.55892705 98.49314121 112.21350354 98.49902344 114.86889648 C98.50491854 118.25278564 98.47431513 121.6352395 98.43390656 125.01885128 C98.40167459 128.27165375 98.40614596 131.5244064 98.40625 134.77734375 C98.38985474 135.98277328 98.37345947 137.18820282 98.35656738 138.43016052 C98.41340227 145.38077802 99.02460509 150.80721782 104 156 C110.10035879 158.92308859 117.32761801 158.61872103 124 159 C123.67 160.65 123.34 162.3 123 164 C98.25 164 73.5 164 48 164 C48 162.35 48 160.7 48 159 C49.02480469 158.87882813 50.04960938 158.75765625 51.10546875 158.6328125 C52.46618979 158.46389541 53.8268645 158.2946048 55.1875 158.125 C55.86103516 158.04636719 56.53457031 157.96773437 57.22851562 157.88671875 C62.87033351 157.21309158 62.87033351 157.21309158 68 155 C72.86359457 148.6308596 72.58316136 142.60630654 72.53125 134.8046875 C72.5350769 133.5390799 72.53890381 132.27347229 72.54284668 130.96951294 C72.54556253 128.30121464 72.54025623 125.63439447 72.52148438 122.96630859 C72.49864819 119.55535676 72.51186024 116.14566085 72.53577423 112.73475456 C72.55373629 109.46635432 72.5411479 106.19810414 72.53125 102.9296875 C72.53934692 101.70877411 72.54744385 100.48786072 72.55578613 99.22994995 C72.54317749 98.09171783 72.53056885 96.95348572 72.51757812 95.78076172 C72.51439575 94.78261444 72.51121338 93.78446716 72.50793457 92.756073 C71.86873721 89.28776292 70.28326804 87.62680646 68 85 C68 84.34 68 83.68 68 83 C67.34 83 66.68 83 66 83 C64.68725586 81.3034668 64.68725586 81.3034668 63.21484375 78.94921875 C62.41916992 77.68368164 62.41916992 77.68368164 61.60742188 76.39257812 C61.05634766 75.49990234 60.50527344 74.60722656 59.9375 73.6875 C59.38255859 72.80642578 58.82761719 71.92535156 58.25585938 71.01757812 C54.14370781 64.43112342 54.14370781 64.43112342 53 61 C52.34 61 51.68 61 51 61 C49.87084961 59.57885742 49.87084961 59.57885742 48.65234375 57.60546875 C48.21212891 56.89712891 47.77191406 56.18878906 47.31835938 55.45898438 C46.86267578 54.70939453 46.40699219 53.95980469 45.9375 53.1875 C45.47794922 52.44951172 45.01839844 51.71152344 44.54492188 50.95117188 C42.70229451 47.96129927 41.11564925 45.34694774 40 42 C39.34 42 38.68 42 38 42 C36.37890625 39.734375 36.37890625 39.734375 34.5625 36.75 C32.06250136 32.66004647 32.06250136 32.66004647 29.27734375 28.765625 C28 27 28 27 28 25 C27.34 25 26.68 25 26 25 C25.10092402 23.65138604 24.20769664 22.29860262 23.33984375 20.9296875 C18.28120291 13.55938529 18.28120291 13.55938529 11 9 C11 8.34 11 7.68 11 7 C10.37351562 6.93941406 9.74703125 6.87882813 9.1015625 6.81640625 C8.28429687 6.73261719 7.46703125 6.64882812 6.625 6.5625 C5.40683594 6.44068359 5.40683594 6.44068359 4.1640625 6.31640625 C2 6 2 6 0 5 C0 3.35 0 1.7 0 0 Z " fill="#F8CA00" transform="translate(539,175)"/>
<path d="M0 0 C3.89188088 2.75140297 6.50055757 5.80382166 7.5703125 10.5078125 C7.8399706 16.386359 6.57666677 20.35999986 3 25 C-2.1760907 27.57490806 -7.34318917 28.15395713 -13 27 C-16.39193002 24.90412586 -18.28341732 22.58512514 -20 19 C-20.97249241 14.49348287 -21.10514256 10.29386732 -19.0703125 6.0703125 C-14.22610927 -0.29364077 -7.49004766 -2.72129759 0 0 Z " fill="#120F00" transform="translate(822,174)"/>
<path d="M0 0 C3.89188088 2.75140297 6.50055757 5.80382166 7.5703125 10.5078125 C7.8399706 16.386359 6.57666677 20.35999986 3 25 C-2.1760907 27.57490806 -7.34318917 28.15395713 -13 27 C-16.39193002 24.90412586 -18.28341732 22.58512514 -20 19 C-20.97249241 14.49348287 -21.10514256 10.29386732 -19.0703125 6.0703125 C-14.22610927 -0.29364077 -7.49004766 -2.72129759 0 0 Z M-16 6 C-17.84070199 9.68140398 -17.36784824 13.97269597 -17 18 C-15.61451845 21.02286884 -14.33128575 22.66871425 -12 25 C-7.16503963 25.73594087 -3.1768963 25.69653046 1.0625 23.1875 C3.80433648 20.09187817 4.15380502 17.55872522 4.1875 13.5625 C4.20167969 12.80066406 4.21585938 12.03882813 4.23046875 11.25390625 C3.887528 7.90006196 2.6612176 5.74056371 0.4375 3.25 C-5.52029393 0.19472106 -11.42053514 1.13431858 -16 6 Z " fill="#C5A100" transform="translate(822,174)"/>
<path d="M0 0 C3.6875 0.25 3.6875 0.25 6.125 1.4375 C7.6875 3.25 7.6875 3.25 7.9375 5.9375 C7.855 6.700625 7.7725 7.46375 7.6875 8.25 C6.6975 8.745 6.6975 8.745 5.6875 9.25 C6.21018466 12.01276177 6.79619587 14.5760876 7.6875 17.25 C5.8125 17.125 5.8125 17.125 3.6875 16.25 C2.4375 13.1875 2.4375 13.1875 1.6875 10.25 C0.6975 10.25 -0.2925 10.25 -1.3125 10.25 C-1.3125 12.56 -1.3125 14.87 -1.3125 17.25 C-2.3025 17.25 -3.2925 17.25 -4.3125 17.25 C-4.33934679 14.60409986 -4.35926357 11.95846904 -4.375 9.3125 C-4.38337891 8.55775391 -4.39175781 7.80300781 -4.40039062 7.02539062 C-4.40902441 5.10005687 -4.36474333 3.17464419 -4.3125 1.25 C-3.3125 0.25 -3.3125 0.25 0 0 Z " fill="#D6AF00" transform="translate(814.3125,178.75)"/>
<path d="M0 0 C0.33 4.95 0.66 9.9 1 15 C1.99 15.33 2.98 15.66 4 16 C4 13.69 4 11.38 4 9 C4.99 9 5.98 9 7 9 C7.433125 9.969375 7.86625 10.93875 8.3125 11.9375 C9.7014861 15.27731765 9.7014861 15.27731765 13 16 C13 16.66 13 17.32 13 18 C9.30846481 19.8457676 5.02978061 19.48175083 1 19 C-2.09799981 16.80873184 -2.80352112 15.58943664 -4 12 C-4.1418907 10.31641225 -4.22014505 8.62679257 -4.25 6.9375 C-4.27578125 6.05964844 -4.3015625 5.18179688 -4.328125 4.27734375 C-4.21984375 3.52582031 -4.1115625 2.77429688 -4 2 C-1 0 -1 0 0 0 Z " fill="#130F00" transform="translate(809,180)"/>
<path d="M0 0 C4.54612609 1.51036586 7.18957502 4.60756458 9.36328125 8.78515625 C10.00399128 12.22396713 10.08369218 15.3552352 9.36328125 18.78515625 C8.70328125 19.44515625 8.04328125 20.10515625 7.36328125 20.78515625 C6.70328125 20.78515625 6.04328125 20.78515625 5.36328125 20.78515625 C5.37488281 20.0375 5.38648438 19.28984375 5.3984375 18.51953125 C5.40746094 17.5346875 5.41648437 16.54984375 5.42578125 15.53515625 C5.43738281 14.560625 5.44898438 13.58609375 5.4609375 12.58203125 C5.35947011 9.08243345 5.35947011 9.08243345 4.36328125 5.78515625 C1.50098498 3.83827906 -1.51691688 3.28090923 -4.88671875 2.66015625 C-5.77875 2.49257812 -6.67078125 2.325 -7.58984375 2.15234375 C-8.60304688 1.97058594 -8.60304688 1.97058594 -9.63671875 1.78515625 C-5.95811115 -0.66724882 -4.25390552 -0.60571159 0 0 Z " fill="#B99800" transform="translate(819.63671875,173.21484375)"/>
<path d="M0 0 C6.25882353 -0.36108597 6.25882353 -0.36108597 9.4375 1.1875 C11 3 11 3 11 8 C7.7 7.67 4.4 7.34 1 7 C0.67 4.69 0.34 2.38 0 0 Z " fill="#CBA600" transform="translate(811,179)"/>
<path d="M0 0 C0.04898438 1.05960938 0.09796875 2.11921875 0.1484375 3.2109375 C0.22346709 4.59898497 0.29901485 5.98700451 0.375 7.375 C0.4059375 8.07367188 0.436875 8.77234375 0.46875 9.4921875 C0.59499498 13.70185827 0.59499498 13.70185827 3 17 C0.625 16.75 0.625 16.75 -2 16 C-3.99535614 12.98994057 -4.29653233 10.44111291 -4.3125 6.875 C-4.32925781 6.00617188 -4.34601562 5.13734375 -4.36328125 4.2421875 C-4.24339844 3.50226563 -4.12351562 2.76234375 -4 2 C-1 0 -1 0 0 0 Z " fill="#070500" transform="translate(809,180)"/>
<path d="M0 0 C0.99 0.33 1.98 0.66 3 1 C2.21625 1.556875 1.4325 2.11375 0.625 2.6875 C-3.67241399 6.47331709 -4.2288557 10.47346585 -5 16 C-5.66 16 -6.32 16 -7 16 C-7.76140684 8.38593156 -7.76140684 8.38593156 -5.95703125 5.1015625 C-4.17646218 2.96070232 -2.50485776 1.25242888 0 0 Z " fill="#E7BD00" transform="translate(809,175)"/>
<path d="M0 0 C0.33 0.99 0.66 1.98 1 3 C-1.36292656 5.52588702 -2.66462511 6.88820837 -6 8 C-8.33299825 8.03954234 -10.66708189 8.04401732 -13 8 C-13 7.67 -13 7.34 -13 7 C-12.39671875 6.82984375 -11.7934375 6.6596875 -11.171875 6.484375 C-6.48936628 5.06451752 -3.14688851 3.96781594 0 0 Z " fill="#E4BB00" transform="translate(826,193)"/>
<path d="M0 0 C0.66 0.33 1.32 0.66 2 1 C1.67 6.61 1.34 12.22 1 18 C0.67 18 0.34 18 0 18 C-0.33 13.38 -0.66 8.76 -1 4 C-1.99 4.495 -1.99 4.495 -3 5 C-1.125 1.125 -1.125 1.125 0 0 Z " fill="#2F2600" transform="translate(809,177)"/>
<path d="M0 0 C1.98 0 3.96 0 6 0 C6 1.32 6 2.64 6 4 C4.02 4 2.04 4 0 4 C0 2.68 0 1.36 0 0 Z " fill="#141000" transform="translate(813,182)"/>
<path d="M0 0 C0.99 0.33 1.98 0.66 3 1 C2.67 3.97 2.34 6.94 2 10 C1.67 10 1.34 10 1 10 C0.67 6.7 0.34 3.4 0 0 Z " fill="#EBC000" transform="translate(826,181)"/>
</svg>
