<?xml version="1.0" encoding="UTF-8"?>
<svg version="1.1" xmlns="http://www.w3.org/2000/svg" width="700" height="146">
<path d="M0 0 C231 0 462 0 700 0 C700 48.18 700 96.36 700 146 C469 146 238 146 0 146 C0 97.82 0 49.64 0 0 Z " fill="#FDFDFD" transform="translate(0,0)"/>
<path d="M0 0 C10.02375 -0.04125 20.0475 -0.0825 30.375 -0.125 C33.5414209 -0.14320801 36.7078418 -0.16141602 39.97021484 -0.18017578 C42.46712067 -0.18601447 44.96402838 -0.1911115 47.4609375 -0.1953125 C48.76780518 -0.20554443 50.07467285 -0.21577637 51.42114258 -0.22631836 C52.65936768 -0.22656006 53.89759277 -0.22680176 55.17333984 -0.22705078 C56.25255707 -0.231492 57.33177429 -0.23593323 58.44369507 -0.24050903 C61 0 61 0 63 2 C62.44444444 6.55555556 62.44444444 6.55555556 61 8 C59.31198015 8.09353163 57.62004793 8.11744791 55.92944336 8.11352539 C54.83321655 8.11340454 53.73698975 8.11328369 52.60754395 8.11315918 C51.44670288 8.10804321 50.28586182 8.10292725 49.08984375 8.09765625 C48.02930786 8.09664917 46.96877197 8.09564209 45.87609863 8.09460449 C41.89655483 8.08935387 37.91702638 8.07539276 33.9375 8.0625 C25.048125 8.041875 16.15875 8.02125 7 8 C7 42.32 7 76.64 7 112 C41.32 112 75.64 112 111 112 C110.96040675 94.64768959 110.96040675 94.64768959 110.90991211 77.29541016 C110.90699263 75.1266281 110.90444414 72.9578455 110.90234375 70.7890625 C110.89722778 69.6549292 110.89211182 68.5207959 110.88684082 67.35229492 C110.88665955 65.73859009 110.88665955 65.73859009 110.88647461 64.09228516 C110.884254 63.15518707 110.88203339 62.21808899 110.87974548 61.25259399 C111 59 111 59 112 57 C114.375 56.875 114.375 56.875 117 57 C119 59 119 59 119.24050903 61.55630493 C119.23606781 62.63552216 119.23162659 63.71473938 119.22705078 64.82666016 C119.22680908 66.06488525 119.22656738 67.30311035 119.22631836 68.57885742 C119.21608643 69.8857251 119.20585449 71.19259277 119.1953125 72.5390625 C119.19329834 73.73619873 119.19128418 74.93333496 119.18920898 76.16674805 C119.17871878 80.65287082 119.15079639 85.13893913 119.125 89.625 C119.08375 99.64875 119.0425 109.6725 119 120 C79.73 120 40.46 120 0 120 C0 80.4 0 40.8 0 0 Z " fill="#E5682E" transform="translate(3,16)"/>
<path d="M0 0 C5.12511615 3.88768316 7.66361339 7.58090847 10.0546875 13.55859375 C10.0546875 17.84859375 10.0546875 22.13859375 10.0546875 26.55859375 C-4.7953125 26.55859375 -19.6453125 26.55859375 -34.9453125 26.55859375 C-31.02268111 35.91357746 -31.02268111 35.91357746 -23.7578125 41.87109375 C-16.38246976 43.67395531 -10.47913873 42.89027581 -3.7578125 39.43359375 C-1.9453125 38.55859375 -1.9453125 38.55859375 0.0546875 38.55859375 C0.3846875 37.56859375 0.7146875 36.57859375 1.0546875 35.55859375 C2.7046875 36.21859375 4.3546875 36.87859375 6.0546875 37.55859375 C6.0546875 41.55859375 6.0546875 41.55859375 4.83984375 43.15625 C-2.645746 49.52154741 -9.9414172 51.23166862 -19.7265625 50.96875 C-26.37622499 50.12140223 -31.71543988 47.2171193 -36.3203125 42.37109375 C-41.37307859 35.72498381 -43.68820668 28.559154 -43.32421875 20.22265625 C-42.07894636 11.46723591 -36.95483803 4.72342176 -30.27734375 -0.828125 C-21.78106365 -6.17346678 -8.30524407 -4.93560801 0 0 Z " fill="#363636" transform="translate(503.9453125,85.44140625)"/>
<path d="M0 0 C5.54131306 3.49452175 9.48730754 8.72461509 12.375 14.5 C12.375 19.12 12.375 23.74 12.375 28.5 C-2.475 28.5 -17.325 28.5 -32.625 28.5 C-28.97306744 36.71684825 -26.71974354 41.0544679 -18.625 44.5 C-10.53596212 45.72045133 -2.95704678 43.59748737 3.6640625 38.86328125 C4.22867188 38.41339844 4.79328125 37.96351562 5.375 37.5 C6.695 38.49 8.015 39.48 9.375 40.5 C8.42559775 43.91784811 7.5425316 45.36437918 4.75 47.625 C-3.76237708 52.35409838 -10.86215512 53.65179631 -20.625 52.5 C-29.24405864 49.90041797 -34.28595374 44.78825147 -38.5 37.0625 C-40.82655597 29.82902599 -41.05580216 20.67859267 -38.59375 13.48828125 C-31.17930251 0.03929734 -14.47345027 -6.50588755 0 0 Z " fill="#2F2F2F" transform="translate(678.625,83.5)"/>
<path d="M0 0 C3.38998782 2.47092446 5.87507217 5.51576934 7.7578125 9.28125 C9.06371909 24.54170133 9.06371909 24.54170133 4.328125 30.765625 C1.71177037 33.2908628 -0.95266046 34.7295863 -4.2421875 36.28125 C-5.2321875 36.77625 -5.2321875 36.77625 -6.2421875 37.28125 C-13.54397411 38.0545553 -18.82235437 36.53523093 -24.9921875 32.46875 C-28.59850488 28.9626081 -30.08347891 25.61954943 -30.67578125 20.625 C-30.67707031 19.3565625 -30.67835938 18.088125 -30.6796875 16.78125 C-30.69902344 15.5128125 -30.71835938 14.244375 -30.73828125 12.9375 C-30.01448965 7.60309892 -27.39074586 3.83945367 -23.2421875 0.46875 C-16.4277581 -4.50010477 -7.21049614 -4.08692089 0 0 Z " fill="#FBFBFB" transform="translate(250.2421875,91.71875)"/>
<path d="M0 0 C0.70511719 0.00974854 1.41023438 0.01949707 2.13671875 0.02954102 C10.53673098 0.31634699 14.63070615 2.7047548 20.375 8.625 C25.72736952 15.06046198 27.71695411 21.5443582 27.40625 29.89453125 C26.30147722 38.067339 22.38435928 45.15101266 16.0625 50.4375 C8.748867 55.06903145 0.49545778 55.55333633 -7.9375 54.4375 C-15.53658106 52.00534574 -21.00618468 46.34041175 -25.03515625 39.6015625 C-28.0855265 32.87656017 -28.24066319 24.60762222 -26.05859375 17.625 C-22.8658125 10.71257592 -18.51162729 5.27858613 -11.70703125 1.7734375 C-7.69882325 0.35291197 -4.20142374 -0.06489268 0 0 Z M-15.3125 14 C-20.23396361 20.11893203 -19.62209677 26.89915598 -18.9375 34.4375 C-16.95237538 40.19607271 -13.29388567 43.58835868 -7.9375 46.4375 C-2.07178975 48.2055756 3.76089748 48.3524251 9.375 45.75 C14.05380163 43.11759272 17.07515352 39.40586621 19.0625 34.4375 C19.455681 30.90674298 19.455681 30.90674298 19.4375 27.0625 C19.48003906 25.13277344 19.48003906 25.13277344 19.5234375 23.1640625 C18.8597426 17.79825799 16.53127491 14.79329223 12.625 11.1875 C3.62768688 5.04299348 -7.90728844 5.57701055 -15.3125 14 Z " fill="#353535" transform="translate(238.9375,81.5625)"/>
<path d="M0 0 C3.03660011 1.73445598 4.06666829 2.69375244 6.0625 5.6875 C4.4125 7.0075 2.7625 8.3275 1.0625 9.6875 C0.2375 9.0275 -0.5875 8.3675 -1.4375 7.6875 C-5.46711767 5.36590957 -9.51478869 5.23697646 -14.0625 5.1875 C-14.75537109 5.16945313 -15.44824219 5.15140625 -16.16210938 5.1328125 C-19.7738374 5.17444625 -21.82539577 5.61665841 -24.8984375 7.55859375 C-27.14439457 9.51952812 -27.14439457 9.51952812 -27.4375 12.25 C-26.84349898 15.14575497 -26.21322703 15.85720108 -23.9375 17.6875 C-21.65426613 18.48584125 -21.65426613 18.48584125 -19.078125 18.93359375 C-18.12679688 19.13146484 -17.17546875 19.32933594 -16.1953125 19.53320312 C-14.2058866 19.92462913 -12.21630545 20.31526701 -10.2265625 20.70507812 C-3.51342031 22.10289547 1.73718832 23.7912608 7 28.375 C9.2118943 33.18912289 8.60331258 38.0951074 6.9375 43 C3.72699051 47.60173027 -0.69252262 49.95879077 -5.9375 51.6875 C-15.49091958 52.66233873 -23.88280854 52.51966407 -31.9375 46.6875 C-33.81518857 45.10493788 -35.33308546 43.55931696 -36.9375 41.6875 C-35.88875002 39.06562506 -35.28818687 37.89378639 -32.8125 36.4375 C-32.19375 36.19 -31.575 35.9425 -30.9375 35.6875 C-30.23625 36.450625 -29.535 37.21375 -28.8125 38 C-23.07177367 43.36633114 -18.46882859 44.17493992 -10.7890625 43.984375 C-6.16220103 43.50267435 -3.18421594 41.93421594 0.0625 38.6875 C0.64652133 36.27332128 0.64652133 36.27332128 0.0625 33.6875 C-4.74690713 28.55419402 -10.76050126 28.35392859 -17.36914062 27.35351562 C-23.29714352 26.33792569 -28.36247592 24.75723762 -32.9375 20.6875 C-35.46702009 16.41121033 -35.48653027 12.55033957 -34.9375 7.6875 C-33.09616581 3.08416452 -30.15716689 1.14897235 -25.9375 -1.3125 C-18.11800684 -3.91899772 -7.42002929 -3.62297618 0 0 Z " fill="#343434" transform="translate(365.9375,84.3125)"/>
<path d="M0 0 C2.31 0 4.62 0 7 0 C7 1.98 7 3.96 7 6 C7.47050781 5.65066406 7.94101562 5.30132812 8.42578125 4.94140625 C9.04839844 4.48636719 9.67101562 4.03132813 10.3125 3.5625 C10.92738281 3.11003906 11.54226563 2.65757813 12.17578125 2.19140625 C17.97420786 -1.59557473 26.36021725 -0.56258258 33 0 C39.47991136 2.06661852 43.5707257 7.32805151 47 13 C48.27385127 16.8215538 48.12353188 20.4068447 48.09765625 24.38671875 C48.0962413 25.20372757 48.09482635 26.02073639 48.09336853 26.86250305 C48.08777294 29.47087268 48.07522129 32.07915634 48.0625 34.6875 C48.05748443 36.45637897 48.05292162 38.22525928 48.04882812 39.99414062 C48.03780496 44.32946019 48.02054338 48.66471552 48 53 C45.69 53 43.38 53 41 53 C40.99589111 51.98164063 40.99178223 50.96328125 40.98754883 49.9140625 C40.96563287 46.10415328 40.91121704 42.29525866 40.84741211 38.48583984 C40.82433992 36.84303577 40.80986187 35.20008605 40.80444336 33.55712891 C41.04615949 21.81264621 41.04615949 21.81264621 36.45581055 11.3125 C32.28404347 7.55140327 28.13605499 7.63199942 22.7578125 7.75390625 C18.74706678 8.11180566 16.45662481 8.8836991 13 11 C8.69809982 16.43397917 7.84306475 20.77170279 7.68359375 27.51171875 C7.66281265 28.23994339 7.64203156 28.96816803 7.62062073 29.71846008 C7.55531254 32.04137875 7.49632763 34.36440906 7.4375 36.6875 C7.39429695 38.26368335 7.35068208 39.83985548 7.30664062 41.41601562 C7.1996504 45.27722975 7.09833039 49.13855603 7 53 C4.69 53 2.38 53 0 53 C0 35.51 0 18.02 0 0 Z " fill="#323232" transform="translate(527,82)"/>
<path d="M0 0 C1.27182912 0.84295651 2.5253842 1.71481258 3.75 2.625 C4.74 3.285 5.73 3.945 6.75 4.625 C6.4083151 7.18763679 6.04870699 8.34927047 4.125 10.125 C0.75429855 10.83462136 -0.85003697 9.46820779 -3.6640625 7.66796875 C-4.18742187 7.32378906 -4.71078125 6.97960937 -5.25 6.625 C-9.50628578 4.49685711 -14.64065119 5.03188526 -19.25 5.625 C-23.90363656 7.57979791 -27.16429264 10.27609085 -30.3125 14.1875 C-32.10122464 20.74615701 -32.25418826 27.66528723 -30.0625 34.125 C-27.25821061 37.99298537 -24.85762016 41.08912661 -20.25 42.625 C-11.99296063 43.25776307 -6.15103208 43.27569553 0.75 38.625 C3.0625 38.625 3.0625 38.625 4.75 39.625 C6 41.6875 6 41.6875 6.75 43.625 C-0.25755992 50.10699292 -6.59923969 52.29825027 -16.21484375 52.04296875 C-23.51669944 51.0374365 -29.57375296 47.26400378 -34.25 41.625 C-40.05793924 33.71974936 -40.36333289 25.175194 -39.25 15.625 C-36.82347144 7.71429928 -31.03884277 2.99302673 -24.25 -1.25 C-16.77114878 -4.05879933 -6.97756421 -3.86625689 0 0 Z " fill="#363636" transform="translate(423.25,84.375)"/>
<path d="M0 0 C2.20969031 1.21675396 4.14498125 2.60410647 6.12109375 4.16796875 C5.77940885 6.73060554 5.41980074 7.89223922 3.49609375 9.66796875 C0.1253923 10.37759011 -1.47894322 9.01117654 -4.29296875 7.2109375 C-4.81632813 6.86675781 -5.3396875 6.52257812 -5.87890625 6.16796875 C-10.35953245 3.92765565 -16.53167917 4.48901877 -21.2421875 5.8515625 C-25.94980412 7.98816439 -28.41073266 10.5278024 -30.87890625 15.16796875 C-32.73782487 20.74472461 -32.83492183 27.48543304 -30.75390625 33.04296875 C-27.8698682 37.84969883 -24.08488232 40.97547048 -18.87890625 43.16796875 C-12.7532228 44.06390204 -7.97759297 43.29250832 -2.66796875 40.140625 C-0.72183468 39.08257394 0.93007368 38.49525806 3.12109375 38.16796875 C4.87109375 39.60546875 4.87109375 39.60546875 6.12109375 41.16796875 C4.30587025 46.25059454 0.1571172 48.19843378 -4.50390625 50.41796875 C-12.73052764 52.24610684 -20.12791715 52.06973998 -27.55078125 47.85546875 C-33.58842752 43.47918823 -38.02582838 38.46446288 -39.87890625 31.16796875 C-40.83113286 22.41480877 -41.0207338 14.65702446 -35.7265625 7.22265625 C-25.98898741 -3.60602133 -13.3525272 -5.87691332 0 0 Z " fill="#353535" transform="translate(625.87890625,84.83203125)"/>
<path d="M0 0 C2.625 2.25 2.625 2.25 4 4 C3.34 5.32 2.68 6.64 2 8 C-1.94744599 8 -2.50006871 7.90492486 -5.5625 6 C-10.62083387 3.34319287 -15.40193137 3.29594842 -21 4 C-26.3308818 5.87568063 -30.5743247 9.11375524 -33.1171875 14.26171875 C-34.86189379 19.67339624 -35.36406128 26.79742135 -33.1015625 32.109375 C-31.91816429 33.86273013 -31.91816429 33.86273013 -30 36 C-30 36.66 -30 37.32 -30 38 C-28.88625 38.433125 -28.88625 38.433125 -27.75 38.875 C-25 40 -25 40 -23.09375 41.05078125 C-18.13689432 43.29801246 -12.54965815 42.41456312 -7.5625 40.625 C-4.0325667 39.26582419 -4.0325667 39.26582419 -2 37 C0 37.125 0 37.125 2 38 C3.25 40.0625 3.25 40.0625 4 42 C-3.14486427 48.44780434 -8.86790988 50.72995458 -18.578125 50.47265625 C-26.17278843 49.42362169 -32.82818375 46.03957494 -37.625 40 C-42.69808758 32.62096351 -42.63282971 24.64208074 -42 16 C-40.5881003 9.00668429 -36.65567587 4.03413471 -31.0625 -0.25 C-21.08708308 -5.95023824 -9.99970417 -5.58474044 0 0 Z " fill="#333333" transform="translate(316,86)"/>
<path d="M0 0 C0.99 0.99 0.99 0.99 2 2 C2.66 1.67 3.32 1.34 4 1 C4 19.81 4 38.62 4 58 C-22.3336616 58.04010881 -22.3336616 58.04010881 -33.53320312 58.04882812 C-41.18400768 58.05481275 -48.8348003 58.06190297 -56.4855957 58.07543945 C-62.65175698 58.08628128 -68.81790547 58.0922796 -74.98407555 58.09487724 C-77.34006642 58.09672914 -79.69605656 58.10034528 -82.05204201 58.10573006 C-85.34436192 58.11295762 -88.63662854 58.11399021 -91.92895508 58.11352539 C-93.39954376 58.1189183 -93.39954376 58.1189183 -94.89984131 58.12442017 C-95.79586563 58.1230455 -96.69188995 58.12167084 -97.61506653 58.12025452 C-98.3939816 58.12117631 -99.17289667 58.1220981 -99.97541523 58.12304783 C-102 58 -102 58 -105 57 C-104.67 56.01 -104.34 55.02 -104 54 C-70.01 54 -36.02 54 -1 54 C-1.40808417 36.97652752 -1.40808417 36.97652752 -1.83837891 19.95361328 C-1.88524841 17.82586401 -1.93136197 15.69809788 -1.9765625 13.5703125 C-2.00838623 12.457771 -2.04020996 11.34522949 -2.07299805 10.19897461 C-2.09354248 9.14347412 -2.11408691 8.08797363 -2.13525391 7.00048828 C-2.16856308 5.62148849 -2.16856308 5.62148849 -2.20254517 4.21463013 C-2 2 -2 2 0 0 Z " fill="#F16528" transform="translate(117,77)"/>
<path d="M0 0 C2.31 0 4.62 0 7 0 C7.33 1.65 7.66 3.3 8 5 C8.44988281 4.6390625 8.89976562 4.278125 9.36328125 3.90625 C15.13551806 -0.25808918 19.98285265 -0.99947499 27 0 C29.56694914 0.78163157 31.61809351 1.72964987 34 3 C33.67 4.65 33.34 6.3 33 8 C29.25 9.125 29.25 9.125 27 8 C22.29302583 7.42574915 18.87855208 7.54445448 14.625 9.75 C11.24406894 12.64794091 9.40820705 14.77537886 8 19 C7.84677641 21.58330229 7.74293111 24.14492239 7.68359375 26.73046875 C7.66281265 27.48088943 7.64203156 28.23131012 7.62062073 29.00447083 C7.55530074 31.39872184 7.49632208 33.79308139 7.4375 36.1875 C7.39429807 37.81186013 7.35068324 39.43620933 7.30664062 41.06054688 C7.19963737 45.04025371 7.09832063 49.02006958 7 53 C4.69 53 2.38 53 0 53 C0 35.51 0 18.02 0 0 Z " fill="#363636" transform="translate(173,82)"/>
<path d="M0 0 C1.2065625 1.11375 1.2065625 1.11375 2.4375 2.25 C3.55125 3.2090625 3.55125 3.2090625 4.6875 4.1875 C7.75874868 7.80718595 8.4375 10.52250535 8.4375 15.25 C-4.4325 15.25 -17.3025 15.25 -30.5625 15.25 C-28.56672961 7.26691845 -27.43686479 3.671478 -20.5625 -0.625 C-14.05193053 -3.01459363 -6.18082165 -3.03619309 0 0 Z " fill="#F4F4F4" transform="translate(676.5625,90.75)"/>
<path d="M0 0 C2.44937342 2.39196623 4.46022333 4.92044666 6 8 C6 9.98 6 11.96 6 14 C-6.54 14 -19.08 14 -32 14 C-30.89632279 7.37793677 -29.37447907 4.19639314 -24.5 -0.3125 C-17.46143307 -5.06353268 -7.06296167 -4.237777 0 0 Z " fill="#F6F6F6" transform="translate(501,92)"/>
<path d="M0 0 C2.375 -0.125 2.375 -0.125 5 0 C7 2 7 2 7.24050903 4.55630493 C7.23606781 5.63552216 7.23162659 6.71473938 7.22705078 7.82666016 C7.22689972 9.04777496 7.22674866 10.26888977 7.22659302 11.52700806 C7.21637903 12.86436118 7.20594702 14.20171265 7.1953125 15.5390625 C7.1915828 16.90383701 7.18873563 18.26861419 7.18673706 19.63339233 C7.17909714 23.22720723 7.15944572 26.82086073 7.1373291 30.41461182 C7.11687832 34.08107317 7.107737 37.74756057 7.09765625 41.4140625 C7.07620003 48.60944862 7.04205992 55.8047017 7 63 C6.67 63 6.34 63 6 63 C5.67 59.7 5.34 56.4 5 53 C4.67 53 4.34 53 4 53 C3.67 37.49 3.34 21.98 3 6 C2.34 6 1.68 6 1 6 C1 23.16 1 40.32 1 58 C-49.985 58.495 -49.985 58.495 -102 59 C-102.33 59.66 -102.66 60.32 -103 61 C-102.01 61.33 -101.02 61.66 -100 62 C-101.65 62 -103.3 62 -105 62 C-105 59.69 -105 57.38 -105 55 C-70.68 55 -36.36 55 -1 55 C-1.03959325 37.64768959 -1.03959325 37.64768959 -1.09008789 20.29541016 C-1.09300737 18.1266281 -1.09555586 15.9578455 -1.09765625 13.7890625 C-1.10277222 12.6549292 -1.10788818 11.5207959 -1.11315918 10.35229492 C-1.11334045 8.73859009 -1.11334045 8.73859009 -1.11352539 7.09228516 C-1.115746 6.15518707 -1.11796661 5.21808899 -1.12025452 4.25259399 C-1 2 -1 2 0 0 Z " fill="#E77B48" transform="translate(115,73)"/>
<path d="M0 0 C2.31 0 4.62 0 7 0 C7 17.49 7 34.98 7 53 C4.69 53 2.38 53 0 53 C0 35.51 0 18.02 0 0 Z " fill="#2F2F2F" transform="translate(442,82)"/>
<path d="M0 0 C0.556875 0.7425 1.11375 1.485 1.6875 2.25 C5.30566511 6.55268283 9.49945954 10.47184828 15.2265625 11.3359375 C23.56641196 11.47176567 30.45163861 9.21775828 37 4 C38.32 4.99 39.64 5.98 41 7 C40.05059775 10.41784811 39.1675316 11.86437918 36.375 14.125 C27.87870732 18.8451626 20.74778016 20.1802245 11 19 C5.6273077 17.22785542 0.48149955 14.5892494 -3 10 C-3 9.34 -3 8.68 -3 8 C-2.34 7.67 -1.68 7.34 -1 7 C-0.59270772 4.67843403 -0.25561323 2.3431213 0 0 Z " fill="#363636" transform="translate(647,117)"/>
<path d="M0 0 C15 0 30 0 45 0 C45 1.98 45 3.96 45 6 C30.15 6 15.3 6 0 6 C0.66 4.68 1.32 3.36 2 2 C1.34 1.34 0.68 0.68 0 0 Z " fill="#2B2B2B" transform="translate(469,106)"/>
<path d="M0 0 C1.65 0.66 3.3 1.32 5 2 C5 6 5 6 3.64453125 7.6328125 C3.03996094 8.12523437 2.43539063 8.61765625 1.8125 9.125 C1.22082031 9.62257812 0.62914062 10.12015625 0.01953125 10.6328125 C-4.8057865 13.89946861 -9.33745467 14.39027231 -15.0625 14.4375 C-16.12307617 14.48680664 -16.12307617 14.48680664 -17.20507812 14.53710938 C-21.04143775 14.57673375 -22.65791647 14.32066985 -25.49609375 11.66015625 C-27 9 -27 9 -27 6 C-26.38125 6.165 -25.7625 6.33 -25.125 6.5 C-17.51801259 7.71711798 -11.73177289 7.4334832 -4.8125 3.875 C-3 3 -3 3 -1 3 C-0.67 2.01 -0.34 1.02 0 0 Z " fill="#333333" transform="translate(505,121)"/>
<path d="M0 0 C0.99 0.66 1.98 1.32 3 2 C3.99 1.67 4.98 1.34 6 1 C5.83886719 1.99773437 5.67773438 2.99546875 5.51171875 4.0234375 C4.96083394 7.89815652 4.8324395 11.70888279 4.8125 15.625 C4.79123047 17.53152344 4.79123047 17.53152344 4.76953125 19.4765625 C4.98724335 22.8049746 5.55759517 25.02397107 7 28 C6.030625 28.28875 5.06125 28.5775 4.0625 28.875 C0.89335797 29.64214682 0.89335797 29.64214682 0 32 C-4.17000265 23.75307511 -5.98399171 15.19142239 -3.09375 6.171875 C-2.15588611 4.04158417 -1.16537602 2.01339517 0 0 Z " fill="#3B3B3B" transform="translate(216,93)"/>
<path d="M0 0 C2.25709674 1.28976957 2.82603314 2.61308562 3.75 5 C-2.30431047 10.35032088 -6.23909451 12.28057767 -14.5625 12.125 C-15.81675781 12.10695312 -17.07101562 12.08890625 -18.36328125 12.0703125 C-19.31589844 12.04710937 -20.26851563 12.02390625 -21.25 12 C-21.25 10.02 -21.25 8.04 -21.25 6 C-19.94675781 5.85304687 -19.94675781 5.85304687 -18.6171875 5.703125 C-11.22461875 4.97847923 -11.22461875 4.97847923 -4.6875 1.8125 C-2.25 0 -2.25 0 0 0 Z " fill="#313131" transform="translate(316.25,123)"/>
<path d="M0 0 C1.13598633 0.00483398 1.13598633 0.00483398 2.29492188 0.00976562 C3.47344727 0.02233398 3.47344727 0.02233398 4.67578125 0.03515625 C5.47306641 0.03966797 6.27035156 0.04417969 7.09179688 0.04882812 C9.05732382 0.06059775 11.0228121 0.07853277 12.98828125 0.09765625 C11.78446677 2.59127196 10.53399403 4.77908708 8.98828125 7.09765625 C6.046875 7.72265625 6.046875 7.72265625 2.42578125 8.09765625 C-3.44713377 8.81135756 -8.49181342 10.00389906 -14.01171875 12.09765625 C-13.21286821 7.83106813 -11.13563004 6.06537197 -8.01171875 3.09765625 C-7.68171875 2.43765625 -7.35171875 1.77765625 -7.01171875 1.09765625 C-4.30455633 0.19526878 -2.77395107 -0.02085677 0 0 Z " fill="#3A3A3A" transform="translate(661.01171875,81.90234375)"/>
<path d="M0 0 C1.66666667 0 3.33333333 0 5 0 C5.268125 0.639375 5.53625 1.27875 5.8125 1.9375 C6.88667752 4.33131686 6.88667752 4.33131686 10 5 C10 16.22 10 27.44 10 39 C9.67 39 9.34 39 9 39 C9 30.75 9 22.5 9 14 C8.01 13.67 7.02 13.34 6 13 C6 22.57 6 32.14 6 42 C7.32 42.33 8.64 42.66 10 43 C10 43.66 10 44.32 10 45 C8.02 45 6.04 45 4 45 C3.98541748 43.98164063 3.97083496 42.96328125 3.95581055 41.9140625 C3.89745571 38.10431328 3.82022822 34.29513234 3.73754883 30.48583984 C3.70447322 28.84303063 3.67638823 27.20011253 3.65356445 25.55712891 C3.61969595 23.183451 3.56736925 20.81075559 3.51171875 18.4375 C3.50213387 17.35106201 3.50213387 17.35106201 3.49235535 16.24267578 C3.34215181 10.92995639 2.00647763 6.91725502 0 2 C0 1.34 0 0.68 0 0 Z " fill="#2D2D2D" transform="translate(564,90)"/>
<path d="M0 0 C4 4.75 4 4.75 4 7 C4.7425 7.28875 5.485 7.5775 6.25 7.875 C8.56739797 8.82302644 10.77917115 9.84845911 13 11 C13 11.66 13 12.32 13 13 C13.66 13.33 14.32 13.66 15 14 C14.67 14.99 14.34 15.98 14 17 C17.63 17.33 21.26 17.66 25 18 C25 18.33 25 18.66 25 19 C15.43543863 19.83304244 7.93795071 18.72057275 0 13 C-1.38671875 10.953125 -1.38671875 10.953125 -2 9 C-1.125 6.5 -1.125 6.5 0 4 C0 2.68 0 1.36 0 0 Z " fill="#3C3C3C" transform="translate(282,117)"/>
<path d="M0 0 C1.98 0 3.96 0 6 0 C6 1.65 6 3.3 6 5 C5.67 3.68 5.34 2.36 5 1 C3.68 1 2.36 1 1 1 C1.33 17.17 1.66 33.34 2 50 C2.99 50.33 3.98 50.66 5 51 C4.95399658 50.01080566 4.90799316 49.02161133 4.8605957 48.00244141 C4.69426966 44.33909555 4.54805187 40.67517733 4.40795898 37.01074219 C4.34445374 35.42359829 4.27546571 33.83666404 4.20092773 32.25 C4.09484348 29.97168053 4.00837833 27.6933391 3.92578125 25.4140625 C3.88842361 24.70255035 3.85106598 23.99103821 3.81257629 23.25796509 C3.7512207 21.25634766 3.7512207 21.25634766 4 18 C4.99 17.34 5.98 16.68 7 16 C7 27.88 7 39.76 7 52 C4.69 52 2.38 52 0 52 C0 34.84 0 17.68 0 0 Z " fill="#2C2C2C" transform="translate(173,83)"/>
<path d="M0 0 C2.31 0 4.62 0 7 0 C7 1.98 7 3.96 7 6 C6.67 4.68 6.34 3.36 6 2 C4.68 2 3.36 2 2 2 C2.33 2.99 2.66 3.98 3 5 C3.08705429 6.58033192 3.11767952 8.16410378 3.11352539 9.74682617 C3.11344986 10.70759567 3.11337433 11.66836517 3.11329651 12.6582489 C3.10813522 13.69270645 3.10297394 14.727164 3.09765625 15.79296875 C3.09553383 17.38471672 3.09553383 17.38471672 3.09336853 19.00862122 C3.08776606 22.40160935 3.07521314 25.79453177 3.0625 29.1875 C3.05748532 31.48632717 3.05292236 33.78515538 3.04882812 36.08398438 C3.03779583 41.72267872 3.0210553 47.36133466 3 53 C2.01 53 1.02 53 0 53 C0 35.51 0 18.02 0 0 Z " fill="#383838" transform="translate(527,82)"/>
<path d="M0 0 C0.66 0 1.32 0 2 0 C3.66666667 1.66666667 5.33333333 3.33333333 7 5 C8.63377642 6.05287814 10.29181597 7.0727001 12 8 C11.67 9.98 11.34 11.96 11 14 C4.07011948 13.85562749 0.80239407 10.77744657 -4 6 C-2.84826645 3.53199953 -1.95216435 1.95216435 0 0 Z " fill="#313131" transform="translate(333,120)"/>
<path d="M0 0 C0.66 0 1.32 0 2 0 C3.58410596 9.83178808 3.58410596 9.83178808 1.5 14 C-2.92186722 17.53749378 -7.2833215 19.51969805 -13 19 C-12.01 18.67 -11.02 18.34 -10 18 C-9.938125 17.236875 -9.87625 16.47375 -9.8125 15.6875 C-9.544375 14.800625 -9.27625 13.91375 -9 13 C-7.7625 12.38125 -7.7625 12.38125 -6.5 11.75 C-3.81690967 10.27792199 -3.81690967 10.27792199 -3.44921875 7.81640625 C-3.21111223 5.5384021 -3.05279544 3.2894024 -3 1 C-2.34 1.33 -1.68 1.66 -1 2 C-0.67 1.34 -0.34 0.68 0 0 Z M-2 7 C-2.33 7.66 -2.66 8.32 -3 9 C-2.34 9 -1.68 9 -1 9 C-1.33 8.34 -1.66 7.68 -2 7 Z " fill="#303030" transform="translate(370,116)"/>
<path d="M0 0 C5.28 0.66 10.56 1.32 16 2 C16.33 3.98 16.66 5.96 17 8 C14.91846065 8.13536022 12.83438794 8.23215465 10.75 8.3125 C9.58984375 8.37050781 8.4296875 8.42851562 7.234375 8.48828125 C4 8 4 8 1.578125 5.66796875 C0 3 0 3 0 0 Z " fill="#2D2D2D" transform="translate(478,127)"/>
<path d="M0 0 C2.5625 0.3125 2.5625 0.3125 4.375 1.5 C5.96449375 3.9260694 5.92737512 5.46647406 5.5625 8.3125 C3.5625 10.3125 3.5625 10.3125 0.5625 10.5625 C-2.4375 10.3125 -2.4375 10.3125 -4.4375 8.3125 C-4.6875 5.3125 -4.6875 5.3125 -4.4375 2.3125 C-2.4375 0.3125 -2.4375 0.3125 0 0 Z " fill="#343434" transform="translate(445.4375,64.6875)"/>
<path d="M0 0 C0.33 0 0.66 0 1 0 C0.97679687 0.74765625 0.95359375 1.4953125 0.9296875 2.265625 C0.91164063 3.25046875 0.89359375 4.2353125 0.875 5.25 C0.85179687 6.22453125 0.82859375 7.1990625 0.8046875 8.203125 C1.02704044 11.38721916 1.71152562 13.71152562 4 16 C4.66 15.01 5.32 14.02 6 13 C6.39222105 14.41199578 6.76311059 15.82992764 7.125 17.25 C7.33382813 18.03890625 7.54265625 18.8278125 7.7578125 19.640625 C8.04314411 22.4203071 7.44977894 23.65887549 6 26 C3 25 3 25 1.83203125 23.42578125 C-1.54865297 16.41830936 -1.62230994 9.68195717 -1 2 C-0.67 1.34 -0.34 0.68 0 0 Z " fill="#2E2E2E" transform="translate(275,100)"/>
<path d="M0 0 C0.58136719 0.23074219 1.16273438 0.46148437 1.76171875 0.69921875 C1.43171875 1.68921875 1.10171875 2.67921875 0.76171875 3.69921875 C1.42171875 4.35921875 2.08171875 5.01921875 2.76171875 5.69921875 C0.12171875 8.66921875 -2.51828125 11.63921875 -5.23828125 14.69921875 C-5.56828125 14.03921875 -5.89828125 13.37921875 -6.23828125 12.69921875 C-5.30078125 10.57421875 -5.30078125 10.57421875 -4.23828125 8.69921875 C-6.21828125 9.68921875 -6.21828125 9.68921875 -8.23828125 10.69921875 C-8.9375 8.9375 -8.9375 8.9375 -9.23828125 6.69921875 C-7.9453125 4.7421875 -7.9453125 4.7421875 -6.05078125 2.88671875 C-5.43847656 2.26152344 -4.82617188 1.63632813 -4.1953125 0.9921875 C-2.23828125 -0.30078125 -2.23828125 -0.30078125 0 0 Z " fill="#2F2F2F" transform="translate(226.23828125,85.30078125)"/>
<path d="M0 0 C2.51033417 1.1336993 2.96441202 2.36118938 3.9375 4.875 C1.22567788 7.47834924 0.04616187 7.86956691 -3.8125 8.0625 C-5.42125 7.9696875 -5.42125 7.9696875 -7.0625 7.875 C-4.75550518 -0.28821244 -4.75550518 -0.28821244 0 0 Z " fill="#313131" transform="translate(426.0625,123.125)"/>
<path d="M0 0 C0.33 1.98 0.66 3.96 1 6 C-3.75 10 -3.75 10 -6 10 C-7.35439668 7.29120665 -7.06501451 4.99066732 -7 2 C-4.35261084 0.5393715 -3.10551666 0 0 0 Z " fill="#353535" transform="translate(479,84)"/>
<path d="M0 0 C2.475 0.99 2.475 0.99 5 2 C5 2.99 5 3.98 5 5 C4.01 5.495 4.01 5.495 3 6 C3.66 7.98 4.32 9.96 5 12 C3.49460339 11.05016642 1.99579653 10.08988109 0.5 9.125 C-0.3353125 8.59132813 -1.170625 8.05765625 -2.03125 7.5078125 C-2.6809375 7.01023437 -3.330625 6.51265625 -4 6 C-4 4 -4 4 -2 1.875 C-1.34 1.25625 -0.68 0.6375 0 0 Z " fill="#313131" transform="translate(251,85)"/>
<path d="M0 0 C2.51033417 1.1336993 2.96441202 2.36118938 3.9375 4.875 C1.9575 5.865 1.9575 5.865 -0.0625 6.875 C0.9275 8.36 0.9275 8.36 1.9375 9.875 C-0.92457152 8.59200242 -3.0870088 7.344364 -5.0625 4.875 C-5.0625 3.885 -5.0625 2.895 -5.0625 1.875 C-2.0625 -0.125 -2.0625 -0.125 0 0 Z " fill="#2C2C2C" transform="translate(222.0625,121.125)"/>
<path d="M0 0 C-0.165 0.763125 -0.33 1.52625 -0.5 2.3125 C-1.09145396 5.03596236 -1.09145396 5.03596236 -1 8 C0.30456502 9.45034604 0.30456502 9.45034604 2 10.6875 C3.485 11.8321875 3.485 11.8321875 5 13 C4.01 13.33 3.02 13.66 2 14 C0.63080716 12.59785066 -0.71998709 11.17771527 -2.0625 9.75 C-2.81660156 8.96109375 -3.57070313 8.1721875 -4.34765625 7.359375 C-6 5 -6 5 -5.93359375 2.765625 C-4.55896425 0.16590729 -2.81390265 0 0 0 Z " fill="#2D2D2D" transform="translate(594,117)"/>
<path d="M0 0 C-0.33 1.98 -0.66 3.96 -1 6 C-3.64 5.34 -6.28 4.68 -9 4 C-8.34 3.67 -7.68 3.34 -7 3 C-7 2.01 -7 1.02 -7 0 C-4.3333581 -1.33332095 -2.83319697 -0.67102033 0 0 Z " fill="#313131" transform="translate(368,109)"/>
<path d="M0 0 C0.99 0 1.98 0 3 0 C3.33 0.66 3.66 1.32 4 2 C7.28491373 4.18994248 8.83095639 4.35277339 12.6875 4.625 C13.68136719 4.69976562 14.67523438 4.77453125 15.69921875 4.8515625 C16.45847656 4.90054688 17.21773438 4.94953125 18 5 C18 5.33 18 5.66 18 6 C4.3667426 6.55353075 4.3667426 6.55353075 -2 3 C-1.34 2.01 -0.68 1.02 0 0 Z " fill="#494949" transform="translate(476,130)"/>
<path d="M0 0 C1.9375 0.1875 1.9375 0.1875 4 1 C5.25 3.0625 5.25 3.0625 6 5 C2.375 8 2.375 8 -1 8 C-1.04241723 5.66705225 -1.04092937 3.33297433 -1 1 C-0.67 0.67 -0.34 0.34 0 0 Z " fill="#2E2E2E" transform="translate(626,123)"/>
<path d="M0 0 C2.0625 1.75 2.0625 1.75 4 4 C3.75 6.25 3.75 6.25 3 8 C0.69 7.67 -1.62 7.34 -4 7 C-3.525625 6.21625 -3.05125 5.4325 -2.5625 4.625 C-1.66101977 3.11051322 -0.78820515 1.5764103 0 0 Z " fill="#474747" transform="translate(345,128)"/>
<path d="M0 0 C2.66710654 0.15240609 4.4505871 0.49364919 6.4453125 2.33203125 C10 6.50625 10 6.50625 10 9 C8.68 8.34 7.36 7.68 6 7 C6 6.01 6 5.02 6 4 C5.34 4 4.68 4 4 4 C3.67 3.34 3.34 2.68 3 2 C2.01 1.34 1.02 0.68 0 0 Z M2 4 C2.66 4 3.32 4 4 4 C3.67 4.66 3.34 5.32 3 6 C2.67 5.34 2.34 4.68 2 4 Z " fill="#2D2D2D" transform="translate(563,86)"/>
<path d="M0 0 C0.66 0 1.32 0 2 0 C2.33 1.98 2.66 3.96 3 6 C1.35 6.33 -0.3 6.66 -2 7 C-2 3 -2 3 0 0 Z " fill="#2E2E2E" transform="translate(477,84)"/>
<path d="M0 0 C0.33 0.66 0.66 1.32 1 2 C0.34 1.67 -0.32 1.34 -1 1 C-0.67 0.67 -0.34 0.34 0 0 Z M-3 1 C-2.34 1.66 -1.68 2.32 -1 3 C-2.125 4.5 -2.125 4.5 -4 6 C-7.1875 6.1875 -7.1875 6.1875 -10 6 C-9.01 5.34 -8.02 4.68 -7 4 C-5.66209359 3.00612666 -4.32781878 2.0073108 -3 1 Z " fill="#3F3F3F" transform="translate(368,123)"/>
<path d="M0 0 C1.875 0.25 1.875 0.25 4 1 C5.25 3.0625 5.25 3.0625 6 5 C4.02 5.99 4.02 5.99 2 7 C2.33 5.68 2.66 4.36 3 3 C1.68 3 0.36 3 -1 3 C-0.67 2.01 -0.34 1.02 0 0 Z " fill="#2B2B2B" transform="translate(314,123)"/>
<path d="M0 0 C0.99 0.33 1.98 0.66 3 1 C2.25 3.4375 2.25 3.4375 1 6 C-1.125 6.8125 -1.125 6.8125 -3 7 C-2.01 4.69 -1.02 2.38 0 0 Z " fill="#2B2B2B" transform="translate(685,123)"/>
<path d="M0 0 C1.65 0 3.3 0 5 0 C5.33 0.99 5.66 1.98 6 3 C4.68 3 3.36 3 2 3 C1.34 3.99 0.68 4.98 0 6 C0 4.02 0 2.04 0 0 Z " fill="#D66733" transform="translate(115,73)"/>
</svg>
