<?xml version="1.0" standalone="no"?>
<!DOCTYPE svg PUBLIC "-//W3C//DTD SVG 20010904//EN"
 "http://www.w3.org/TR/2001/REC-SVG-20010904/DTD/svg10.dtd">
<svg version="1.0" xmlns="http://www.w3.org/2000/svg"
 width="512.000000pt" height="512.000000pt" viewBox="0 0 512.000000 512.000000"
 preserveAspectRatio="xMidYMid meet">

<g transform="translate(0.000000,512.000000) scale(0.100000,-0.100000)"
fill="#000000" stroke="none">
<path d="M2480 5109 c-421 -43 -792 -225 -1008 -493 -104 -129 -161 -227 -212
-367 -71 -192 -95 -350 -87 -581 7 -221 50 -453 146 -780 l20 -68 -281 0
c-310 0 -335 -4 -398 -58 -133 -113 -110 -319 44 -400 l51 -27 361 -3 362 -3
10 -42 c6 -23 18 -91 27 -152 24 -152 17 -464 -14 -617 -59 -291 -170 -503
-356 -676 -84 -79 -240 -187 -320 -222 -183 -82 -233 -111 -282 -163 -66 -69
-88 -134 -72 -210 28 -133 136 -230 273 -244 45 -5 64 0 137 32 206 91 471
179 664 220 180 38 282 50 435 49 169 0 226 -11 825 -154 578 -139 602 -143
780 -137 221 8 433 57 735 168 170 62 196 75 243 123 122 120 120 315 -4 431
-73 68 -126 88 -224 83 -69 -4 -94 -11 -180 -50 -214 -98 -440 -151 -645 -151
-113 0 -173 9 -635 91 -280 50 -546 96 -590 103 -101 17 -396 17 -539 0 -59
-6 -110 -11 -111 -9 -2 2 47 57 108 123 310 336 409 572 424 1011 5 141 3 173
-16 263 -12 57 -25 109 -28 117 -4 11 75 14 494 16 552 3 525 0 601 72 124
115 95 309 -57 388 l-53 28 -553 0 -553 0 -51 183 c-98 353 -125 510 -126 747
0 153 3 185 23 254 90 310 318 530 622 600 212 49 490 20 677 -71 59 -28 98
-57 159 -118 131 -129 190 -260 224 -499 31 -211 44 -248 110 -319 151 -165
428 -116 523 91 54 117 5 435 -105 671 -140 304 -389 533 -709 651 -245 91
-577 129 -869 99z"/>
</g>
</svg>
