<svg xmlns="http://www.w3.org/2000/svg" id="flag-icons-ug" viewBox="0 0 640 480">
  <defs>
    <clipPath id="ug-a">
      <path fill-opacity=".7" d="M-85.3 0h682.6v512H-85.3z"/>
    </clipPath>
  </defs>
  <g clip-path="url(#ug-a)" transform="translate(80) scale(.9375)">
    
   
	<path id="path0" d="M191.979 59.560 C 189.029 60.011,186.547 60.651,185.118 61.327 C 182.898 62.377,178.342 63.271,172.400 63.822 C 168.343 64.198,166.271 64.880,164.525 66.412 C 162.722 67.995,161.390 68.552,157.852 69.203 C 155.562 69.624,154.793 69.985,153.233 71.371 C 151.988 72.476,150.199 73.472,147.889 74.344 C 145.374 75.293,144.186 75.977,143.583 76.824 C 143.125 77.468,141.546 78.701,140.075 79.566 C 138.604 80.430,137.175 81.509,136.900 81.964 C 136.624 82.419,135.634 83.272,134.700 83.860 C 132.068 85.517,121.818 96.097,120.792 98.216 C 120.306 99.220,119.467 100.331,118.927 100.684 C 118.387 101.038,117.305 102.604,116.522 104.164 C 115.739 105.724,114.605 107.630,114.004 108.400 C 112.622 110.168,111.882 111.617,110.829 114.617 C 110.369 115.928,109.385 117.900,108.642 119.000 C 106.656 121.940,106.387 122.572,105.362 126.712 C 104.849 128.786,103.791 131.773,103.012 133.350 C 101.398 136.616,100.630 139.894,100.000 146.200 C 99.758 148.620,99.300 151.860,98.981 153.400 C 98.662 154.940,98.401 157.473,98.400 159.029 C 98.400 160.585,98.122 162.675,97.781 163.673 C 97.382 164.845,97.205 166.536,97.281 168.444 L 97.400 171.400 99.400 172.491 L 101.400 173.581 131.025 173.591 L 160.650 173.600 161.725 172.478 C 162.663 171.499,162.800 171.029,162.803 168.778 C 162.809 163.408,163.500 159.562,164.989 156.600 C 165.763 155.060,166.827 152.409,167.353 150.709 C 168.084 148.346,168.768 147.088,170.255 145.369 C 174.470 140.497,178.806 136.591,180.684 135.976 C 182.464 135.392,183.608 134.687,185.223 133.179 C 187.268 131.268,189.405 131.000,202.600 131.000 C 216.917 131.000,218.519 131.174,221.097 133.015 C 222.144 133.762,224.634 135.164,226.632 136.132 C 229.807 137.669,230.416 138.137,231.475 139.845 C 232.142 140.920,233.435 142.610,234.349 143.600 C 236.266 145.676,237.406 148.398,237.786 151.807 C 237.933 153.123,238.325 155.602,238.656 157.316 C 239.126 159.744,239.164 160.875,238.830 162.436 C 238.593 163.538,238.401 165.736,238.403 167.320 C 238.408 171.901,236.225 180.544,234.601 182.366 C 233.899 183.155,232.648 185.096,231.823 186.679 C 230.998 188.263,229.891 189.841,229.364 190.187 C 228.837 190.532,227.953 191.709,227.399 192.803 C 226.660 194.260,222.394 198.798,211.422 209.796 C 203.189 218.049,196.047 225.386,195.549 226.101 C 195.052 226.815,192.609 229.494,190.121 232.053 C 186.733 235.538,185.341 237.287,184.573 239.022 C 184.010 240.297,182.920 241.915,182.152 242.618 C 181.139 243.546,180.380 244.907,179.390 247.571 C 178.586 249.733,177.453 251.912,176.638 252.864 C 175.489 254.206,175.048 255.312,174.055 259.341 C 173.396 262.014,172.305 266.090,171.631 268.400 C 169.293 276.405,168.369 290.235,170.038 292.246 C 170.829 293.199,229.251 293.057,230.087 292.100 C 230.876 291.197,231.400 289.446,232.204 285.025 C 232.576 282.976,233.271 280.739,233.832 279.782 C 234.568 278.526,237.200 269.790,237.200 268.604 C 237.200 268.507,237.730 267.825,238.377 267.087 C 239.024 266.350,240.315 264.319,241.245 262.573 C 242.176 260.828,243.671 258.567,244.568 257.549 C 245.466 256.531,246.560 255.104,247.000 254.377 C 247.440 253.649,248.577 252.502,249.526 251.827 C 250.476 251.152,251.649 249.885,252.133 249.012 C 252.616 248.138,253.638 247.002,254.402 246.487 C 255.166 245.972,256.293 244.744,256.907 243.759 C 257.521 242.773,258.800 241.497,259.754 240.921 C 260.706 240.346,261.826 239.241,262.243 238.466 C 262.659 237.691,263.771 236.568,264.714 235.969 C 265.656 235.371,266.959 234.148,267.609 233.252 C 268.258 232.355,269.512 231.253,270.395 230.803 C 271.278 230.352,272.440 229.287,272.978 228.435 C 273.516 227.583,274.551 226.471,275.278 225.963 C 276.005 225.455,278.580 223.031,281.000 220.576 C 283.420 218.121,285.993 215.808,286.717 215.437 C 287.442 215.065,288.636 213.825,289.372 212.681 C 290.107 211.536,291.271 210.188,291.959 209.685 C 292.647 209.181,293.648 208.074,294.185 207.225 C 294.721 206.375,295.919 205.167,296.848 204.540 C 297.776 203.913,298.933 202.680,299.419 201.800 C 299.904 200.920,300.980 199.733,301.809 199.161 C 302.847 198.446,303.659 197.367,304.418 195.696 C 305.023 194.362,306.234 192.489,307.108 191.535 C 308.747 189.744,309.957 187.636,310.745 185.197 C 310.994 184.425,311.657 183.299,312.218 182.694 C 313.504 181.307,314.021 179.824,315.388 173.600 C 315.992 170.850,317.188 165.720,318.045 162.200 L 319.604 155.800 319.588 147.400 C 319.577 141.651,319.391 138.179,319.000 136.400 C 318.685 134.970,318.422 132.738,318.414 131.440 C 318.404 129.725,318.113 128.493,317.350 126.934 C 316.652 125.508,316.117 123.416,315.754 120.694 C 315.029 115.258,314.249 112.511,313.073 111.244 C 311.599 109.657,310.967 108.461,309.980 105.400 C 309.337 103.405,308.595 102.083,307.396 100.800 C 306.471 99.810,305.292 98.100,304.776 97.000 C 303.735 94.780,295.426 86.116,292.514 84.214 C 291.587 83.608,290.373 82.516,289.817 81.786 C 289.227 81.014,287.739 79.957,286.250 79.253 C 284.844 78.589,283.328 77.580,282.880 77.011 C 282.433 76.442,280.476 75.195,278.533 74.239 C 276.590 73.284,274.640 72.100,274.201 71.610 C 273.048 70.323,271.787 69.772,268.400 69.075 C 264.493 68.271,263.349 67.814,261.764 66.422 C 259.960 64.838,257.156 64.130,250.600 63.603 C 244.486 63.112,242.627 62.736,240.214 61.505 C 236.326 59.522,232.197 59.150,212.200 58.982 C 198.827 58.870,195.940 58.953,191.979 59.560 M188.546 332.949 C 187.636 333.246,186.191 334.051,185.335 334.739 C 184.479 335.427,182.184 336.529,180.236 337.188 C 177.433 338.135,176.261 338.784,174.627 340.293 C 173.491 341.342,171.997 342.500,171.307 342.866 C 170.617 343.233,169.597 344.254,169.040 345.136 C 168.483 346.018,167.316 347.312,166.445 348.012 C 164.836 349.305,164.708 349.535,163.191 353.850 C 162.717 355.198,161.656 357.116,160.832 358.112 C 157.020 362.725,157.020 389.675,160.832 394.288 C 162.193 395.935,163.526 398.850,164.215 401.684 C 164.360 402.280,165.282 403.426,166.264 404.231 C 167.246 405.036,168.500 406.408,169.051 407.281 C 169.602 408.153,170.617 409.167,171.307 409.534 C 171.997 409.900,173.470 411.036,174.581 412.057 C 176.132 413.484,177.434 414.208,180.199 415.181 C 182.179 415.878,184.582 417.058,185.540 417.804 C 189.996 421.276,207.087 420.883,213.200 417.168 C 214.190 416.567,215.931 415.802,217.069 415.468 C 219.875 414.645,220.655 414.192,223.118 411.952 C 224.283 410.893,226.128 409.525,227.218 408.913 C 228.308 408.301,229.199 407.674,229.200 407.521 C 229.200 407.367,230.527 405.477,232.148 403.321 C 237.397 396.340,240.787 385.698,240.787 376.200 C 240.787 369.468,239.978 365.826,236.387 356.400 C 234.686 351.938,229.543 344.926,226.675 343.161 C 225.602 342.501,223.885 341.184,222.861 340.236 C 220.685 338.220,219.863 337.751,217.069 336.932 C 215.931 336.598,214.190 335.833,213.200 335.232 C 209.438 332.945,208.109 332.698,198.800 332.548 C 192.352 332.444,189.786 332.544,188.546 332.949 " stroke="none" fill="#06080b" fill-rule="evenodd"></path><path id="path1" d="M0.000 239.400 L 0.000 478.800 200.000 478.800 L 400.000 478.800 400.000 239.400 L 400.000 0.000 200.000 0.000 L 0.000 0.000 0.000 239.400 M243.326 56.936 C 246.491 57.550,247.784 58.147,249.605 59.836 C 250.500 60.665,251.226 60.815,256.205 61.195 C 264.914 61.859,265.849 62.125,268.210 64.607 C 269.870 66.351,270.034 66.409,275.043 67.013 C 277.505 67.310,279.409 68.394,280.323 70.020 C 280.697 70.683,281.448 71.319,282.000 71.439 C 284.589 72.000,286.547 73.014,288.268 74.687 C 289.300 75.690,291.074 76.936,292.212 77.457 C 294.462 78.487,295.199 79.167,296.050 80.996 C 296.411 81.771,297.278 82.510,298.519 83.099 C 300.056 83.829,300.580 84.354,301.188 85.773 C 301.799 87.196,302.298 87.694,303.766 88.344 C 305.312 89.028,305.732 89.475,306.540 91.304 C 307.212 92.821,307.917 93.708,308.929 94.305 C 310.354 95.146,312.351 98.413,312.943 100.873 C 313.086 101.464,313.742 102.331,314.402 102.801 C 315.924 103.885,316.248 104.511,317.471 108.727 C 318.125 110.986,318.880 112.642,319.662 113.531 C 321.730 115.887,322.496 119.785,323.189 131.479 C 323.387 134.822,323.747 137.928,323.990 138.381 C 324.613 139.545,324.258 155.110,323.487 160.400 C 323.151 162.710,322.689 166.685,322.461 169.234 C 322.004 174.349,321.031 177.498,319.373 179.228 C 318.647 179.986,318.138 181.185,317.745 183.065 C 316.944 186.892,315.868 188.930,314.169 189.841 C 312.988 190.473,312.648 190.970,312.135 192.812 C 311.420 195.374,311.131 195.803,309.100 197.320 C 308.275 197.937,307.600 198.775,307.600 199.183 C 307.600 199.590,306.959 200.706,306.175 201.662 C 304.216 204.052,303.948 204.342,301.740 206.462 C 300.673 207.486,299.503 208.682,299.140 209.120 C 298.777 209.557,298.237 210.069,297.940 210.258 C 297.301 210.663,295.981 212.503,295.080 214.246 C 294.725 214.931,293.808 215.790,293.040 216.154 C 291.595 216.840,290.206 218.319,289.797 219.611 C 289.666 220.021,288.676 220.900,287.595 221.565 C 286.360 222.325,285.336 223.349,284.841 224.319 C 284.273 225.432,283.333 226.285,281.472 227.373 C 280.053 228.203,278.671 229.294,278.402 229.797 C 278.132 230.300,277.482 230.942,276.956 231.224 C 276.430 231.505,276.000 231.869,276.000 232.033 C 276.000 232.197,275.118 232.874,274.040 233.537 C 272.962 234.201,271.747 235.231,271.340 235.828 C 270.350 237.279,268.818 238.788,267.118 239.986 C 266.349 240.528,265.507 241.452,265.247 242.038 C 264.973 242.657,263.982 243.512,262.888 244.074 C 261.543 244.764,260.770 245.505,260.200 246.652 C 259.379 248.302,257.320 251.181,256.602 251.680 C 254.300 253.282,249.487 258.880,248.766 260.795 C 247.763 263.460,247.361 263.973,245.747 264.648 C 244.752 265.064,244.440 265.483,244.230 266.686 C 243.585 270.378,241.826 274.848,240.545 276.052 C 239.198 277.317,238.769 279.288,238.229 286.682 C 237.466 297.140,241.080 296.170,202.318 296.320 C 167.672 296.454,168.865 296.539,166.625 293.804 L 165.159 292.015 165.328 286.307 C 165.421 283.168,165.774 278.980,166.113 277.000 C 166.451 275.020,166.903 271.420,167.117 269.000 C 167.541 264.218,168.706 260.141,170.220 258.145 C 170.744 257.455,171.530 255.565,171.967 253.945 C 172.944 250.327,174.493 247.060,175.601 246.285 C 176.058 245.965,176.761 244.801,177.164 243.699 C 177.947 241.555,179.777 238.735,181.282 237.352 C 181.789 236.886,182.536 235.582,182.942 234.455 C 183.627 232.548,184.367 231.706,186.927 229.918 C 187.464 229.543,188.245 228.577,188.663 227.771 C 189.097 226.935,190.100 225.928,191.000 225.424 C 192.069 224.826,192.902 223.907,193.588 222.571 C 194.350 221.088,195.021 220.398,196.301 219.783 C 197.542 219.187,198.245 218.484,198.901 217.183 C 199.566 215.863,200.257 215.181,201.557 214.557 C 202.874 213.925,203.525 213.274,204.157 211.957 C 204.789 210.640,205.440 209.989,206.757 209.357 C 208.074 208.725,208.725 208.074,209.357 206.757 C 209.981 205.457,210.663 204.766,211.983 204.101 C 213.284 203.445,213.987 202.742,214.583 201.501 C 215.183 200.252,215.878 199.560,217.200 198.898 C 218.424 198.284,219.172 197.581,219.537 196.698 C 220.255 194.961,221.103 194.067,222.900 193.149 C 223.726 192.728,224.400 192.085,224.400 191.718 C 224.400 190.523,225.986 187.741,227.938 185.509 C 229.265 183.993,230.067 182.599,230.553 180.961 C 231.754 176.918,232.394 175.348,233.575 173.544 C 236.043 169.777,235.535 150.428,232.943 149.433 C 232.622 149.310,231.756 147.887,231.020 146.271 C 229.161 142.192,226.037 139.076,223.118 138.391 C 220.541 137.787,219.999 137.516,217.200 135.435 L 215.000 133.800 205.600 133.667 C 193.727 133.498,192.246 133.661,191.315 135.237 C 190.447 136.706,188.300 137.739,184.324 138.602 C 181.479 139.220,181.229 139.355,180.996 140.416 C 180.609 142.179,179.317 143.538,177.583 144.005 C 176.340 144.339,175.963 144.657,175.792 145.514 C 175.479 147.090,173.174 151.557,171.933 152.995 C 170.616 154.521,169.740 159.214,169.273 167.251 C 168.871 174.170,168.848 174.209,162.854 177.893 L 161.400 178.787 131.331 178.793 C 97.454 178.801,98.083 178.847,95.609 176.164 C 93.298 173.656,93.070 172.307,93.388 163.000 C 93.753 152.328,95.154 142.929,96.900 139.436 C 97.330 138.576,98.026 136.146,98.447 134.036 C 99.453 129.001,100.654 125.435,101.806 124.065 C 102.319 123.456,103.123 121.707,103.592 120.179 C 104.802 116.238,105.385 115.041,106.933 113.318 C 107.776 112.379,108.558 110.884,108.983 109.400 C 109.870 106.304,110.900 104.656,112.560 103.677 C 113.513 103.114,113.967 102.503,114.148 101.536 C 114.548 99.403,120.487 91.548,123.658 88.957 C 123.956 88.714,125.104 87.544,126.209 86.357 C 127.314 85.171,128.901 83.660,129.736 83.000 C 130.571 82.340,132.277 80.861,133.527 79.713 C 135.148 78.225,136.359 77.482,137.749 77.125 C 139.197 76.753,139.807 76.364,140.125 75.612 C 140.919 73.732,142.130 72.795,144.787 72.004 C 146.686 71.438,147.815 70.813,148.813 69.775 C 150.732 67.779,151.782 67.310,156.266 66.447 C 158.412 66.034,160.237 65.488,160.322 65.233 C 161.171 62.687,163.171 61.873,170.196 61.215 C 173.500 60.906,175.290 60.553,175.946 60.083 C 178.306 58.393,179.056 58.031,181.548 57.375 C 187.065 55.923,236.294 55.573,243.326 56.936 M215.773 330.541 C 216.639 330.915,218.044 331.911,218.897 332.755 C 220.066 333.913,221.159 334.497,223.341 335.131 C 226.270 335.982,227.669 337.011,228.177 338.688 C 228.352 339.265,228.947 339.713,229.880 339.971 C 231.790 340.498,233.119 341.814,233.620 343.674 C 233.912 344.757,234.250 345.200,234.785 345.200 C 236.231 345.200,237.822 347.030,238.502 349.476 C 238.972 351.168,239.623 352.298,240.885 353.616 C 242.996 355.819,243.407 357.107,244.156 363.871 C 244.477 366.768,244.933 369.501,245.170 369.943 C 245.736 371.002,245.736 381.398,245.170 382.457 C 244.933 382.899,244.477 385.632,244.156 388.529 C 243.407 395.293,242.996 396.581,240.885 398.784 C 239.623 400.102,238.972 401.232,238.502 402.924 C 237.822 405.370,236.231 407.200,234.785 407.200 C 234.250 407.200,233.912 407.643,233.620 408.726 C 233.119 410.586,231.790 411.902,229.880 412.429 C 228.947 412.687,228.352 413.135,228.177 413.712 C 227.668 415.391,226.270 416.418,223.330 417.272 C 221.108 417.918,220.070 418.477,218.913 419.654 C 216.102 422.512,215.541 422.600,200.200 422.600 C 184.777 422.600,183.959 422.484,181.162 419.908 C 179.880 418.726,178.528 418.000,176.200 417.242 C 173.190 416.262,172.952 416.100,172.200 414.512 C 171.760 413.583,171.040 412.716,170.600 412.585 C 168.308 411.902,167.539 411.366,166.636 409.825 C 166.092 408.897,164.935 407.666,164.065 407.090 C 162.919 406.332,162.288 405.513,161.777 404.122 C 161.389 403.065,160.494 401.570,159.788 400.800 C 158.088 398.944,156.514 395.346,155.967 392.063 C 155.723 390.598,155.001 387.849,154.362 385.953 C 152.626 380.801,152.626 371.599,154.362 366.447 C 155.001 364.551,155.723 361.802,155.967 360.337 C 156.514 357.054,158.088 353.456,159.788 351.600 C 160.494 350.830,161.386 349.343,161.771 348.295 C 162.278 346.914,162.929 346.074,164.140 345.241 C 165.059 344.609,166.169 343.412,166.606 342.581 C 167.054 341.731,168.066 340.699,168.921 340.220 C 169.756 339.753,171.139 338.552,171.994 337.551 C 173.326 335.993,173.940 335.628,176.274 335.001 C 178.234 334.476,179.562 333.800,181.000 332.599 C 184.403 329.755,185.320 329.628,201.600 329.760 C 212.420 329.847,214.422 329.957,215.773 330.541 " stroke="none" fill="#fcfcfc" fill-rule="evenodd"></path><path id="path2" d="M200.300 57.632 C 198.637 58.601,200.301 58.762,213.700 58.935 C 232.351 59.176,236.422 59.571,240.214 61.505 C 242.627 62.736,244.486 63.112,250.600 63.603 C 257.156 64.130,259.960 64.838,261.764 66.422 C 263.349 67.814,264.493 68.271,268.400 69.075 C 271.787 69.772,273.048 70.323,274.201 71.610 C 274.640 72.100,276.590 73.284,278.533 74.239 C 280.476 75.195,282.433 76.442,282.880 77.011 C 283.328 77.580,284.844 78.589,286.250 79.253 C 287.739 79.957,289.227 81.014,289.817 81.786 C 290.373 82.516,291.587 83.608,292.514 84.214 C 295.426 86.116,303.735 94.780,304.776 97.000 C 305.292 98.100,306.471 99.810,307.396 100.800 C 308.595 102.083,309.337 103.405,309.980 105.400 C 310.967 108.461,311.599 109.657,313.073 111.244 C 314.249 112.511,315.029 115.258,315.754 120.694 C 316.117 123.416,316.652 125.508,317.350 126.934 C 318.113 128.493,318.404 129.725,318.414 131.440 C 318.422 132.738,318.685 134.970,319.000 136.400 C 319.391 138.179,319.577 141.651,319.588 147.400 L 319.604 155.800 318.045 162.200 C 317.188 165.720,315.992 170.850,315.388 173.600 C 314.021 179.824,313.504 181.307,312.218 182.694 C 311.657 183.299,310.994 184.425,310.745 185.197 C 309.957 187.636,308.747 189.744,307.108 191.535 C 306.234 192.489,305.023 194.362,304.418 195.696 C 303.659 197.367,302.847 198.446,301.809 199.161 C 300.980 199.733,299.904 200.920,299.419 201.800 C 298.933 202.680,297.776 203.913,296.848 204.540 C 295.919 205.167,294.721 206.375,294.185 207.225 C 293.648 208.074,292.647 209.181,291.959 209.685 C 291.271 210.188,290.107 211.536,289.372 212.681 C 288.636 213.825,287.442 215.065,286.717 215.437 C 285.993 215.808,283.420 218.121,281.000 220.576 C 278.580 223.031,276.005 225.455,275.278 225.963 C 274.551 226.471,273.516 227.583,272.978 228.435 C 272.440 229.287,271.278 230.352,270.395 230.803 C 269.512 231.253,268.258 232.355,267.609 233.252 C 266.959 234.148,265.656 235.371,264.714 235.969 C 263.771 236.568,262.659 237.691,262.243 238.466 C 261.826 239.241,260.706 240.346,259.754 240.921 C 258.800 241.497,257.521 242.773,256.907 243.759 C 256.293 244.744,255.166 245.972,254.402 246.487 C 253.638 247.002,252.616 248.138,252.133 249.012 C 251.649 249.885,250.476 251.152,249.526 251.827 C 248.577 252.502,247.440 253.649,247.000 254.377 C 246.560 255.104,245.466 256.531,244.568 257.549 C 243.671 258.567,242.176 260.828,241.245 262.573 C 240.315 264.319,239.024 266.350,238.377 267.087 C 237.730 267.825,237.200 268.507,237.200 268.604 C 237.200 269.786,234.569 278.523,233.837 279.773 C 233.260 280.758,232.540 283.133,232.066 285.616 C 231.170 290.311,230.749 291.613,229.895 292.322 C 229.440 292.699,222.549 292.786,199.653 292.705 C 171.870 292.607,170.000 292.643,170.000 293.286 C 170.000 294.748,171.017 294.800,199.795 294.800 C 237.606 294.800,234.794 295.496,236.252 285.778 C 237.601 276.790,238.473 273.624,240.574 270.093 C 241.556 268.443,242.468 266.600,242.600 265.999 C 242.732 265.397,243.655 263.951,244.649 262.786 C 245.644 261.620,247.167 259.257,248.034 257.533 C 248.900 255.810,249.791 254.400,250.013 254.400 C 250.628 254.400,253.937 251.229,254.205 250.383 C 254.335 249.974,255.072 249.250,255.844 248.773 C 256.639 248.282,257.769 246.979,258.454 245.766 C 259.281 244.300,260.182 243.338,261.313 242.713 C 262.221 242.211,263.440 241.098,264.022 240.240 C 264.604 239.382,265.780 238.205,266.636 237.624 C 267.491 237.043,268.703 235.806,269.328 234.875 C 269.953 233.945,271.176 232.820,272.047 232.376 C 272.918 231.932,274.118 230.874,274.715 230.026 C 275.312 229.178,276.700 227.936,277.800 227.266 C 280.193 225.809,293.832 212.240,295.758 209.400 C 296.505 208.300,297.935 206.724,298.936 205.898 C 299.938 205.072,301.054 203.894,301.417 203.280 C 301.779 202.666,302.702 201.734,303.468 201.210 C 304.233 200.685,305.280 199.434,305.794 198.428 C 306.308 197.423,307.391 195.970,308.201 195.200 C 309.011 194.430,310.310 192.540,311.089 191.000 C 311.868 189.460,312.940 187.681,313.472 187.047 C 314.971 185.257,315.875 183.225,316.799 179.565 C 317.267 177.714,318.242 175.030,318.967 173.600 C 321.391 168.817,322.204 159.953,321.864 142.000 L 321.610 128.600 320.224 123.600 C 317.367 113.291,315.268 107.835,313.145 105.192 C 312.523 104.418,311.734 102.962,311.391 101.956 C 311.049 100.951,309.867 99.064,308.766 97.764 C 307.665 96.464,306.291 94.595,305.713 93.611 C 304.770 92.005,302.697 89.858,294.510 82.008 C 293.138 80.692,290.804 79.005,289.310 78.248 C 287.820 77.494,286.060 76.299,285.400 75.593 C 284.740 74.888,282.940 73.725,281.400 73.010 C 279.860 72.294,277.931 71.169,277.113 70.508 C 275.356 69.090,274.485 68.726,270.090 67.574 C 268.270 67.097,266.200 66.279,265.490 65.755 C 262.802 63.771,261.012 63.215,255.344 62.601 C 248.595 61.871,246.562 61.433,243.200 59.985 C 237.850 57.681,203.454 55.795,200.300 57.632 M191.800 58.000 C 189.655 58.179,189.386 58.300,189.267 59.139 C 189.149 59.975,189.259 60.054,190.267 59.860 C 190.890 59.741,192.147 59.530,193.060 59.393 C 194.162 59.227,194.693 58.954,194.639 58.583 C 194.522 57.790,194.464 57.778,191.800 58.000 M169.701 62.669 C 168.922 62.778,168.222 63.185,167.955 63.684 C 167.537 64.465,167.589 64.502,168.760 64.268 C 169.448 64.130,171.454 63.897,173.218 63.750 C 176.053 63.514,177.644 63.055,176.282 62.867 C 174.571 62.630,170.794 62.516,169.701 62.669 M189.296 131.408 C 187.003 131.906,184.400 133.250,184.400 133.936 C 184.400 134.254,182.538 135.264,180.306 136.157 C 178.464 136.893,174.230 140.774,170.255 145.369 C 168.768 147.088,168.084 148.346,167.353 150.709 C 166.827 152.409,165.763 155.060,164.989 156.600 C 163.496 159.570,162.809 163.409,162.803 168.825 C 162.800 171.177,162.683 171.562,161.678 172.525 L 160.556 173.600 131.125 173.600 C 102.357 173.600,101.689 173.617,101.491 174.374 C 101.169 175.607,101.018 175.600,131.533 175.591 C 164.225 175.581,162.511 175.736,165.128 172.561 C 166.271 171.174,166.400 170.753,166.396 168.409 C 166.389 163.489,169.802 150.535,171.617 148.600 C 172.441 147.720,173.499 146.235,173.966 145.300 C 174.447 144.339,175.465 143.188,176.308 142.653 C 177.129 142.132,178.553 140.809,179.474 139.712 C 180.763 138.177,181.582 137.597,183.037 137.190 C 184.077 136.899,185.843 136.037,186.963 135.275 C 191.313 132.317,191.600 132.257,201.913 132.139 C 211.555 132.028,214.879 131.746,213.393 131.166 C 211.965 130.608,192.057 130.808,189.296 131.408 M190.100 331.089 C 189.211 331.200,188.800 331.464,188.800 331.925 C 188.801 332.538,189.631 332.600,197.900 332.600 C 207.848 332.600,209.298 332.849,213.200 335.228 C 214.190 335.832,215.931 336.598,217.069 336.932 C 219.863 337.751,220.685 338.220,222.861 340.236 C 223.885 341.184,225.602 342.501,226.675 343.161 C 231.919 346.388,237.733 357.124,240.017 367.800 C 242.436 379.105,239.128 394.039,232.148 403.321 C 230.527 405.477,229.200 407.367,229.200 407.521 C 229.199 407.674,228.308 408.301,227.218 408.913 C 226.128 409.525,224.283 410.893,223.118 411.952 C 220.655 414.192,219.875 414.645,217.069 415.468 C 215.931 415.802,214.190 416.568,213.200 417.172 C 209.298 419.551,207.848 419.800,197.900 419.800 C 189.793 419.800,188.801 419.870,188.800 420.446 C 188.800 421.657,198.740 422.034,207.945 421.171 C 213.157 420.683,213.906 420.458,215.928 418.768 C 216.737 418.091,218.992 416.939,220.938 416.209 C 223.601 415.210,224.867 414.475,226.052 413.242 C 226.919 412.340,228.347 411.235,229.226 410.786 C 230.253 410.263,231.258 409.267,232.036 408.004 C 232.701 406.922,233.846 405.666,234.580 405.212 C 235.983 404.345,236.656 403.185,237.796 399.663 C 238.177 398.488,238.984 396.958,239.589 396.263 C 242.162 393.308,243.184 387.605,243.184 376.200 C 243.184 364.795,242.162 359.092,239.589 356.137 C 238.984 355.442,238.177 353.912,237.796 352.737 C 236.656 349.215,235.983 348.055,234.580 347.188 C 233.846 346.734,232.701 345.478,232.036 344.396 C 231.258 343.133,230.253 342.137,229.226 341.614 C 228.347 341.165,226.919 340.060,226.052 339.158 C 224.867 337.925,223.601 337.190,220.938 336.191 C 218.992 335.461,216.737 334.309,215.928 333.632 C 213.105 331.272,199.457 329.928,190.100 331.089 " stroke="none" fill="#569ed9" fill-rule="evenodd"></path><path id="path3" d="M188.800 56.382 C 186.270 56.544,183.006 56.991,181.548 57.375 C 179.056 58.031,178.306 58.393,175.946 60.083 C 175.290 60.553,173.500 60.906,170.196 61.215 C 163.171 61.873,161.171 62.687,160.322 65.233 C 160.237 65.488,158.412 66.034,156.266 66.447 C 152.537 67.165,150.317 67.963,149.821 68.766 C 149.682 68.991,150.105 69.007,150.896 68.807 C 151.613 68.624,153.959 68.171,156.108 67.799 C 159.468 67.218,160.249 66.929,161.675 65.737 C 164.125 63.691,164.984 63.374,169.600 62.814 C 173.800 62.304,176.890 61.493,183.112 59.268 C 185.662 58.356,187.137 58.079,189.525 58.063 C 191.231 58.052,193.791 57.867,195.213 57.651 C 206.021 56.012,237.532 57.545,243.200 59.985 C 246.562 61.433,248.595 61.871,255.344 62.601 C 261.012 63.215,262.802 63.771,265.490 65.755 C 266.200 66.279,268.270 67.097,270.090 67.574 C 274.485 68.726,275.356 69.090,277.113 70.508 C 277.931 71.169,279.860 72.294,281.400 73.010 C 282.940 73.725,284.740 74.888,285.400 75.593 C 286.060 76.299,287.820 77.494,289.310 78.248 C 290.804 79.005,293.138 80.692,294.510 82.008 C 302.697 89.858,304.770 92.005,305.713 93.611 C 306.291 94.595,307.665 96.464,308.766 97.764 C 309.867 99.064,311.049 100.951,311.391 101.956 C 311.734 102.962,312.523 104.418,313.145 105.192 C 315.268 107.835,317.367 113.291,320.224 123.600 L 321.610 128.600 321.864 142.000 C 322.204 159.953,321.391 168.817,318.967 173.600 C 318.242 175.030,317.267 177.714,316.799 179.565 C 315.875 183.225,314.971 185.257,313.472 187.047 C 312.940 187.681,311.868 189.460,311.089 191.000 C 310.310 192.540,309.011 194.430,308.201 195.200 C 307.391 195.970,306.308 197.423,305.794 198.428 C 305.280 199.434,304.233 200.685,303.468 201.210 C 302.702 201.734,301.779 202.666,301.417 203.280 C 301.054 203.894,299.938 205.072,298.936 205.898 C 297.935 206.724,296.505 208.300,295.758 209.400 C 293.832 212.240,280.193 225.809,277.800 227.266 C 276.700 227.936,275.312 229.178,274.715 230.026 C 274.118 230.874,272.918 231.932,272.047 232.376 C 271.176 232.820,269.953 233.945,269.328 234.875 C 268.703 235.806,267.491 237.043,266.636 237.624 C 265.780 238.205,264.604 239.382,264.022 240.240 C 263.440 241.098,262.221 242.211,261.313 242.713 C 260.182 243.338,259.281 244.300,258.454 245.766 C 257.769 246.979,256.639 248.282,255.844 248.773 C 255.072 249.250,254.335 249.974,254.205 250.383 C 253.937 251.229,250.628 254.400,250.013 254.400 C 249.791 254.400,248.900 255.810,248.034 257.533 C 247.167 259.257,245.644 261.620,244.649 262.786 C 243.655 263.951,242.732 265.397,242.600 265.999 C 242.468 266.600,241.556 268.443,240.574 270.093 C 238.473 273.624,237.601 276.790,236.252 285.778 C 235.142 293.176,235.135 293.187,230.814 294.169 C 227.679 294.883,172.194 295.139,170.874 294.446 C 169.570 293.762,166.688 293.464,166.877 294.032 C 167.626 296.279,166.374 296.200,201.130 296.200 C 241.122 296.200,237.466 297.137,238.228 286.692 C 238.769 279.288,239.198 277.317,240.545 276.052 C 241.826 274.848,243.585 270.378,244.230 266.686 C 244.440 265.483,244.752 265.064,245.747 264.648 C 247.361 263.973,247.763 263.460,248.766 260.795 C 249.487 258.880,254.300 253.282,256.602 251.680 C 257.320 251.181,259.379 248.302,260.200 246.652 C 260.770 245.505,261.543 244.764,262.888 244.074 C 263.982 243.512,264.973 242.657,265.247 242.038 C 265.507 241.452,266.349 240.528,267.118 239.986 C 268.818 238.788,270.350 237.279,271.340 235.828 C 271.747 235.231,272.962 234.201,274.040 233.537 C 275.118 232.874,276.000 232.197,276.000 232.033 C 276.000 231.869,276.430 231.505,276.956 231.224 C 277.482 230.942,278.132 230.300,278.402 229.797 C 278.671 229.294,280.053 228.203,281.472 227.373 C 283.333 226.285,284.273 225.432,284.841 224.319 C 285.336 223.349,286.360 222.325,287.595 221.565 C 288.676 220.900,289.666 220.021,289.797 219.611 C 290.206 218.319,291.595 216.840,293.040 216.154 C 293.808 215.790,294.725 214.931,295.080 214.246 C 295.981 212.503,297.301 210.663,297.940 210.258 C 298.237 210.069,298.777 209.557,299.140 209.120 C 299.503 208.682,300.673 207.486,301.740 206.462 C 303.948 204.342,304.216 204.052,306.175 201.662 C 306.959 200.706,307.600 199.590,307.600 199.183 C 307.600 198.775,308.275 197.937,309.100 197.320 C 311.131 195.803,311.420 195.374,312.135 192.812 C 312.648 190.970,312.988 190.473,314.169 189.841 C 315.868 188.930,316.944 186.892,317.745 183.065 C 318.138 181.185,318.647 179.986,319.373 179.228 C 321.031 177.498,322.004 174.349,322.461 169.234 C 322.689 166.685,323.151 162.710,323.487 160.400 C 324.258 155.110,324.613 139.545,323.990 138.381 C 323.747 137.928,323.387 134.822,323.189 131.479 C 322.496 119.785,321.730 115.887,319.662 113.531 C 318.880 112.642,318.125 110.986,317.471 108.727 C 316.248 104.511,315.924 103.885,314.402 102.801 C 313.742 102.331,313.086 101.464,312.943 100.873 C 312.351 98.413,310.354 95.146,308.929 94.305 C 307.917 93.708,307.212 92.821,306.540 91.304 C 305.732 89.475,305.312 89.028,303.766 88.344 C 302.298 87.694,301.799 87.196,301.188 85.773 C 300.580 84.354,300.056 83.829,298.519 83.099 C 297.278 82.510,296.411 81.771,296.050 80.996 C 295.199 79.167,294.462 78.487,292.212 77.457 C 291.074 76.936,289.300 75.690,288.268 74.687 C 286.547 73.014,284.589 72.000,282.000 71.439 C 281.448 71.319,280.697 70.683,280.323 70.020 C 279.409 68.394,277.505 67.310,275.043 67.013 C 270.034 66.409,269.870 66.351,268.210 64.607 C 265.849 62.125,264.914 61.859,256.205 61.195 C 251.226 60.815,250.500 60.665,249.605 59.836 C 245.995 56.488,244.784 56.354,216.800 56.209 C 203.930 56.142,191.330 56.220,188.800 56.382 M145.027 71.855 C 142.475 72.723,140.400 74.072,140.400 74.864 C 140.400 75.042,140.985 74.829,141.700 74.389 C 142.415 73.950,143.630 73.415,144.400 73.200 C 145.478 72.900,148.902 70.684,148.000 70.870 C 147.890 70.893,146.552 71.336,145.027 71.855 M136.910 77.330 C 136.201 77.589,135.211 78.224,134.710 78.742 L 133.800 79.685 135.148 79.007 C 138.709 77.218,139.632 76.339,136.910 77.330 M130.200 82.588 C 129.540 83.129,129.215 83.578,129.478 83.586 C 129.740 83.594,130.460 83.156,131.078 82.613 C 132.539 81.327,131.765 81.305,130.200 82.588 M194.000 132.361 C 191.235 132.679,190.201 133.110,186.963 135.289 C 185.843 136.043,184.077 136.899,183.037 137.190 C 181.582 137.597,180.763 138.177,179.474 139.712 C 178.553 140.809,177.129 142.132,176.308 142.653 C 175.465 143.188,174.447 144.339,173.966 145.300 C 173.499 146.235,172.441 147.720,171.617 148.600 C 169.798 150.540,166.389 163.489,166.396 168.428 C 166.401 171.543,164.871 173.804,161.978 174.962 C 159.148 176.095,97.277 175.890,95.819 174.743 C 94.025 173.332,93.607 171.984,93.516 167.320 L 93.431 163.000 93.302 167.105 C 93.142 172.164,93.607 173.992,95.609 176.164 C 98.083 178.847,97.454 178.801,131.331 178.793 L 161.400 178.787 162.854 177.893 C 168.848 174.209,168.871 174.170,169.273 167.251 C 169.740 159.214,170.616 154.521,171.933 152.995 C 173.174 151.557,175.479 147.090,175.792 145.514 C 175.963 144.657,176.340 144.339,177.583 144.005 C 179.317 143.538,180.609 142.179,180.996 140.416 C 181.229 139.355,181.479 139.220,184.324 138.602 C 188.300 137.739,190.447 136.706,191.315 135.237 C 192.246 133.661,193.727 133.498,205.600 133.667 L 215.000 133.800 217.200 135.426 C 220.147 137.604,220.045 137.552,223.023 138.378 C 225.580 139.087,225.621 139.086,224.954 138.350 C 224.580 137.935,223.537 137.404,222.636 137.168 C 221.736 136.933,219.830 136.042,218.400 135.188 C 213.630 132.342,213.420 132.296,204.600 132.173 C 200.200 132.112,195.430 132.196,194.000 132.361 M229.855 143.800 C 230.780 145.379,230.800 145.403,230.800 144.911 C 230.800 144.679,230.429 144.064,229.976 143.544 L 229.153 142.600 229.855 143.800 M93.750 158.200 C 93.751 160.620,93.816 161.558,93.896 160.285 C 93.976 159.012,93.975 157.032,93.894 155.885 C 93.814 154.738,93.749 155.780,93.750 158.200 M235.301 160.600 C 235.305 161.480,235.387 161.793,235.483 161.295 C 235.579 160.798,235.575 160.078,235.475 159.695 C 235.375 159.313,235.296 159.720,235.301 160.600 M220.908 194.500 C 220.451 194.995,219.790 196.120,219.440 197.000 C 218.908 198.339,218.901 198.473,219.402 197.824 C 219.731 197.396,220.000 196.873,220.000 196.661 C 220.000 196.449,220.459 195.674,221.020 194.938 C 222.190 193.405,222.131 193.176,220.908 194.500 M216.387 199.300 C 215.655 199.795,214.818 200.785,214.527 201.500 C 213.836 203.198,214.112 203.155,215.145 201.404 C 215.598 200.636,216.561 199.646,217.284 199.205 C 218.008 198.764,218.402 198.402,218.159 198.401 C 217.917 198.401,217.119 198.805,216.387 199.300 M211.187 204.500 C 210.455 204.995,209.618 205.985,209.327 206.700 C 208.636 208.398,208.912 208.355,209.945 206.604 C 210.398 205.836,211.361 204.846,212.084 204.405 C 212.808 203.964,213.202 203.602,212.959 203.601 C 212.717 203.601,211.919 204.005,211.187 204.500 M205.169 210.369 C 204.526 211.012,204.004 211.777,204.009 212.069 C 204.014 212.362,204.348 212.171,204.753 211.644 C 205.157 211.118,205.918 210.357,206.444 209.953 C 206.971 209.548,207.162 209.214,206.869 209.209 C 206.577 209.204,205.812 209.726,205.169 210.369 M201.308 214.593 C 200.123 215.108,198.403 217.244,198.403 218.200 C 198.403 218.420,198.764 218.008,199.205 217.284 C 199.646 216.561,200.636 215.598,201.404 215.145 C 203.427 213.951,203.382 213.692,201.308 214.593 M196.108 219.793 C 194.923 220.308,193.203 222.444,193.203 223.400 C 193.203 223.620,193.564 223.208,194.005 222.484 C 194.446 221.761,195.436 220.798,196.204 220.345 C 198.227 219.151,198.182 218.892,196.108 219.793 M183.176 233.857 C 182.738 234.878,182.449 235.782,182.533 235.866 C 182.617 235.950,183.061 235.115,183.521 234.009 C 183.980 232.904,184.269 232.000,184.164 232.000 C 184.058 232.000,183.613 232.835,183.176 233.857 M167.301 267.000 C 167.305 267.880,167.387 268.193,167.483 267.695 C 167.579 267.198,167.575 266.478,167.475 266.095 C 167.375 265.713,167.296 266.120,167.301 267.000 M166.901 270.600 C 166.905 271.480,166.987 271.793,167.083 271.295 C 167.179 270.798,167.175 270.078,167.075 269.695 C 166.975 269.313,166.896 269.720,166.901 270.600 M186.800 329.983 C 183.845 330.420,183.327 330.654,181.000 332.599 C 179.571 333.793,178.232 334.476,176.311 334.991 C 174.832 335.388,173.313 336.054,172.936 336.470 C 172.285 337.190,172.339 337.188,174.026 336.423 C 175.001 335.980,176.070 335.614,176.400 335.609 C 176.730 335.604,178.620 334.794,180.600 333.808 C 188.910 329.672,211.059 329.562,215.928 333.632 C 216.737 334.309,218.992 335.461,220.938 336.191 C 223.601 337.190,224.867 337.925,226.052 339.158 C 226.919 340.060,228.347 341.165,229.226 341.614 C 230.253 342.137,231.258 343.133,232.036 344.396 C 232.701 345.478,233.846 346.734,234.580 347.188 C 235.983 348.055,236.656 349.215,237.796 352.737 C 238.177 353.912,238.984 355.442,239.589 356.137 C 242.162 359.092,243.184 364.795,243.184 376.200 C 243.184 387.605,242.162 393.308,239.589 396.263 C 238.984 396.958,238.177 398.488,237.796 399.663 C 236.656 403.185,235.983 404.345,234.580 405.212 C 233.846 405.666,232.701 406.922,232.036 408.004 C 231.258 409.267,230.253 410.263,229.226 410.786 C 228.347 411.235,226.919 412.340,226.052 413.242 C 224.867 414.475,223.601 415.210,220.938 416.209 C 218.992 416.939,216.737 418.091,215.928 418.768 C 210.796 423.058,184.208 422.528,180.236 418.056 C 179.816 417.583,178.248 416.831,176.752 416.386 C 175.257 415.940,173.445 415.086,172.728 414.488 L 171.423 413.400 172.226 414.800 C 172.916 416.004,173.474 416.346,176.214 417.242 C 178.523 417.997,179.885 418.731,181.162 419.908 C 183.959 422.484,184.777 422.600,200.200 422.600 C 215.541 422.600,216.102 422.512,218.913 419.654 C 220.070 418.477,221.108 417.918,223.330 417.272 C 226.270 416.418,227.668 415.391,228.177 413.712 C 228.352 413.135,228.947 412.687,229.880 412.429 C 231.790 411.902,233.119 410.586,233.620 408.726 C 233.912 407.643,234.250 407.200,234.785 407.200 C 236.231 407.200,237.822 405.370,238.502 402.924 C 238.972 401.232,239.623 400.102,240.885 398.784 C 242.996 396.581,243.407 395.293,244.156 388.529 C 244.477 385.632,244.933 382.899,245.170 382.457 C 245.736 381.398,245.736 371.002,245.170 369.943 C 244.933 369.501,244.477 366.768,244.156 363.871 C 243.407 357.107,242.996 355.819,240.885 353.616 C 239.623 352.298,238.972 351.168,238.502 349.476 C 237.822 347.030,236.231 345.200,234.785 345.200 C 234.250 345.200,233.912 344.757,233.620 343.674 C 233.119 341.814,231.790 340.498,229.880 339.971 C 228.947 339.713,228.352 339.265,228.177 338.688 C 227.669 337.011,226.270 335.982,223.341 335.131 C 221.159 334.497,220.066 333.913,218.897 332.755 C 216.043 329.929,215.720 329.873,201.600 329.760 C 194.670 329.704,188.010 329.804,186.800 329.983 M167.398 341.202 C 166.328 342.384,166.901 342.570,168.001 341.398 C 168.517 340.849,168.756 340.400,168.532 340.400 C 168.307 340.400,167.797 340.761,167.398 341.202 M167.176 410.755 C 167.548 411.450,169.859 412.684,170.171 412.354 C 170.250 412.269,169.521 411.709,168.549 411.110 C 167.129 410.234,166.860 410.164,167.176 410.755 " stroke="none" fill="#a4d2e6" fill-rule="evenodd"></path><path id="path4" d="M195.796 57.553 C 195.094 57.697,194.596 58.050,194.602 58.400 C 194.614 59.128,199.217 59.009,199.679 58.268 C 200.269 57.323,198.502 56.997,195.796 57.553 M184.400 58.787 C 173.587 62.534,174.139 62.299,175.198 62.706 C 177.047 63.418,182.111 62.746,184.953 61.413 C 186.079 60.884,187.505 60.328,188.121 60.177 C 188.973 59.969,189.214 59.698,189.121 59.051 C 188.957 57.900,187.238 57.803,184.400 58.787 M164.000 64.053 C 163.230 64.520,162.034 65.397,161.342 66.002 C 160.105 67.084,159.547 67.231,151.222 68.679 C 150.299 68.839,149.203 69.559,147.907 70.855 C 146.841 71.921,145.481 72.910,144.885 73.053 C 143.107 73.480,140.830 74.762,140.298 75.636 C 140.024 76.085,138.312 77.267,136.493 78.263 C 134.573 79.313,132.740 80.657,132.124 81.465 C 131.540 82.230,130.208 83.289,129.164 83.818 C 127.989 84.414,126.831 85.428,126.124 86.481 C 125.496 87.416,124.218 88.694,123.286 89.321 C 122.353 89.947,121.299 91.031,120.944 91.730 C 120.589 92.428,119.327 94.026,118.140 95.280 C 116.188 97.342,114.014 101.030,114.004 102.295 C 114.002 102.567,113.298 103.233,112.441 103.774 C 111.283 104.505,110.707 105.252,110.201 106.679 C 108.794 110.650,108.190 111.846,106.751 113.515 C 105.809 114.608,105.093 115.979,104.777 117.297 C 104.213 119.647,102.556 123.456,101.929 123.844 C 101.115 124.347,99.953 127.647,99.203 131.587 C 98.785 133.779,97.970 136.703,97.392 138.086 C 94.995 143.818,94.192 149.237,93.785 162.430 C 93.442 173.564,94.168 175.600,98.480 175.600 C 102.049 175.600,102.531 174.149,99.500 172.525 L 97.400 171.400 97.281 168.444 C 97.205 166.536,97.382 164.845,97.781 163.673 C 98.122 162.675,98.400 160.585,98.400 159.029 C 98.401 157.473,98.662 154.940,98.981 153.400 C 99.300 151.860,99.758 148.620,100.000 146.200 C 100.630 139.894,101.398 136.616,103.012 133.350 C 103.791 131.773,104.849 128.786,105.362 126.712 C 106.387 122.572,106.656 121.940,108.642 119.000 C 109.385 117.900,110.369 115.928,110.829 114.617 C 111.882 111.617,112.622 110.168,114.004 108.400 C 114.605 107.630,115.739 105.724,116.522 104.164 C 117.305 102.604,118.387 101.038,118.927 100.684 C 119.467 100.331,120.306 99.220,120.792 98.216 C 121.818 96.097,132.068 85.517,134.700 83.860 C 135.634 83.272,136.624 82.419,136.900 81.964 C 137.175 81.509,138.604 80.430,140.075 79.566 C 141.546 78.701,143.125 77.468,143.583 76.824 C 144.187 75.975,145.373 75.294,147.908 74.339 C 150.233 73.463,151.969 72.501,153.102 71.459 C 154.751 69.943,155.993 69.459,160.889 68.426 C 161.708 68.253,163.029 67.591,163.824 66.956 C 164.619 66.320,165.749 65.530,166.335 65.200 C 167.436 64.580,167.983 64.019,167.994 63.500 C 168.007 62.871,165.339 63.240,164.000 64.053 M212.600 131.765 C 211.278 132.220,211.174 132.325,212.000 132.367 C 213.237 132.430,215.989 133.657,218.493 135.261 C 219.533 135.928,221.216 136.724,222.232 137.030 C 225.016 137.868,230.152 143.155,231.232 146.294 C 231.668 147.562,232.456 148.999,232.982 149.488 C 234.155 150.577,234.203 150.736,234.994 156.251 C 235.491 159.714,235.541 161.268,235.220 163.251 C 234.992 164.653,234.805 167.171,234.803 168.846 C 234.801 171.206,234.632 172.107,234.055 172.846 C 232.835 174.409,231.646 177.004,231.206 179.066 C 230.980 180.130,230.703 181.401,230.592 181.891 C 230.480 182.381,229.412 183.877,228.218 185.215 C 226.860 186.737,225.700 188.553,225.123 190.061 C 224.481 191.740,223.872 192.644,223.121 193.036 C 221.919 193.663,220.236 195.730,219.825 197.082 C 219.678 197.567,218.802 198.379,217.879 198.886 C 216.904 199.422,215.704 200.580,215.017 201.646 C 214.366 202.657,213.196 203.824,212.417 204.242 C 211.637 204.659,210.479 205.810,209.843 206.800 C 209.206 207.790,207.916 209.079,206.975 209.664 C 206.035 210.250,204.862 211.428,204.370 212.283 C 203.878 213.138,202.648 214.369,201.638 215.019 C 200.627 215.669,199.451 216.852,199.024 217.649 C 198.598 218.445,197.470 219.568,196.518 220.142 C 195.558 220.723,194.323 221.958,193.742 222.918 C 193.168 223.870,192.051 224.998,191.260 225.424 C 190.470 225.851,189.305 226.975,188.671 227.921 C 188.037 228.868,186.832 230.097,185.993 230.652 C 184.914 231.366,184.220 232.273,183.619 233.753 C 183.152 234.904,181.953 236.698,180.954 237.740 C 179.922 238.817,178.566 240.890,177.814 242.542 C 177.085 244.142,175.958 245.981,175.309 246.629 C 174.474 247.465,173.685 249.149,172.603 252.404 C 171.763 254.932,170.678 257.540,170.191 258.200 C 168.677 260.254,168.032 262.766,167.214 269.800 C 166.779 273.540,166.209 277.500,165.947 278.600 C 165.686 279.700,165.402 283.219,165.317 286.421 C 165.140 293.070,165.229 293.288,168.360 293.802 L 170.119 294.090 169.849 292.545 C 168.633 285.585,169.316 276.327,171.631 268.400 C 172.305 266.090,173.396 262.014,174.055 259.341 C 175.048 255.312,175.489 254.206,176.638 252.864 C 177.453 251.912,178.586 249.733,179.390 247.571 C 180.380 244.907,181.139 243.546,182.152 242.618 C 182.920 241.915,184.010 240.297,184.573 239.022 C 185.341 237.287,186.733 235.538,190.121 232.053 C 192.609 229.494,195.052 226.815,195.549 226.101 C 196.047 225.386,203.189 218.049,211.422 209.796 C 222.394 198.798,226.660 194.260,227.399 192.803 C 227.953 191.709,228.837 190.532,229.364 190.187 C 229.891 189.841,230.998 188.263,231.823 186.679 C 232.648 185.096,233.899 183.155,234.601 182.366 C 236.225 180.544,238.408 171.901,238.403 167.320 C 238.401 165.736,238.593 163.538,238.830 162.436 C 239.164 160.875,239.126 159.744,238.656 157.316 C 238.325 155.602,237.933 153.123,237.786 151.807 C 237.406 148.398,236.266 145.676,234.349 143.600 C 233.435 142.610,232.142 140.920,231.475 139.845 C 230.399 138.108,229.853 137.700,226.576 136.179 C 224.548 135.238,222.770 134.274,222.624 134.038 C 221.374 132.016,215.645 130.716,212.600 131.765 M184.146 332.171 C 183.237 332.455,181.527 333.237,180.346 333.908 C 179.166 334.579,177.390 335.343,176.400 335.606 C 175.410 335.869,174.074 336.356,173.431 336.688 C 171.401 337.737,162.470 346.939,161.623 348.856 C 161.198 349.816,160.296 351.133,159.619 351.782 C 158.443 352.909,155.610 360.308,155.595 362.293 C 155.592 362.682,155.054 364.530,154.400 366.400 C 153.272 369.624,153.211 370.131,153.211 376.200 C 153.211 382.269,153.272 382.776,154.400 386.000 C 155.054 387.870,155.592 389.718,155.595 390.107 C 155.610 392.092,158.443 399.491,159.619 400.618 C 160.296 401.267,161.185 402.556,161.595 403.482 C 162.444 405.402,167.011 410.202,169.405 411.692 C 170.288 412.241,171.645 413.325,172.421 414.101 C 173.407 415.087,174.641 415.755,176.520 416.318 C 178.078 416.786,179.793 417.638,180.599 418.345 C 182.863 420.333,188.800 421.669,188.800 420.190 C 188.800 419.855,188.340 419.405,187.779 419.192 C 187.217 418.978,186.092 418.272,185.279 417.622 C 184.465 416.971,182.180 415.871,180.200 415.177 C 177.428 414.205,176.135 413.487,174.581 412.057 C 173.470 411.036,171.997 409.900,171.307 409.534 C 170.617 409.167,169.602 408.153,169.051 407.281 C 168.500 406.408,167.246 405.036,166.264 404.231 C 165.282 403.426,164.360 402.280,164.215 401.684 C 163.526 398.850,162.193 395.935,160.832 394.288 C 157.020 389.675,157.020 362.725,160.832 358.112 C 161.656 357.116,162.717 355.198,163.191 353.850 C 164.708 349.535,164.836 349.305,166.445 348.012 C 167.316 347.312,168.483 346.018,169.040 345.136 C 169.597 344.254,170.617 343.233,171.307 342.866 C 171.997 342.500,173.491 341.342,174.627 340.293 C 176.261 338.784,177.433 338.135,180.236 337.188 C 182.184 336.529,184.449 335.452,185.268 334.793 C 186.087 334.135,187.217 333.422,187.779 333.208 C 190.873 332.032,187.589 331.094,184.146 332.171 " stroke="none" fill="#eca450" fill-rule="evenodd"></path></g></svg>
